<svg version="1.1" viewBox="0.0 0.0 960.0 540.0" fill="none" stroke="none" stroke-linecap="square" stroke-miterlimit="10" xmlns:xlink="http://www.w3.org/1999/xlink" xmlns="http://www.w3.org/2000/svg"><clipPath id="g6505ee5980_0_0.0"><path d="m0 0l960.0 0l0 540.0l-960.0 0l0 -540.0z" clip-rule="nonzero"/></clipPath><g clip-path="url(#g6505ee5980_0_0.0)"><path fill="#ffffff" d="m0 0l960.0 0l0 540.0l-960.0 0z" fill-rule="evenodd"/><path fill="#5b5b5b" d="m17.496273 507.77167l0 0c0 -8.349518 6.768608 -15.118134 15.118111 -15.118134l0 0c4.009571 0 7.8549232 1.592804 10.690117 4.428009c2.8351974 2.8351746 4.427994 6.680542 4.427994 10.6901245l0 0c0 8.349487 -6.768608 15.118103 -15.118111 15.118103l0 0c-8.349503 0 -15.118111 -6.7686157 -15.118111 -15.118103z" fill-rule="evenodd"/><path fill="#ffc000" d="m58.23332 288.63254l0 0c0 -35.2202 18.333523 -67.765015 48.09451 -85.37511c29.760994 -17.610107 66.42803 -17.610092 96.189 3.0517578E-5c29.760971 17.610123 48.094467 50.154953 48.094437 85.37517l-29.416504 -3.0517578E-5l0 0c1.5258789E-5 -24.710693 -12.72673 -47.544327 -33.3862 -59.89969c-20.65947 -12.355362 -46.113007 -12.355377 -66.772484 -3.0517578E-5c-20.659485 12.355347 -33.386253 35.188965 -33.386253 59.89966z" fill-rule="evenodd"/><path fill="#ff3f5f" d="m413.32443 288.3852l0 0c0 35.220184 -18.333527 67.765015 -48.094513 85.37509c-29.760956 17.610107 -66.42801 17.610077 -96.188995 -3.0517578E-5c-29.760956 -17.610107 -48.094467 -50.154938 -48.094437 -85.37515l29.41652 3.0517578E-5l0 0c-1.5258789E-5 24.710693 12.726715 47.54431 33.3862 59.89969c20.659485 12.355347 46.113007 12.355377 66.77249 3.0517578E-5c20.659454 -12.355347 33.38623 -35.188965 33.38623 -59.89966z" fill-rule="evenodd"/><path fill="#2ac2ac" d="m383.81522 288.63254l0 0c0 -35.2202 18.333527 -67.765015 48.094513 -85.37511c29.760986 -17.610107 66.42804 -17.610092 96.189026 3.0517578E-5c29.760925 17.610123 48.09442 50.154953 48.09442 85.37517l-29.416504 -3.0517578E-5l0 0c0 -24.710693 -12.726746 -47.544327 -33.38623 -59.89969c-20.659454 -12.355362 -46.112976 -12.355377 -66.77246 -3.0517578E-5c-20.659485 12.355347 -33.38626 35.188965 -33.38626 59.89966z" fill-rule="evenodd"/><path fill="#3bc7e2" d="m738.90643 288.3852l0 0c0 35.220184 -18.333496 67.765015 -48.094482 85.37509c-29.760986 17.610107 -66.42804 17.610077 -96.189026 -3.0517578E-5c-29.760925 -17.610107 -48.09442 -50.154938 -48.09442 -85.37515l29.416504 3.0517578E-5l0 0c0 24.710693 12.726746 47.54431 33.38623 59.89969c20.659424 12.355347 46.112976 12.355377 66.77246 3.0517578E-5c20.659485 -12.355347 33.38623 -35.188965 33.38623 -59.89966z" fill-rule="evenodd"/><path fill="#7f739a" d="m709.38873 288.63254l0 0c0 -35.2202 18.333496 -67.765015 48.094482 -85.37511c29.760986 -17.610107 66.42804 -17.610092 96.189026 3.0517578E-5c29.760986 17.610123 48.094482 50.154953 48.09442 85.37517l-29.416504 -3.0517578E-5l0 0c6.1035156E-5 -24.710693 -12.726746 -47.544327 -33.38617 -59.89969c-20.659485 -12.355362 -46.113037 -12.355377 -66.77252 -3.0517578E-5c-20.659485 12.355347 -33.38623 35.188965 -33.38623 59.89966z" fill-rule="evenodd"/><path fill="#000000" fill-opacity="0.0" d="m98.91916 290.6144c0 -15.190857 5.8843765 -29.759644 16.358467 -40.501175c10.474213 -10.741501 24.680183 -16.776123 39.49282 -16.776123c14.812653 0 29.018738 6.034622 39.49283 16.776123c10.474106 10.741653 16.358475 25.310318 16.358475 40.501175c0 15.190826 -5.884369 29.759644 -16.358475 40.50116c-10.474213 10.741516 -24.680176 16.776123 -39.49283 16.776123c-14.812637 0 -29.01873 -6.034607 -39.49282 -16.776123c-10.474091 -10.741669 -16.358467 -25.310333 -16.358467 -40.50116z" fill-rule="evenodd"/><path stroke="#ffc000" stroke-width="2.0" stroke-linejoin="round" stroke-linecap="butt" stroke-dasharray="2.0,6.0" d="m98.91916 290.6144c0 -15.190857 5.8843765 -29.759644 16.358467 -40.501175c10.474213 -10.741501 24.680183 -16.776123 39.49282 -16.776123c14.812653 0 29.018738 6.034622 39.49283 16.776123c10.474106 10.741653 16.358475 25.310318 16.358475 40.501175c0 15.190826 -5.884369 29.759644 -16.358475 40.50116c-10.474213 10.741516 -24.680176 16.776123 -39.49283 16.776123c-14.812637 0 -29.01873 -6.034607 -39.49282 -16.776123c-10.474091 -10.741669 -16.358467 -25.310333 -16.358467 -40.50116z" fill-rule="evenodd"/><path fill="#000000" fill-opacity="0.0" d="m262.01913 290.6144c0 -15.190857 5.884369 -29.759644 16.35846 -40.501175c10.474213 -10.741501 24.680176 -16.776123 39.49283 -16.776123c14.812653 0 29.018738 6.034622 39.49283 16.776123c10.474091 10.741653 16.35849 25.310318 16.35849 40.501175c0 15.190826 -5.8843994 29.759644 -16.35849 40.50116c-10.474213 10.741516 -24.680176 16.776123 -39.49283 16.776123c-14.812653 0 -29.018738 -6.034607 -39.49283 -16.776123c-10.474091 -10.741669 -16.35846 -25.310333 -16.35846 -40.50116z" fill-rule="evenodd"/><path stroke="#ff3f5f" stroke-width="2.0" stroke-linejoin="round" stroke-linecap="butt" stroke-dasharray="2.0,6.0" d="m262.01913 290.6144c0 -15.190857 5.884369 -29.759644 16.35846 -40.501175c10.474213 -10.741501 24.680176 -16.776123 39.49283 -16.776123c14.812653 0 29.018738 6.034622 39.49283 16.776123c10.474091 10.741653 16.35849 25.310318 16.35849 40.501175c0 15.190826 -5.8843994 29.759644 -16.35849 40.50116c-10.474213 10.741516 -24.680176 16.776123 -39.49283 16.776123c-14.812653 0 -29.018738 -6.034607 -39.49283 -16.776123c-10.474091 -10.741669 -16.35846 -25.310333 -16.35846 -40.50116z" fill-rule="evenodd"/><path fill="#000000" fill-opacity="0.0" d="m425.1191 290.6144c0 -15.190857 5.884369 -29.759644 16.35846 -40.501175c10.474213 -10.741501 24.680176 -16.776123 39.49283 -16.776123c14.812653 0 29.018738 6.034622 39.49286 16.776123c10.47406 10.741653 16.35846 25.310318 16.35846 40.501175c0 15.190826 -5.8843994 29.759644 -16.35846 40.50116c-10.474243 10.741516 -24.680206 16.776123 -39.49286 16.776123c-14.812653 0 -29.018738 -6.034607 -39.49283 -16.776123c-10.474091 -10.741669 -16.35846 -25.310333 -16.35846 -40.50116z" fill-rule="evenodd"/><path stroke="#2ac2ac" stroke-width="2.0" stroke-linejoin="round" stroke-linecap="butt" stroke-dasharray="2.0,6.0" d="m425.1191 290.6144c0 -15.190857 5.884369 -29.759644 16.35846 -40.501175c10.474213 -10.741501 24.680176 -16.776123 39.49283 -16.776123c14.812653 0 29.018738 6.034622 39.49286 16.776123c10.47406 10.741653 16.35846 25.310318 16.35846 40.501175c0 15.190826 -5.8843994 29.759644 -16.35846 40.50116c-10.474243 10.741516 -24.680206 16.776123 -39.49286 16.776123c-14.812653 0 -29.018738 -6.034607 -39.49283 -16.776123c-10.474091 -10.741669 -16.35846 -25.310333 -16.35846 -40.50116z" fill-rule="evenodd"/><path fill="#000000" fill-opacity="0.0" d="m588.21906 290.6144c0 -15.190857 5.8843994 -29.759644 16.35846 -40.501175c10.474243 -10.741501 24.680176 -16.776123 39.49286 -16.776123c14.812622 0 29.018738 6.034622 39.492798 16.776123c10.474121 10.741653 16.35846 25.310318 16.35846 40.501175c0 15.190826 -5.8843384 29.759644 -16.35846 40.50116c-10.474182 10.741516 -24.680176 16.776123 -39.492798 16.776123c-14.812683 0 -29.018738 -6.034607 -39.49286 -16.776123c-10.47406 -10.741669 -16.35846 -25.310333 -16.35846 -40.50116z" fill-rule="evenodd"/><path stroke="#3bc7e2" stroke-width="2.0" stroke-linejoin="round" stroke-linecap="butt" stroke-dasharray="2.0,6.0" d="m588.21906 290.6144c0 -15.190857 5.8843994 -29.759644 16.35846 -40.501175c10.474243 -10.741501 24.680176 -16.776123 39.49286 -16.776123c14.812622 0 29.018738 6.034622 39.492798 16.776123c10.474121 10.741653 16.35846 25.310318 16.35846 40.501175c0 15.190826 -5.8843384 29.759644 -16.35846 40.50116c-10.474182 10.741516 -24.680176 16.776123 -39.492798 16.776123c-14.812683 0 -29.018738 -6.034607 -39.49286 -16.776123c-10.47406 -10.741669 -16.35846 -25.310333 -16.35846 -40.50116z" fill-rule="evenodd"/><path fill="#000000" fill-opacity="0.0" d="m751.3192 290.6144c0 -15.190857 5.8843384 -29.759644 16.35846 -40.501175c10.474182 -10.741501 24.680176 -16.776123 39.492798 -16.776123c14.812683 0 29.018738 6.034622 39.49286 16.776123c10.47406 10.741653 16.35846 25.310318 16.35846 40.501175c0 15.190826 -5.8843994 29.759644 -16.35846 40.50116c-10.474243 10.741516 -24.680176 16.776123 -39.49286 16.776123c-14.812622 0 -29.018738 -6.034607 -39.492798 -16.776123c-10.474121 -10.741669 -16.35846 -25.310333 -16.35846 -40.50116z" fill-rule="evenodd"/><path stroke="#7f739a" stroke-width="2.0" stroke-linejoin="round" stroke-linecap="butt" stroke-dasharray="2.0,6.0" d="m751.3192 290.6144c0 -15.190857 5.8843384 -29.759644 16.35846 -40.501175c10.474182 -10.741501 24.680176 -16.776123 39.492798 -16.776123c14.812683 0 29.018738 6.034622 39.49286 16.776123c10.47406 10.741653 16.35846 25.310318 16.35846 40.501175c0 15.190826 -5.8843994 29.759644 -16.35846 40.50116c-10.474243 10.741516 -24.680176 16.776123 -39.49286 16.776123c-14.812622 0 -29.018738 -6.034607 -39.492798 -16.776123c-10.474121 -10.741669 -16.35846 -25.310333 -16.35846 -40.50116z" fill-rule="evenodd"/><path fill="#000000" fill-opacity="0.0" d="m73.05581 364.39587l147.90552 0l0 36.503937l-147.90552 0z" fill-rule="evenodd"/><path fill="#ffc000" d="m94.24111 392.24783l-3.6875 0l0 -14.46875l-3.609375 1.390625l0 -3.078125l6.90625 -2.828125l0.390625 0l0 18.984375zm5.749939 -9.3125l0.9375 -9.640625l9.1875 0l0 3.15625l-6.15625 0l-0.34375 4.0625q1.0625 -0.71875 2.203125 -0.71875q2.34375 0 3.609375 1.671875q1.265625 1.65625 1.265625 4.703125q0 2.84375 -1.515625 4.59375q-1.5 1.75 -4.03125 1.75q-1.5 0 -2.78125 -0.703125q-1.265625 -0.71875 -2.0 -1.984375q-0.734375 -1.265625 -0.75 -2.859375l3.640625 0q0.09375 1.1875 0.59375 1.84375q0.5 0.640625 1.265625 0.640625q0.921875 0 1.40625 -0.875q0.5 -0.890625 0.5 -2.625q0 -1.640625 -0.59375 -2.46875q-0.59375 -0.84375 -1.65625 -0.84375q-1.046875 0 -1.609375 0.71875l-0.234375 0.328125l-2.9375 -0.75zm17.499939 -8.234375l0 3.46875l1.890625 0l0 2.765625l-1.890625 0l0 6.984375q0 0.84375 0.21875 1.15625q0.234375 0.3125 0.890625 0.3125q0.53125 0 0.859375 -0.09375l-0.015625 2.859375q-0.9375 0.359375 -2.03125 0.359375q-3.5625 0 -3.609375 -4.09375l0 -7.484375l-1.625 0l0 -2.765625l1.625 0l0 -3.46875l3.6875 0zm7.499405 4.703125q1.1875 -1.5 2.9375 -1.5q1.9218674 0 2.9218674 1.359375q1.015625 1.34375 1.015625 4.03125l0 8.953125l-3.6875 0l0 -8.921875q0 -1.234375 -0.39061737 -1.78125q-0.375 -0.5625 -1.234375 -0.5625q-1.0 0 -1.5625 0.9375l0 10.328125l-3.6875 0l0 -20.0l3.6875 0l0 7.15625zm29.185173 5.078125q0 3.8125 -1.796875 5.921875q-1.796875 2.109375 -5.0 2.109375q-3.1875 0 -5.015625 -2.09375q-1.828125 -2.09375 -1.84375 -5.84375l0 -3.25q0 -3.90625 1.796875 -6.09375q1.8125 -2.203125 5.03125 -2.203125q3.15625 0 4.984375 2.15625q1.828125 2.15625 1.84375 6.046875l0 3.25zm-3.828125 -3.1875q0 -2.5625 -0.734375 -3.8125q-0.734375 -1.25 -2.265625 -1.25q-1.515625 0 -2.25 1.21875q-0.734375 1.203125 -0.75 3.65625l0 3.375q0 2.484375 0.734375 3.671875q0.75 1.171875 2.296875 1.171875q1.484375 0 2.21875 -1.15625q0.734375 -1.15625 0.75 -3.578125l0 -3.296875zm11.493713 8.15625q1.59375 0 1.625 -2.078125l3.453125 0q-0.015625 2.296875 -1.421875 3.71875q-1.390625 1.421875 -3.578125 1.421875q-2.734375 0 -4.171875 -1.6875q-1.421875 -1.703125 -1.453125 -5.0l0 -1.109375q0 -3.328125 1.40625 -5.0625q1.421875 -1.75 4.1875 -1.75q2.328125 0 3.671875 1.4375q1.34375 1.4375 1.359375 4.078125l-3.453125 0q-0.015625 -1.1875 -0.40625 -1.8125q-0.375 -0.640625 -1.234375 -0.640625q-0.96875 0 -1.390625 0.6875q-0.40625 0.671875 -0.4375 2.640625l0 1.4375q0 1.71875 0.171875 2.40625q0.171875 0.671875 0.5625 1.0q0.390625 0.3125 1.109375 0.3125zm11.448334 -14.75l0 3.46875l1.890625 0l0 2.765625l-1.890625 0l0 6.984375q0 0.84375 0.21875 1.15625q0.234375 0.3125 0.890625 0.3125q0.53125 0 0.859375 -0.09375l-0.015625 2.859375q-0.9375 0.359375 -2.03125 0.359375q-3.5625 0 -3.609375 -4.09375l0 -7.484375l-1.625 0l0 -2.765625l1.625 0l0 -3.46875l3.6875 0zm5.436905 4.40625l-1.6875 -1.015625q0.921875 -1.84375 0.953125 -3.578125l0 -2.265625l2.890625 0l0 2.0625q0 1.1875 -0.609375 2.5625q-0.609375 1.375 -1.546875 2.234375zm12.768494 13.140625l-3.6875 0l0 -14.46875l-3.609375 1.390625l0 -3.078125l6.90625 -2.828125l0.390625 0l0 18.984375zm12.515564 -7.328125q-1.171875 1.203125 -2.5625 1.203125q-2.15625 0 -3.40625 -1.734375q-1.234375 -1.75 -1.234375 -4.65625q0 -1.859375 0.703125 -3.421875q0.703125 -1.5625 1.953125 -2.421875q1.265625 -0.859375 2.8125 -0.859375q1.59375 0 2.84375 0.953125q1.25 0.953125 1.9375 2.734375q0.703125 1.78125 0.703125 4.03125l0 1.34375q0 4.84375 -2.140625 7.578125q-2.125 2.71875 -6.03125 2.765625l-0.375 0l0 -3.171875l0.25 0q2.15625 -0.015625 3.234375 -1.109375q1.09375 -1.109375 1.3125 -3.234375zm-1.625 -1.6875q1.078125 0 1.6875 -1.46875l0 -1.6875q0 -1.859375 -0.515625 -2.921875q-0.5 -1.0625 -1.3125 -1.0625q-0.796875 0 -1.28125 1.046875q-0.484375 1.046875 -0.484375 2.5625q0 1.640625 0.5 2.59375q0.515625 0.9375 1.40625 0.9375z" fill-rule="nonzero"/><path fill="#000000" fill-opacity="0.0" d="m248.6843 190.67819l147.90552 0l0 36.503937l-147.90552 0z" fill-rule="evenodd"/><path fill="#ff3f5f" d="m272.9321 218.53015l-11.171875 0l0 -2.609375l5.125 -6.515625q0.984375 -1.359375 1.4375 -2.375q0.46875 -1.015625 0.46875 -1.953125q0 -1.265625 -0.4375 -1.984375q-0.4375 -0.71875 -1.25 -0.71875q-0.90625 0 -1.4375 0.84375q-0.515625 0.828125 -0.515625 2.328125l-3.703125 0q0 -1.734375 0.71875 -3.171875q0.734375 -1.453125 2.03125 -2.25q1.3125 -0.8125 2.96875 -0.8125q2.53125 0 3.921875 1.40625q1.40625 1.40625 1.40625 3.984375q0 1.59375 -0.78125 3.25q-0.765625 1.640625 -2.796875 4.046875l-2.421875 3.46875l6.4375 0l0 3.0625zm13.328064 -7.828125q0 3.921875 -1.4375 6.015625q-1.421875 2.078125 -4.0625 2.078125q-2.609375 0 -4.046875 -2.015625q-1.421875 -2.03125 -1.46875 -5.8125l0 -3.578125q0 -3.921875 1.421875 -6.0q1.421875 -2.078125 4.078125 -2.078125q2.65625 0 4.0625 2.0625q1.421875 2.0625 1.453125 5.875l0 3.453125zm-3.703125 -3.84375q0 -2.234375 -0.4375 -3.359375q-0.4375 -1.125 -1.375 -1.125q-1.765625 0 -1.828125 4.109375l0 4.71875q0 2.296875 0.453125 3.421875q0.453125 1.109375 1.390625 1.109375q0.90625 0 1.34375 -1.046875q0.4375 -1.046875 0.453125 -3.203125l0 -4.625zm10.562439 -5.875l0 3.46875l1.890625 0l0 2.765625l-1.890625 0l0 6.984375q0 0.84375 0.21875 1.15625q0.234375 0.3125 0.890625 0.3125q0.53125 0 0.859375 -0.09375l-0.015625 2.859375q-0.9375 0.359375 -2.03125 0.359375q-3.5625 0 -3.609375 -4.09375l0 -7.484375l-1.625 0l0 -2.765625l1.625 0l0 -3.46875l3.6875 0zm7.49942 4.703125q1.1875 -1.5 2.9375 -1.5q1.921875 0 2.921875 1.359375q1.015625 1.34375 1.015625 4.03125l0 8.953125l-3.6875 0l0 -8.921875q0 -1.234375 -0.390625 -1.78125q-0.375 -0.5625 -1.234375 -0.5625q-1.0 0 -1.5625 0.9375l0 10.328125l-3.6875 0l0 -20.0l3.6875 0l0 7.15625zm29.18518 5.078125q0 3.8125 -1.796875 5.921875q-1.796875 2.109375 -5.0 2.109375q-3.1875 0 -5.015625 -2.09375q-1.828125 -2.09375 -1.84375 -5.84375l0 -3.25q0 -3.90625 1.796875 -6.09375q1.8125 -2.203125 5.03125 -2.203125q3.15625 0 4.984375 2.15625q1.828125 2.15625 1.84375 6.046875l0 3.25zm-3.828125 -3.1875q0 -2.5625 -0.734375 -3.8125q-0.734375 -1.25 -2.265625 -1.25q-1.515625 0 -2.25 1.21875q-0.734375 1.203125 -0.75 3.65625l0 3.375q0 2.484375 0.734375 3.671875q0.75 1.171875 2.296875 1.171875q1.484375 0 2.21875 -1.15625q0.734375 -1.15625 0.75 -3.578125l0 -3.296875zm11.493713 8.15625q1.59375 0 1.625 -2.078125l3.453125 0q-0.015625 2.296875 -1.421875 3.71875q-1.390625 1.421875 -3.578125 1.421875q-2.734375 0 -4.171875 -1.6875q-1.421875 -1.703125 -1.453125 -5.0l0 -1.109375q0 -3.328125 1.40625 -5.0625q1.421875 -1.75 4.1875 -1.75q2.328125 0 3.671875 1.4375q1.34375 1.4375 1.359375 4.078125l-3.453125 0q-0.015625 -1.1875 -0.40625 -1.8125q-0.375 -0.640625 -1.234375 -0.640625q-0.96875 0 -1.390625 0.6875q-0.40625 0.671875 -0.4375 2.640625l0 1.4375q0 1.71875 0.171875 2.40625q0.171875 0.671875 0.5625 1.0q0.390625 0.3125 1.109375 0.3125zm11.448334 -14.75l0 3.46875l1.890625 0l0 2.765625l-1.890625 0l0 6.984375q0 0.84375 0.21875 1.15625q0.234375 0.3125 0.890625 0.3125q0.53125 0 0.859375 -0.09375l-0.015625 2.859375q-0.9375 0.359375 -2.03125 0.359375q-3.5625 0 -3.609375 -4.09375l0 -7.484375l-1.625 0l0 -2.765625l1.625 0l0 -3.46875l3.6875 0zm5.4368896 4.40625l-1.6875 -1.015625q0.921875 -1.84375 0.953125 -3.578125l0 -2.265625l2.890625 0l0 2.0625q0 1.1875 -0.609375 2.5625q-0.609375 1.375 -1.546875 2.234375zm12.768494 13.140625l-3.6875 0l0 -14.46875l-3.609375 1.390625l0 -3.078125l6.90625 -2.828125l0.390625 0l0 18.984375zm12.515564 -7.328125q-1.171875 1.203125 -2.5625 1.203125q-2.15625 0 -3.40625 -1.734375q-1.234375 -1.75 -1.234375 -4.65625q0 -1.859375 0.703125 -3.421875q0.703125 -1.5625 1.953125 -2.421875q1.265625 -0.859375 2.8125 -0.859375q1.59375 0 2.84375 0.953125q1.25 0.953125 1.9375 2.734375q0.703125 1.78125 0.703125 4.03125l0 1.34375q0 4.84375 -2.140625 7.578125q-2.125 2.71875 -6.03125 2.765625l-0.375 0l0 -3.171875l0.25 0q2.15625 -0.015625 3.234375 -1.109375q1.09375 -1.109375 1.3125 -3.234375zm-1.625 -1.6875q1.078125 0 1.6875 -1.46875l0 -1.6875q0 -1.859375 -0.515625 -2.921875q-0.5 -1.0625 -1.3125 -1.0625q-0.796875 0 -1.28125 1.046875q-0.484375 1.046875 -0.484375 2.5625q0 1.640625 0.5 2.59375q0.515625 0.9375 1.40625 0.9375z" fill-rule="nonzero"/><path fill="#000000" fill-opacity="0.0" d="m413.32388 364.39587l162.86612 0l0 36.503937l-162.86612 0z" fill-rule="evenodd"/><path fill="#2ac2ac" d="m440.44724 392.24783l-3.6875 0l0 -14.46875l-3.609375 1.390625l0 -3.078125l6.90625 -2.828125l0.390625 0l0 18.984375zm16.390564 -7.828125q0 3.921875 -1.4375 6.015625q-1.421875 2.078125 -4.0625 2.078125q-2.609375 0 -4.046875 -2.015625q-1.421875 -2.03125 -1.46875 -5.8125l0 -3.578125q0 -3.921875 1.421875 -6.0q1.421875 -2.078125 4.078125 -2.078125q2.65625 0 4.0625 2.0625q1.421875 2.0625 1.453125 5.875l0 3.453125zm-3.703125 -3.84375q0 -2.234375 -0.4375 -3.359375q-0.4375 -1.125 -1.375 -1.125q-1.765625 0 -1.828125 4.109375l0 4.71875q0 2.296875 0.453125 3.421875q0.453125 1.109375 1.390625 1.109375q0.90625 0 1.34375 -1.046875q0.4375 -1.046875 0.453125 -3.203125l0 -4.625zm10.562439 -5.875l0 3.46875l1.890625 0l0 2.765625l-1.890625 0l0 6.984375q0 0.84375 0.21875 1.15625q0.234375 0.3125 0.890625 0.3125q0.53125 0 0.859375 -0.09375l-0.015625 2.859375q-0.9375 0.359375 -2.03125 0.359375q-3.5625 0 -3.609375 -4.09375l0 -7.484375l-1.625 0l0 -2.765625l1.625 0l0 -3.46875l3.6875 0zm7.4993896 4.703125q1.1875 -1.5 2.9375 -1.5q1.921875 0 2.921875 1.359375q1.015625 1.34375 1.015625 4.03125l0 8.953125l-3.6875 0l0 -8.921875q0 -1.234375 -0.390625 -1.78125q-0.375 -0.5625 -1.234375 -0.5625q-1.0 0 -1.5625 0.9375l0 10.328125l-3.6875 0l0 -20.0l3.6875 0l0 7.15625zm15.841431 12.84375l0 -18.953125l5.015625 0q3.328125 0 5.296875 2.109375q1.96875 2.109375 2.0 5.78125l0 3.078125q0 3.734375 -1.96875 5.859375q-1.96875 2.125 -5.421875 2.125l-4.921875 0zm3.828125 -15.765625l0 12.59375l1.15625 0q1.90625 0 2.6875 -1.0q0.78125 -1.015625 0.828125 -3.5l0 -3.28125q0 -2.65625 -0.75 -3.703125q-0.734375 -1.046875 -2.53125 -1.109375l-1.390625 0zm16.746735 16.03125q-2.84375 0 -4.4375 -1.6875q-1.578125 -1.703125 -1.578125 -4.859375l0 -1.109375q0 -3.328125 1.453125 -5.140625q1.46875 -1.8125 4.1875 -1.8125q2.65625 0 3.984375 1.703125q1.34375 1.6875 1.375 5.03125l0 1.796875l-7.328125 0q0.078125 1.5625 0.6875 2.296875q0.609375 0.71875 1.890625 0.71875q1.84375 0 3.078125 -1.265625l1.453125 2.234375q-0.6875 0.9375 -1.984375 1.515625q-1.28125 0.578125 -2.78125 0.578125zm-2.3125 -8.640625l3.671875 0l0 -0.34375q-0.015625 -1.265625 -0.40625 -1.90625q-0.390625 -0.65625 -1.359375 -0.65625q-0.96875 0 -1.40625 0.6875q-0.421875 0.6875 -0.5 2.21875zm14.474182 5.578125q1.59375 0 1.625 -2.078125l3.453125 0q-0.015625 2.296875 -1.421875 3.71875q-1.390625 1.421875 -3.578125 1.421875q-2.734375 0 -4.171875 -1.6875q-1.421875 -1.703125 -1.453125 -5.0l0 -1.109375q0 -3.328125 1.40625 -5.0625q1.421875 -1.75 4.1875 -1.75q2.328125 0 3.671875 1.4375q1.34375 1.4375 1.359375 4.078125l-3.453125 0q-0.015625 -1.1875 -0.40625 -1.8125q-0.375 -0.640625 -1.234375 -0.640625q-0.96875 0 -1.390625 0.6875q-0.40625 0.671875 -0.4375 2.640625l0 1.4375q0 1.71875 0.171875 2.40625q0.171875 0.671875 0.5625 1.0q0.390625 0.3125 1.109375 0.3125zm8.242615 -10.34375l-1.6875 -1.015625q0.921875 -1.84375 0.953125 -3.578125l0 -2.265625l2.890625 0l0 2.0625q0 1.1875 -0.609375 2.5625q-0.609375 1.375 -1.546875 2.234375zm12.768494 13.140625l-3.6875 0l0 -14.46875l-3.609375 1.390625l0 -3.078125l6.90625 -2.828125l0.390625 0l0 18.984375zm12.515564 -7.328125q-1.171875 1.203125 -2.5625 1.203125q-2.15625 0 -3.40625 -1.734375q-1.234375 -1.75 -1.234375 -4.65625q0 -1.859375 0.703125 -3.421875q0.703125 -1.5625 1.953125 -2.421875q1.265625 -0.859375 2.8125 -0.859375q1.59375 0 2.84375 0.953125q1.25 0.953125 1.9375 2.734375q0.703125 1.78125 0.703125 4.03125l0 1.34375q0 4.84375 -2.140625 7.578125q-2.125 2.71875 -6.03125 2.765625l-0.375 0l0 -3.171875l0.25 0q2.15625 -0.015625 3.234375 -1.109375q1.09375 -1.109375 1.3125 -3.234375zm-1.625 -1.6875q1.078125 0 1.6875 -1.46875l0 -1.6875q0 -1.859375 -0.515625 -2.921875q-0.5 -1.0625 -1.3125 -1.0625q-0.796875 0 -1.28125 1.046875q-0.484375 1.046875 -0.484375 2.5625q0 1.640625 0.5 2.59375q0.515625 0.9375 1.40625 0.9375z" fill-rule="nonzero"/><path fill="#000000" fill-opacity="0.0" d="m561.5317 190.67819l162.86615 0l0 36.503937l-162.86615 0z" fill-rule="evenodd"/><path fill="#3bc7e2" d="m591.7175 218.53015l-11.171875 0l0 -2.609375l5.125 -6.515625q0.984375 -1.359375 1.4375 -2.375q0.46875 -1.015625 0.46875 -1.953125q0 -1.265625 -0.4375 -1.984375q-0.4375 -0.71875 -1.25 -0.71875q-0.90625 0 -1.4375 0.84375q-0.515625 0.828125 -0.515625 2.328125l-3.703125 0q0 -1.734375 0.71875 -3.171875q0.734375 -1.453125 2.03125 -2.25q1.3125 -0.8125 2.96875 -0.8125q2.53125 0 3.921875 1.40625q1.40625 1.40625 1.40625 3.984375q0 1.59375 -0.78125 3.25q-0.765625 1.640625 -2.796875 4.046875l-2.421875 3.46875l6.4375 0l0 3.0625zm2.687439 -9.3125l0.9375 -9.640625l9.1875 0l0 3.15625l-6.15625 0l-0.34375 4.0625q1.0625 -0.71875 2.203125 -0.71875q2.34375 0 3.609375 1.671875q1.265625 1.65625 1.265625 4.703125q0 2.84375 -1.515625 4.59375q-1.5 1.75 -4.03125 1.75q-1.5 0 -2.78125 -0.703125q-1.265625 -0.71875 -2.0 -1.984375q-0.734375 -1.265625 -0.75 -2.859375l3.640625 0q0.09375 1.1875 0.59375 1.84375q0.5 0.640625 1.265625 0.640625q0.921875 0 1.40625 -0.875q0.5 -0.890625 0.5 -2.625q0 -1.640625 -0.59375 -2.46875q-0.59375 -0.84375 -1.65625 -0.84375q-1.046875 0 -1.609375 0.71875l-0.234375 0.328125l-2.9375 -0.75zm17.499939 -8.234375l0 3.46875l1.890625 0l0 2.765625l-1.890625 0l0 6.984375q0 0.84375 0.21875 1.15625q0.234375 0.3125 0.890625 0.3125q0.53125 0 0.859375 -0.09375l-0.015625 2.859375q-0.9375 0.359375 -2.03125 0.359375q-3.5625 0 -3.609375 -4.09375l0 -7.484375l-1.625 0l0 -2.765625l1.625 0l0 -3.46875l3.6875 0zm7.4993896 4.703125q1.1875 -1.5 2.9375 -1.5q1.921875 0 2.921875 1.359375q1.015625 1.34375 1.015625 4.03125l0 8.953125l-3.6875 0l0 -8.921875q0 -1.234375 -0.390625 -1.78125q-0.375 -0.5625 -1.234375 -0.5625q-1.0 0 -1.5625 0.9375l0 10.328125l-3.6875 0l0 -20.0l3.6875 0l0 7.15625zm15.841431 12.84375l0 -18.953125l5.015625 0q3.328125 0 5.296875 2.109375q1.96875 2.109375 2.0 5.78125l0 3.078125q0 3.734375 -1.96875 5.859375q-1.96875 2.125 -5.421875 2.125l-4.921875 0zm3.828125 -15.765625l0 12.59375l1.15625 0q1.90625 0 2.6875 -1.0q0.78125 -1.015625 0.828125 -3.5l0 -3.28125q0 -2.65625 -0.75 -3.703125q-0.734375 -1.046875 -2.53125 -1.109375l-1.390625 0zm16.746765 16.03125q-2.84375 0 -4.4375 -1.6875q-1.578125 -1.703125 -1.578125 -4.859375l0 -1.109375q0 -3.328125 1.453125 -5.140625q1.46875 -1.8125 4.1875 -1.8125q2.65625 0 3.984375 1.703125q1.34375 1.6875 1.375 5.03125l0 1.796875l-7.328125 0q0.078125 1.5625 0.6875 2.296875q0.609375 0.71875 1.890625 0.71875q1.84375 0 3.078125 -1.265625l1.453125 2.234375q-0.6875 0.9375 -1.984375 1.515625q-1.28125 0.578125 -2.78125 0.578125zm-2.3125 -8.640625l3.671875 0l0 -0.34375q-0.015625 -1.265625 -0.40625 -1.90625q-0.390625 -0.65625 -1.359375 -0.65625q-0.96875 0 -1.40625 0.6875q-0.421875 0.6875 -0.5 2.21875zm14.474182 5.578125q1.59375 0 1.625 -2.078125l3.453125 0q-0.015625 2.296875 -1.421875 3.71875q-1.390625 1.421875 -3.578125 1.421875q-2.734375 0 -4.171875 -1.6875q-1.421875 -1.703125 -1.453125 -5.0l0 -1.109375q0 -3.328125 1.40625 -5.0625q1.421875 -1.75 4.1875 -1.75q2.328125 0 3.671875 1.4375q1.34375 1.4375 1.359375 4.078125l-3.453125 0q-0.015625 -1.1875 -0.40625 -1.8125q-0.375 -0.640625 -1.234375 -0.640625q-0.96875 0 -1.390625 0.6875q-0.40625 0.671875 -0.4375 2.640625l0 1.4375q0 1.71875 0.171875 2.40625q0.171875 0.671875 0.5625 1.0q0.390625 0.3125 1.109375 0.3125zm8.242554 -10.34375l-1.6875 -1.015625q0.921875 -1.84375 0.953125 -3.578125l0 -2.265625l2.890625 0l0 2.0625q0 1.1875 -0.609375 2.5625q-0.609375 1.375 -1.546875 2.234375zm12.768494 13.140625l-3.6875 0l0 -14.46875l-3.609375 1.390625l0 -3.078125l6.90625 -2.828125l0.390625 0l0 18.984375zm12.515564 -7.328125q-1.171875 1.203125 -2.5625 1.203125q-2.15625 0 -3.40625 -1.734375q-1.234375 -1.75 -1.234375 -4.65625q0 -1.859375 0.703125 -3.421875q0.703125 -1.5625 1.953125 -2.421875q1.265625 -0.859375 2.8125 -0.859375q1.59375 0 2.84375 0.953125q1.25 0.953125 1.9375 2.734375q0.703125 1.78125 0.703125 4.03125l0 1.34375q0 4.84375 -2.140625 7.578125q-2.125 2.71875 -6.03125 2.765625l-0.375 0l0 -3.171875l0.25 0q2.15625 -0.015625 3.234375 -1.109375q1.09375 -1.109375 1.3125 -3.234375zm-1.625 -1.6875q1.078125 0 1.6875 -1.46875l0 -1.6875q0 -1.859375 -0.515625 -2.921875q-0.5 -1.0625 -1.3125 -1.0625q-0.796875 0 -1.28125 1.046875q-0.484375 1.046875 -0.484375 2.5625q0 1.640625 0.5 2.59375q0.515625 0.9375 1.40625 0.9375z" fill-rule="nonzero"/><path fill="#000000" fill-opacity="0.0" d="m743.77423 364.39587l147.90546 0l0 36.503937l-147.90546 0z" fill-rule="evenodd"/><path fill="#7f739a" d="m765.54254 392.24783l-11.171875 0l0 -2.609375l5.125 -6.515625q0.984375 -1.359375 1.4375 -2.375q0.46875 -1.015625 0.46875 -1.953125q0 -1.265625 -0.4375 -1.984375q-0.4375 -0.71875 -1.25 -0.71875q-0.90625 0 -1.4375 0.84375q-0.515625 0.828125 -0.515625 2.328125l-3.703125 0q0 -1.734375 0.71875 -3.171875q0.734375 -1.453125 2.03125 -2.25q1.3125 -0.8125 2.96875 -0.8125q2.53125 0 3.921875 1.40625q1.40625 1.40625 1.40625 3.984375q0 1.59375 -0.78125 3.25q-0.765625 1.640625 -2.796875 4.046875l-2.421875 3.46875l6.4375 0l0 3.0625zm13.328064 -7.828125q0 3.921875 -1.4375 6.015625q-1.421875 2.078125 -4.0625 2.078125q-2.609375 0 -4.046875 -2.015625q-1.421875 -2.03125 -1.46875 -5.8125l0 -3.578125q0 -3.921875 1.421875 -6.0q1.421875 -2.078125 4.078125 -2.078125q2.65625 0 4.0625 2.0625q1.421875 2.0625 1.453125 5.875l0 3.453125zm-3.703125 -3.84375q0 -2.234375 -0.4375 -3.359375q-0.4375 -1.125 -1.375 -1.125q-1.765625 0 -1.828125 4.109375l0 4.71875q0 2.296875 0.453125 3.421875q0.453125 1.109375 1.390625 1.109375q0.90625 0 1.34375 -1.046875q0.4375 -1.046875 0.453125 -3.203125l0 -4.625zm10.562439 -5.875l0 3.46875l1.890625 0l0 2.765625l-1.890625 0l0 6.984375q0 0.84375 0.21875 1.15625q0.234375 0.3125 0.890625 0.3125q0.53125 0 0.859375 -0.09375l-0.015625 2.859375q-0.9375 0.359375 -2.03125 0.359375q-3.5625 0 -3.609375 -4.09375l0 -7.484375l-1.625 0l0 -2.765625l1.625 0l0 -3.46875l3.6875 0zm7.4993896 4.703125q1.1875 -1.5 2.9375 -1.5q1.921875 0 2.921875 1.359375q1.015625 1.34375 1.015625 4.03125l0 8.953125l-3.6875 0l0 -8.921875q0 -1.234375 -0.390625 -1.78125q-0.375 -0.5625 -1.234375 -0.5625q-1.0 0 -1.5625 0.9375l0 10.328125l-3.6875 0l0 -20.0l3.6875 0l0 7.15625zm20.84143 -6.109375l3.578125 13.703125l3.578125 -13.703125l5.0 0l0 18.953125l-3.84375 0l0 -5.125l0.34375 -7.90625l-3.78125 13.03125l-2.609375 0l-3.78125 -13.03125l0.34375 7.90625l0 5.125l-3.828125 0l0 -18.953125l5.0 0zm21.729065 18.953125q-0.15625 -0.328125 -0.3125 -1.09375q-0.984375 1.359375 -2.6875 1.359375q-1.765625 0 -2.9375 -1.171875q-1.15625 -1.171875 -1.15625 -3.03125q0 -2.21875 1.40625 -3.421875q1.421875 -1.21875 4.078125 -1.25l1.109375 0l0 -1.125q0 -0.953125 -0.328125 -1.34375q-0.3125 -0.390625 -0.9375 -0.390625q-1.390625 0 -1.390625 1.609375l-3.671875 0q0 -1.953125 1.453125 -3.21875q1.46875 -1.265625 3.703125 -1.265625q2.328125 0 3.59375 1.203125q1.265625 1.203125 1.265625 3.4375l0 6.625q0.03125 1.828125 0.515625 2.859375l0 0.21875l-3.703125 0zm-2.171875 -2.625q0.609375 0 1.03125 -0.25q0.4375 -0.25 0.640625 -0.59375l0 -2.921875l-0.875 0q-0.9375 0 -1.484375 0.609375q-0.53125 0.59375 -0.53125 1.59375q0 1.5625 1.21875 1.5625zm14.98468 -7.90625l-1.234375 -0.109375q-1.5 0 -2.03125 1.328125l0 9.3125l-3.703125 0l0 -14.078125l3.46875 0l0.109375 1.515625q0.875 -1.78125 2.40625 -1.78125q0.625 0 1.015625 0.171875l-0.03125 3.640625zm3.3116455 -2.609375l-1.6875 -1.015625q0.921875 -1.84375 0.953125 -3.578125l0 -2.265625l2.890625 0l0 2.0625q0 1.1875 -0.609375 2.5625q-0.609375 1.375 -1.546875 2.234375zm15.830994 13.140625l-11.171875 0l0 -2.609375l5.125 -6.515625q0.984375 -1.359375 1.4375 -2.375q0.46875 -1.015625 0.46875 -1.953125q0 -1.265625 -0.4375 -1.984375q-0.4375 -0.71875 -1.25 -0.71875q-0.90625 0 -1.4375 0.84375q-0.515625 0.828125 -0.515625 2.328125l-3.703125 0q0 -1.734375 0.71875 -3.171875q0.734375 -1.453125 2.03125 -2.25q1.3125 -0.8125 2.96875 -0.8125q2.53125 0 3.921875 1.40625q1.40625 1.40625 1.40625 3.984375q0 1.59375 -0.78125 3.25q-0.765625 1.640625 -2.796875 4.046875l-2.421875 3.46875l6.4375 0l0 3.0625zm13.328064 -7.828125q0 3.921875 -1.4375 6.015625q-1.421875 2.078125 -4.0625 2.078125q-2.609375 0 -4.046875 -2.015625q-1.421875 -2.03125 -1.46875 -5.8125l0 -3.578125q0 -3.921875 1.421875 -6.0q1.421875 -2.078125 4.078125 -2.078125q2.65625 0 4.0625 2.0625q1.421875 2.0625 1.453125 5.875l0 3.453125zm-3.703125 -3.84375q0 -2.234375 -0.4375 -3.359375q-0.4375 -1.125 -1.375 -1.125q-1.765625 0 -1.828125 4.109375l0 4.71875q0 2.296875 0.453125 3.421875q0.453125 1.109375 1.390625 1.109375q0.90625 0 1.34375 -1.046875q0.4375 -1.046875 0.453125 -3.203125l0 -4.625z" fill-rule="nonzero"/><path fill="#000000" fill-opacity="0.0" d="m97.06654 107.67972l135.05511 0l0 38.015747l-135.05511 0z" fill-rule="evenodd"/><path fill="#5b5b5b" d="m107.55183 119.86534l-4.171875 0l0 3.515625l4.9375 0l0 2.21875l-7.625 0l0 -13.265625l7.59375 0l0 2.234375l-4.90625 0l0 3.140625l4.171875 0l0 2.15625zm6.6237946 2.09375l2.21875 -9.625l3.0 0l-3.828125 13.265625l-2.796875 0l-3.796875 -13.265625l2.96875 0l2.234375 9.625zm13.316895 -2.09375l-4.171875 0l0 3.515625l4.9374924 0l0 2.21875l-7.6249924 0l0 -13.265625l7.5937424 0l0 2.234375l-4.9062424 0l0 3.140625l4.171875 0l0 2.15625zm11.576912 5.734375l-2.6875 0l-3.90625 -8.703125l0 8.703125l-2.6875 0l0 -13.265625l2.6875 0l3.921875 8.703125l0 -8.703125l2.671875 0l0 13.265625zm10.471481 -11.03125l-3.28125 0l0 11.03125l-2.6875 0l0 -11.03125l-3.21875 0l0 -2.234375l9.1875 0l0 2.234375zm9.304443 6.1875l-1.328125 0l0 4.84375l-2.671875 0l0 -13.265625l4.265625 0q2.015625 0 3.109375 1.046875q1.109375 1.046875 1.109375 2.96875q0 2.640625 -1.921875 3.6875l2.3125 5.4375l0 0.125l-2.875 0l-2.0 -4.84375zm-1.328125 -2.234375l1.53125 0q0.796875 0 1.1875 -0.53125q0.40625 -0.53125 0.40625 -1.421875q0 -2.0 -1.5625 -2.0l-1.5625 0l0 3.953125zm16.98642 1.640625q0 2.671875 -1.265625 4.15625q-1.265625 1.46875 -3.5 1.46875q-2.234375 0 -3.515625 -1.453125q-1.265625 -1.46875 -1.28125 -4.109375l0 -2.265625q0 -2.734375 1.265625 -4.265625q1.265625 -1.546875 3.515625 -1.546875q2.203125 0 3.484375 1.515625q1.28125 1.5 1.296875 4.234375l0 2.265625zm-2.6875 -2.21875q0 -1.796875 -0.515625 -2.671875q-0.5 -0.875 -1.578125 -0.875q-1.0625 0 -1.578125 0.84375q-0.515625 0.84375 -0.53125 2.5625l0 2.359375q0 1.734375 0.515625 2.5625q0.53125 0.828125 1.609375 0.828125q1.046875 0 1.546875 -0.796875q0.515625 -0.8125 0.53125 -2.515625l0 -2.296875zm7.2905884 5.4375l4.6875 0l0 2.21875l-7.375 0l0 -13.265625l2.6875 0l0 11.046875zm8.927307 0l4.6875 0l0 2.21875l-7.375 0l0 -13.265625l2.6875 0l0 11.046875zm19.88324 -3.21875q0 2.671875 -1.265625 4.15625q-1.265625 1.46875 -3.5 1.46875q-2.234375 0 -3.515625 -1.453125q-1.265625 -1.46875 -1.28125 -4.109375l0 -2.265625q0 -2.734375 1.265625 -4.265625q1.265625 -1.546875 3.515625 -1.546875q2.203125 0 3.484375 1.515625q1.28125 1.5 1.296875 4.234375l0 2.265625zm-2.6875 -2.21875q0 -1.796875 -0.515625 -2.671875q-0.5 -0.875 -1.578125 -0.875q-1.0625 0 -1.578125 0.84375q-0.515625 0.84375 -0.53125 2.5625l0 2.359375q0 1.734375 0.515625 2.5625q0.53125 0.828125 1.609375 0.828125q1.046875 0 1.546875 -0.796875q0.515625 -0.8125 0.53125 -2.515625l0 -2.296875zm13.228088 -5.609375l0 9.1875q-0.015625 2.0625 -1.140625 3.171875q-1.109375 1.09375 -3.203125 1.09375q-2.140625 0 -3.265625 -1.109375q-1.125 -1.125 -1.125 -3.21875l0 -9.125l2.703125 0l0 9.125q0 1.140625 0.359375 1.625q0.359375 0.46875 1.3125 0.46875q0.96875 0 1.3125 -0.46875q0.359375 -0.484375 0.375 -1.578125l0 -9.171875l2.671875 0zm10.626862 2.234375l-3.28125 0l0 11.03125l-2.6875 0l0 -11.03125l-3.21875 0l0 -2.234375l9.1875 0l0 2.234375z" fill-rule="nonzero"/><path fill="#000000" fill-opacity="0.0" d="m257.0937 412.2258l147.90552 0l0 20.094482l-147.90552 0z" fill-rule="evenodd"/><path fill="#5b5b5b" d="m274.14386 425.30203l-1.328125 0l0 4.84375l-2.671875 0l0 -13.265625l4.265625 0q2.015625 0 3.109375 1.046875q1.109375 1.046875 1.109375 2.96875q0 2.640625 -1.921875 3.6875l2.3125 5.4375l0 0.125l-2.875 0l-2.0 -4.84375zm-1.328125 -2.234375l1.53125 0q0.796875 0 1.1875 -0.53125q0.40625 -0.53125 0.40625 -1.421875q0 -2.0 -1.5625 -2.0l-1.5625 0l0 3.953125zm14.502045 1.34375l-4.171875 0l0 3.515625l4.9375 0l0 2.21875l-7.625 0l0 -13.265625l7.59375 0l0 2.234375l-4.90625 0l0 3.140625l4.171875 0l0 2.15625zm11.311279 4.234375q-0.765625 0.828125 -1.890625 1.265625q-1.125 0.421875 -2.46875 0.421875q-2.28125 0 -3.546875 -1.421875q-1.265625 -1.421875 -1.3125 -4.125l0 -2.390625q0 -2.734375 1.203125 -4.21875q1.203125 -1.484375 3.5 -1.484375q2.15625 0 3.25 1.078125q1.09375 1.0625 1.265625 3.34375l-2.59375 0q-0.109375 -1.265625 -0.53125 -1.71875q-0.421875 -0.46875 -1.3125 -0.46875q-1.078125 0 -1.578125 0.796875q-0.484375 0.78125 -0.515625 2.515625l0 2.40625q0 1.8125 0.546875 2.640625q0.546875 0.8125 1.78125 0.8125q0.796875 0 1.28125 -0.3125l0.234375 -0.15625l0 -2.4375l-1.875 0l0 -2.03125l4.5625 0l0 5.484375zm4.6944275 1.5l-2.671875 0l0 -13.265625l2.671875 0l0 13.265625zm7.8591614 -3.484375q0 -0.8125 -0.421875 -1.21875q-0.40625 -0.421875 -1.5 -0.859375q-2.0 -0.765625 -2.875 -1.78125q-0.875 -1.015625 -0.875 -2.390625q0 -1.6875 1.1875 -2.703125q1.1875 -1.015625 3.015625 -1.015625q1.234375 0 2.1875 0.515625q0.953125 0.515625 1.46875 1.453125q0.515625 0.9375 0.515625 2.140625l-2.671875 0q0 -0.9375 -0.40625 -1.421875q-0.390625 -0.484375 -1.125 -0.484375q-0.703125 0 -1.09375 0.421875q-0.390625 0.40625 -0.390625 1.109375q0 0.546875 0.4375 0.984375q0.4375 0.4375 1.546875 0.921875q1.9375 0.703125 2.8125 1.71875q0.875 1.015625 0.875 2.59375q0 1.734375 -1.109375 2.71875q-1.09375 0.96875 -2.984375 0.96875q-1.28125 0 -2.34375 -0.53125q-1.046875 -0.53125 -1.65625 -1.515625q-0.59375 -0.984375 -0.59375 -2.328125l2.6875 0q0 1.15625 0.4375 1.671875q0.453125 0.515625 1.46875 0.515625q1.40625 0 1.40625 -1.484375zm13.059479 -7.546875l-3.28125 0l0 11.03125l-2.6875 0l0 -11.03125l-3.21875 0l0 -2.234375l9.1875 0l0 2.234375zm5.5516357 6.1875l-1.328125 0l0 4.84375l-2.671875 0l0 -13.265625l4.265625 0q2.015625 0 3.109375 1.046875q1.109375 1.046875 1.109375 2.96875q0 2.640625 -1.921875 3.6875l2.3125 5.4375l0 0.125l-2.875 0l-2.0 -4.84375zm-1.328125 -2.234375l1.53125 0q0.796875 0 1.1875 -0.53125q0.40625 -0.53125 0.40625 -1.421875q0 -2.0 -1.5625 -2.0l-1.5625 0l0 3.953125zm13.970795 4.359375l-3.640625 0l-0.71875 2.71875l-2.828125 0l4.140625 -13.265625l2.453125 0l4.171875 13.265625l-2.859375 0l-0.71875 -2.71875zm-3.0625 -2.234375l2.484375 0l-1.25 -4.71875l-1.234375 4.71875zm15.375305 -6.078125l-3.28125 0l0 11.03125l-2.6875 0l0 -11.03125l-3.21875 0l0 -2.234375l9.1875 0l0 2.234375zm4.3328857 11.03125l-2.671875 0l0 -13.265625l2.671875 0l0 13.265625zm11.593536 -5.4375q0 2.671875 -1.265625 4.15625q-1.265625 1.46875 -3.5 1.46875q-2.234375 0 -3.515625 -1.453125q-1.265625 -1.46875 -1.28125 -4.109375l0 -2.265625q0 -2.734375 1.265625 -4.265625q1.265625 -1.546875 3.515625 -1.546875q2.203125 0 3.484375 1.515625q1.28125 1.5 1.296875 4.234375l0 2.265625zm-2.6875 -2.21875q0 -1.796875 -0.515625 -2.671875q-0.5 -0.875 -1.578125 -0.875q-1.0625 0 -1.578125 0.84375q-0.515625 0.84375 -0.53125 2.5625l0 2.359375q0 1.734375 0.515625 2.5625q0.53125 0.828125 1.609375 0.828125q1.046875 0 1.546875 -0.796875q0.515625 -0.8125 0.53125 -2.515625l0 -2.296875zm13.884338 7.65625l-2.6875 0l-3.90625 -8.703125l0 8.703125l-2.6875 0l0 -13.265625l2.6875 0l3.921875 8.703125l0 -8.703125l2.671875 0l0 13.265625zm7.7514343 -3.484375q0 -0.8125 -0.421875 -1.21875q-0.40625 -0.421875 -1.5 -0.859375q-2.0 -0.765625 -2.875 -1.78125q-0.875 -1.015625 -0.875 -2.390625q0 -1.6875 1.1875 -2.703125q1.1875 -1.015625 3.015625 -1.015625q1.234375 0 2.1875 0.515625q0.953125 0.515625 1.46875 1.453125q0.515625 0.9375 0.515625 2.140625l-2.671875 0q0 -0.9375 -0.40625 -1.421875q-0.390625 -0.484375 -1.125 -0.484375q-0.703125 0 -1.09375 0.421875q-0.390625 0.40625 -0.390625 1.109375q0 0.546875 0.4375 0.984375q0.4375 0.4375 1.546875 0.921875q1.9375 0.703125 2.8125 1.71875q0.875 1.015625 0.875 2.59375q0 1.734375 -1.109375 2.71875q-1.09375 0.96875 -2.984375 0.96875q-1.28125 0 -2.34375 -0.53125q-1.046875 -0.53125 -1.65625 -1.515625q-0.59375 -0.984375 -0.59375 -2.328125l2.6875 0q0 1.15625 0.4375 1.671875q0.453125 0.515625 1.46875 0.515625q1.40625 0 1.40625 -1.484375z" fill-rule="nonzero"/><path fill="#5b5b5b" d="m320.22757 446.70828q0 2.671875 -1.265625 4.15625q-1.265625 1.46875 -3.5 1.46875q-2.234375 0 -3.515625 -1.453125q-1.265625 -1.46875 -1.28125 -4.109375l0 -2.265625q0 -2.734375 1.265625 -4.265625q1.265625 -1.546875 3.515625 -1.546875q2.203125 0 3.484375 1.515625q1.28125 1.5 1.296875 4.234375l0 2.265625zm-2.6875 -2.21875q0 -1.796875 -0.515625 -2.671875q-0.5 -0.875 -1.578125 -0.875q-1.0625 0 -1.578125 0.84375q-0.515625 0.84375 -0.53125 2.5625l0 2.359375q0 1.734375 0.515625 2.5625q0.53125 0.828125 1.609375 0.828125q1.046875 0 1.546875 -0.796875q0.515625 -0.8125 0.53125 -2.515625l0 -2.296875zm7.2905884 2.984375l0 4.671875l-2.6875 0l0 -13.265625l4.515625 0q1.96875 0 3.140625 1.21875q1.171875 1.21875 1.171875 3.171875q0 1.953125 -1.15625 3.078125q-1.15625 1.125 -3.203125 1.125l-1.78125 0zm0 -2.21875l1.828125 0q0.765625 0 1.1875 -0.5q0.421875 -0.5 0.421875 -1.46875q0 -0.984375 -0.4375 -1.5625q-0.421875 -0.59375 -1.140625 -0.609375l-1.859375 0l0 4.140625zm14.784424 1.15625l-4.171875 0l0 3.515625l4.9375 0l0 2.21875l-7.625 0l0 -13.265625l7.59375 0l0 2.234375l-4.90625 0l0 3.140625l4.171875 0l0 2.15625zm11.576935 5.734375l-2.6875 0l-3.90625 -8.703125l0 8.703125l-2.6875 0l0 -13.265625l2.6875 0l3.921875 8.703125l0 -8.703125l2.671875 0l0 13.265625z" fill-rule="nonzero"/><path fill="#000000" fill-opacity="0.0" d="m396.7769 107.67972l162.86618 0l0 20.094482l-162.86618 0z" fill-rule="evenodd"/><path fill="#5b5b5b" d="m443.8018 122.88097l-3.640625 0l-0.71875 2.71875l-2.828125 0l4.140625 -13.265625l2.453125 0l4.171875 13.265625l-2.859375 0l-0.71875 -2.71875zm-3.0625 -2.234375l2.484375 0l-1.25 -4.71875l-1.234375 4.71875zm7.875305 4.953125l0 -13.265625l4.109375 0q2.0625 0 3.140625 0.921875q1.09375 0.921875 1.09375 2.71875q0 1.0 -0.453125 1.734375q-0.4375 0.734375 -1.21875 1.0625q0.890625 0.265625 1.375 1.03125q0.484375 0.765625 0.484375 1.890625q0 1.9375 -1.0625 2.921875q-1.0625 0.984375 -3.078125 0.984375l-4.390625 0zm2.6875 -5.765625l0 3.546875l1.703125 0q0.71875 0 1.09375 -0.4375q0.375 -0.453125 0.375 -1.28125q0 -1.78125 -1.296875 -1.828125l-1.875 0zm0 -1.953125l1.390625 0q1.578125 0 1.578125 -1.625q0 -0.90625 -0.375 -1.296875q-0.359375 -0.390625 -1.171875 -0.390625l-1.421875 0l0 3.3125zm13.388672 4.234375q0 -0.8125 -0.421875 -1.21875q-0.40625 -0.421875 -1.5 -0.859375q-2.0 -0.765625 -2.875 -1.78125q-0.875 -1.015625 -0.875 -2.390625q0 -1.6875 1.1875 -2.703125q1.1875 -1.015625 3.015625 -1.015625q1.234375 0 2.1875 0.515625q0.953125 0.515625 1.46875 1.453125q0.515625 0.9375 0.515625 2.140625l-2.671875 0q0 -0.9375 -0.40625 -1.421875q-0.390625 -0.484375 -1.125 -0.484375q-0.703125 0 -1.09375 0.421875q-0.390625 0.40625 -0.390625 1.109375q0 0.546875 0.4375 0.984375q0.4375 0.4375 1.546875 0.921875q1.9375 0.703125 2.8125 1.71875q0.875 1.015625 0.875 2.59375q0 1.734375 -1.109375 2.71875q-1.09375 0.96875 -2.984375 0.96875q-1.28125 0 -2.34375 -0.53125q-1.046875 -0.53125 -1.65625 -1.515625q-0.59375 -0.984375 -0.59375 -2.328125l2.6875 0q0 1.15625 0.4375 1.671875q0.453125 0.515625 1.46875 0.515625q1.40625 0 1.40625 -1.484375zm13.059479 -7.546875l-3.28125 0l0 11.03125l-2.6875 0l0 -11.03125l-3.21875 0l0 -2.234375l9.1875 0l0 2.234375zm5.5516357 6.1875l-1.328125 0l0 4.84375l-2.671875 0l0 -13.265625l4.265625 0q2.015625 0 3.109375 1.046875q1.109375 1.046875 1.109375 2.96875q0 2.640625 -1.921875 3.6875l2.3125 5.4375l0 0.125l-2.875 0l-2.0 -4.84375zm-1.328125 -2.234375l1.53125 0q0.796875 0 1.1875 -0.53125q0.40625 -0.53125 0.40625 -1.421875q0 -2.0 -1.5625 -2.0l-1.5625 0l0 3.953125zm13.970795 4.359375l-3.640625 0l-0.71875 2.71875l-2.828125 0l4.140625 -13.265625l2.453125 0l4.171875 13.265625l-2.859375 0l-0.71875 -2.71875zm-3.0625 -2.234375l2.484375 0l-1.25 -4.71875l-1.234375 4.71875zm16.683899 0.53125q-0.109375 2.265625 -1.28125 3.4375q-1.171875 1.171875 -3.3125 1.171875q-2.25 0 -3.453125 -1.484375q-1.203125 -1.484375 -1.203125 -4.21875l0 -2.234375q0 -2.734375 1.234375 -4.21875q1.25 -1.484375 3.453125 -1.484375q2.171875 0 3.296875 1.21875q1.125 1.21875 1.28125 3.484375l-2.6875 0q-0.046875 -1.40625 -0.4375 -1.9375q-0.390625 -0.53125 -1.453125 -0.53125q-1.078125 0 -1.53125 0.75q-0.4375 0.75 -0.46875 2.46875l0 2.5q0 1.984375 0.4375 2.71875q0.453125 0.734375 1.53125 0.734375q1.046875 0 1.453125 -0.5q0.40625 -0.515625 0.453125 -1.875l2.6875 0zm9.96933 -6.609375l-3.28125 0l0 11.03125l-2.6875 0l0 -11.03125l-3.2187805 0l0 -2.234375l9.1875305 0l0 2.234375z" fill-rule="nonzero"/><path fill="#5b5b5b" d="m435.7452 144.11534q0 -0.8125 -0.421875 -1.21875q-0.40625 -0.421875 -1.5 -0.859375q-2.0 -0.765625 -2.875 -1.78125q-0.875 -1.015625 -0.875 -2.390625q0 -1.6875 1.1875 -2.703125q1.1875 -1.015625 3.015625 -1.015625q1.234375 0 2.1875 0.515625q0.953125 0.515625 1.46875 1.453125q0.515625 0.9375 0.515625 2.140625l-2.671875 0q0 -0.9375 -0.40625 -1.421875q-0.390625 -0.484375 -1.125 -0.484375q-0.703125 0 -1.09375 0.421875q-0.390625 0.40625 -0.390625 1.109375q0 0.546875 0.4375 0.984375q0.4375 0.4375 1.546875 0.921875q1.9375 0.703125 2.8125 1.71875q0.875 1.015625 0.875 2.59375q0 1.734375 -1.109375 2.71875q-1.09375 0.96875 -2.984375 0.96875q-1.28125 0 -2.34375 -0.53125q-1.046875 -0.53125 -1.65625 -1.515625q-0.59375 -0.984375 -0.59375 -2.328125l2.6875 0q0 1.15625 0.4375 1.671875q0.453125 0.515625 1.46875 0.515625q1.40625 0 1.40625 -1.484375zm13.090729 -9.78125l0 9.1875q-0.015625 2.0625 -1.140625 3.171875q-1.109375 1.09375 -3.203125 1.09375q-2.140625 0 -3.265625 -1.109375q-1.125 -1.125 -1.125 -3.21875l0 -9.125l2.703125 0l0 9.125q0 1.140625 0.359375 1.625q0.359375 0.46875 1.3125 0.46875q0.96875 0 1.3125 -0.46875q0.359375 -0.484375 0.375 -1.578125l0 -9.171875l2.671875 0zm2.0331116 13.265625l0 -13.265625l4.109375 0q2.0625 0 3.140625 0.921875q1.09375 0.921875 1.09375 2.71875q0 1.0 -0.453125 1.734375q-0.4375 0.734375 -1.21875 1.0625q0.890625 0.265625 1.375 1.03125q0.484375 0.765625 0.484375 1.890625q0 1.9375 -1.0625 2.921875q-1.0625 0.984375 -3.078125 0.984375l-4.390625 0zm2.6875 -5.765625l0 3.546875l1.703125 0q0.71875 0 1.09375 -0.4375q0.375 -0.453125 0.375 -1.28125q0 -1.78125 -1.296875 -1.828125l-1.875 0zm0 -1.953125l1.390625 0q1.578125 0 1.578125 -1.625q0 -0.90625 -0.375 -1.296875q-0.359375 -0.390625 -1.171875 -0.390625l-1.421875 0l0 3.3125zm11.279327 -5.546875l2.5 9.59375l2.5 -9.59375l3.5 0l0 13.265625l-2.6875 0l0 -3.59375l0.25 -5.53125l-2.65625 9.125l-1.8125 0l-2.65625 -9.125l0.25 5.53125l0 3.59375l-2.6875 0l0 -13.265625l3.5 0zm13.443909 13.265625l-2.671875 0l0 -13.265625l2.671875 0l0 13.265625zm7.8591614 -3.484375q0 -0.8125 -0.421875 -1.21875q-0.40625 -0.421875 -1.5 -0.859375q-2.0 -0.765625 -2.875 -1.78125q-0.875 -1.015625 -0.875 -2.390625q0 -1.6875 1.1875 -2.703125q1.1875 -1.015625 3.015625 -1.015625q1.234375 0 2.1875 0.515625q0.953125 0.515625 1.46875 1.453125q0.515625 0.9375 0.515625 2.140625l-2.671875 0q0 -0.9375 -0.40625 -1.421875q-0.390625 -0.484375 -1.125 -0.484375q-0.703125 0 -1.09375 0.421875q-0.390625 0.40625 -0.390625 1.109375q0 0.546875 0.4375 0.984375q0.4375 0.4375 1.546875 0.921875q1.9375 0.703125 2.8125 1.71875q0.875 1.015625 0.875 2.59375q0 1.734375 -1.109375 2.71875q-1.09375 0.96875 -2.984375 0.96875q-1.28125 0 -2.34375 -0.53125q-1.046875 -0.53125 -1.65625 -1.515625q-0.59375 -0.984375 -0.59375 -2.328125l2.6875 0q0 1.15625 0.4375 1.671875q0.453125 0.515625 1.46875 0.515625q1.40625 0 1.40625 -1.484375zm10.075104 0q0 -0.8125 -0.421875 -1.21875q-0.40625 -0.421875 -1.5 -0.859375q-2.0 -0.765625 -2.875 -1.78125q-0.875 -1.015625 -0.875 -2.390625q0 -1.6875 1.1875 -2.703125q1.1875 -1.015625 3.015625 -1.015625q1.234375 0 2.1875 0.515625q0.953125 0.515625 1.46875 1.453125q0.515625 0.9375 0.515625 2.140625l-2.671875 0q0 -0.9375 -0.40625 -1.421875q-0.390625 -0.484375 -1.125 -0.484375q-0.703125 0 -1.09375 0.421875q-0.390625 0.40625 -0.390625 1.109375q0 0.546875 0.4375 0.984375q0.4375 0.4375 1.546875 0.921875q1.9375 0.703125 2.8125 1.71875q0.875 1.015625 0.875 2.59375q0 1.734375 -1.109375 2.71875q-1.09375 0.96875 -2.984375 0.96875q-1.28125 0 -2.34375 -0.53125q-1.046875 -0.53125 -1.65625 -1.515625q-0.59375 -0.984375 -0.59375 -2.328125l2.6875 0q0 1.15625 0.4375 1.671875q0.453125 0.515625 1.46875 0.515625q1.40625 0 1.40625 -1.484375zm7.2626038 3.484375l-2.671875 0l0 -13.265625l2.671875 0l0 13.265625zm11.593536 -5.4375q0 2.671875 -1.265625 4.15625q-1.265625 1.46875 -3.5 1.46875q-2.234375 0 -3.515625 -1.453125q-1.265625 -1.46875 -1.28125 -4.109375l0 -2.265625q0 -2.734375 1.265625 -4.265625q1.265625 -1.546875 3.515625 -1.546875q2.203125 0 3.484375 1.515625q1.28125 1.5 1.296875 4.234375l0 2.265625zm-2.6875 -2.21875q0 -1.796875 -0.515625 -2.671875q-0.5 -0.875 -1.578125 -0.875q-1.0625 0 -1.578125 0.84375q-0.515625 0.84375 -0.53125 2.5625l0 2.359375q0 1.734375 0.515625 2.5625q0.53125 0.828125 1.609375 0.828125q1.046875 0 1.546875 -0.796875q0.515625 -0.8125 0.53125 -2.515625l0 -2.296875zm13.884338 7.65625l-2.6875 0l-3.90625 -8.703125l0 8.703125l-2.6875 0l0 -13.265625l2.6875 0l3.921875 8.703125l0 -8.703125l2.671875 0l0 13.265625z" fill-rule="nonzero"/><path fill="#5b5b5b" d="m441.30862 169.59972l0 -13.265625l3.515625 0q2.3125 0 3.6875 1.484375q1.390625 1.46875 1.421875 4.03125l0 2.15625q0 2.609375 -1.390625 4.109375q-1.375 1.484375 -3.796875 1.484375l-3.4375 0zm2.6875 -11.03125l0 8.8125l0.796875 0q1.34375 0 1.890625 -0.703125q0.546875 -0.71875 0.5625 -2.4375l0 -2.3125q0 -1.859375 -0.515625 -2.59375q-0.515625 -0.734375 -1.765625 -0.765625l-0.96875 0zm14.711578 5.296875l-4.171875 0l0 3.515625l4.9375 0l0 2.21875l-7.625 0l0 -13.265625l7.59375 0l0 2.234375l-4.90625 0l0 3.140625l4.171875 0l0 2.15625zm8.623779 3.015625l-3.640625 0l-0.71875 2.71875l-2.828125 0l4.140625 -13.265625l2.453125 0l4.171875 13.265625l-2.859375 0l-0.71875 -2.71875zm-3.0625 -2.234375l2.484375 0l-1.25 -4.71875l-1.234375 4.71875zm7.875305 4.953125l0 -13.265625l3.515625 0q2.3125 0 3.6875 1.484375q1.390625 1.46875 1.421875 4.03125l0 2.15625q0 2.609375 -1.390625 4.109375q-1.375 1.484375 -3.796875 1.484375l-3.4375 0zm2.6875 -11.03125l0 8.8125l0.796875 0q1.34375 0 1.890625 -0.703125q0.546875 -0.71875 0.5625 -2.4375l0 -2.3125q0 -1.859375 -0.515625 -2.59375q-0.515625 -0.734375 -1.765625 -0.765625l-0.96875 0zm10.539673 8.8125l4.6875 0l0 2.21875l-7.375 0l0 -13.265625l2.6875 0l0 11.046875zm9.036682 2.21875l-2.671875 0l0 -13.265625l2.671875 0l0 13.265625zm11.531036 0l-2.6875 0l-3.90625 -8.703125l0 8.703125l-2.6875 0l0 -13.265625l2.6875 0l3.921875 8.703125l0 -8.703125l2.671875 0l0 13.265625zm9.001434 -5.734375l-4.171875 0l0 3.515625l4.9375 0l0 2.21875l-7.625 0l0 -13.265625l7.59375 0l0 2.234375l-4.90625 0l0 3.140625l4.171875 0l0 2.15625z" fill-rule="nonzero"/><path fill="#000000" fill-opacity="0.0" d="m587.28076 412.2258l135.05511 0l0 20.094482l-135.05511 0z" fill-rule="evenodd"/><path fill="#5b5b5b" d="m617.99615 426.6614q0 -0.8125 -0.421875 -1.21875q-0.40625 -0.421875 -1.5 -0.859375q-2.0 -0.765625 -2.875 -1.78125q-0.875 -1.015625 -0.875 -2.390625q0 -1.6875 1.1875 -2.703125q1.1875 -1.015625 3.015625 -1.015625q1.234375 0 2.1875 0.515625q0.953125 0.515625 1.46875 1.453125q0.515625 0.9375 0.515625 2.140625l-2.671875 0q0 -0.9375 -0.40625 -1.421875q-0.390625 -0.484375 -1.125 -0.484375q-0.703125 0 -1.09375 0.421875q-0.390625 0.40625 -0.390625 1.109375q0 0.546875 0.4375 0.984375q0.4375 0.4375 1.546875 0.921875q1.9375 0.703125 2.8125 1.71875q0.875 1.015625 0.875 2.59375q0 1.734375 -1.109375 2.71875q-1.09375 0.96875 -2.984375 0.96875q-1.28125 0 -2.34375 -0.53125q-1.046875 -0.53125 -1.65625 -1.515625q-0.59375 -0.984375 -0.59375 -2.328125l2.6875 0q0 1.15625 0.4375 1.671875q0.453125 0.515625 1.46875 0.515625q1.40625 0 1.40625 -1.484375zm13.762573 3.484375l-2.65625 0l0 -5.671875l-3.953125 0l0 5.671875l-2.6875 0l0 -13.265625l2.6875 0l0 5.375l3.953125 0l0 -5.375l2.65625 0l0 13.265625zm11.497559 -5.4375q0 2.671875 -1.265625 4.15625q-1.265625 1.46875 -3.5 1.46875q-2.234375 0 -3.515625 -1.453125q-1.265625 -1.46875 -1.28125 -4.109375l0 -2.265625q0 -2.734375 1.265625 -4.265625q1.265625 -1.546875 3.515625 -1.546875q2.203125 0 3.484375 1.515625q1.28125 1.5 1.296875 4.234375l0 2.265625zm-2.6875 -2.21875q0 -1.796875 -0.515625 -2.671875q-0.5 -0.875 -1.578125 -0.875q-1.0625 0 -1.578125 0.84375q-0.515625 0.84375 -0.53125 2.5625l0 2.359375q0 1.734375 0.515625 2.5625q0.53125 0.828125 1.609375 0.828125q1.046875 0 1.546875 -0.796875q0.515625 -0.8125 0.53125 -2.515625l0 -2.296875zm8.618713 2.8125l-1.328125 0l0 4.84375l-2.671875 0l0 -13.265625l4.265625 0q2.015625 0 3.109375 1.046875q1.109375 1.046875 1.109375 2.96875q0 2.640625 -1.921875 3.6875l2.3125 5.4375l0 0.125l-2.875 0l-2.0 -4.84375zm-1.328125 -2.234375l1.53125 0q0.796875 0 1.1875 -0.53125q0.40625 -0.53125 0.40625 -1.421875q0 -2.0 -1.5625 -2.0l-1.5625 0l0 3.953125zm15.78064 -3.953125l-3.28125 0l0 11.03125l-2.6875 0l0 -11.03125l-3.21875 0l0 -2.234375l9.1875 0l0 2.234375zm4.2235107 8.8125l4.6875 0l0 2.21875l-7.375 0l0 -13.265625l2.6875 0l0 11.046875zm9.036682 2.21875l-2.671875 0l0 -13.265625l2.671875 0l0 13.265625zm7.859192 -3.484375q0 -0.8125 -0.421875 -1.21875q-0.40625 -0.421875 -1.5 -0.859375q-2.0 -0.765625 -2.875 -1.78125q-0.875 -1.015625 -0.875 -2.390625q0 -1.6875 1.1875 -2.703125q1.1875 -1.015625 3.015625 -1.015625q1.234375 0 2.1875 0.515625q0.953125 0.515625 1.46875 1.453125q0.515625 0.9375 0.515625 2.140625l-2.671875 0q0 -0.9375 -0.40625 -1.421875q-0.390625 -0.484375 -1.125 -0.484375q-0.703125 0 -1.09375 0.421875q-0.390625 0.40625 -0.390625 1.109375q0 0.546875 0.4375 0.984375q0.4375 0.4375 1.546875 0.921875q1.9375 0.703125 2.8125 1.71875q0.875 1.015625 0.875 2.59375q0 1.734375 -1.109375 2.71875q-1.09375 0.96875 -2.984375 0.96875q-1.28125 0 -2.34375 -0.53125q-1.046875 -0.53125 -1.65625 -1.515625q-0.59375 -0.984375 -0.59375 -2.328125l2.6875 0q0 1.15625 0.4375 1.671875q0.453125 0.515625 1.46875 0.515625q1.40625 0 1.40625 -1.484375zm13.059448 -7.546875l-3.28125 0l0 11.03125l-2.6875 0l0 -11.03125l-3.21875 0l0 -2.234375l9.1875 0l0 2.234375z" fill-rule="nonzero"/><path fill="#5b5b5b" d="m613.3675 449.42703l-3.640625 0l-0.71875 2.71875l-2.828125 0l4.140625 -13.265625l2.453125 0l4.171875 13.265625l-2.859375 0l-0.71875 -2.71875zm-3.0625 -2.234375l2.484375 0l-1.25 -4.71875l-1.234375 4.71875zm17.156555 4.953125l-2.6875 0l-3.90625 -8.703125l0 8.703125l-2.6875 0l0 -13.265625l2.6875 0l3.921875 8.703125l0 -8.703125l2.671875 0l0 13.265625zm11.423279 0l-2.6875 0l-3.90625 -8.703125l0 8.703125l-2.6875 0l0 -13.265625l2.6875 0l3.921875 8.703125l0 -8.703125l2.671875 0l0 13.265625zm11.48584 -5.4375q0 2.671875 -1.265625 4.15625q-1.265625 1.46875 -3.5 1.46875q-2.234375 0 -3.515625 -1.453125q-1.265625 -1.46875 -1.28125 -4.109375l0 -2.265625q0 -2.734375 1.265625 -4.265625q1.265625 -1.546875 3.515625 -1.546875q2.203125 0 3.484375 1.515625q1.28125 1.5 1.296875 4.234375l0 2.265625zm-2.6875 -2.21875q0 -1.796875 -0.515625 -2.671875q-0.5 -0.875 -1.578125 -0.875q-1.0625 0 -1.578125 0.84375q-0.515625 0.84375 -0.53125 2.5625l0 2.359375q0 1.734375 0.515625 2.5625q0.53125 0.828125 1.609375 0.828125q1.046875 0 1.546875 -0.796875q0.515625 -0.8125 0.53125 -2.515625l0 -2.296875zm13.228088 -5.609375l0 9.1875q-0.015625 2.0625 -1.140625 3.171875q-1.109375 1.09375 -3.203125 1.09375q-2.140625 0 -3.265625 -1.109375q-1.125 -1.125 -1.125 -3.21875l0 -9.125l2.703125 0l0 9.125q0 1.140625 0.359375 1.625q0.359375 0.46875 1.3125 0.46875q0.96875 0 1.3125 -0.46875q0.359375 -0.484375 0.375 -1.578125l0 -9.171875l2.671875 0zm11.314331 13.265625l-2.6875 0l-3.90625 -8.703125l0 8.703125l-2.6875 0l0 -13.265625l2.6875 0l3.921875 8.703125l0 -8.703125l2.671875 0l0 13.265625zm11.14209 -4.421875q-0.109375 2.265625 -1.28125 3.4375q-1.171875 1.171875 -3.3125 1.171875q-2.25 0 -3.453125 -1.484375q-1.203125 -1.484375 -1.203125 -4.21875l0 -2.234375q0 -2.734375 1.234375 -4.21875q1.25 -1.484375 3.453125 -1.484375q2.171875 0 3.296875 1.21875q1.125 1.21875 1.28125 3.484375l-2.6875 0q-0.046875 -1.40625 -0.4375 -1.9375q-0.390625 -0.53125 -1.453125 -0.53125q-1.078125 0 -1.53125 0.75q-0.4375 0.75 -0.46875 2.46875l0 2.5q0 1.984375 0.4375 2.71875q0.453125 0.734375 1.53125 0.734375q1.046875 0 1.453125 -0.5q0.40625 -0.515625 0.453125 -1.875l2.6875 0zm8.499268 -1.3125l-4.171875 0l0 3.515625l4.9375 0l0 2.21875l-7.625 0l0 -13.265625l7.59375 0l0 2.234375l-4.90625 0l0 3.140625l4.171875 0l0 2.15625zm2.2956543 5.734375l0 -13.265625l3.515625 0q2.3125 0 3.6875 1.484375q1.390625 1.46875 1.421875 4.03125l0 2.15625q0 2.609375 -1.390625 4.109375q-1.375 1.484375 -3.796875 1.484375l-3.4375 0zm2.6875 -11.03125l0 8.8125l0.796875 0q1.34375 0 1.890625 -0.703125q0.546875 -0.71875 0.5625 -2.4375l0 -2.3125q0 -1.859375 -0.515625 -2.59375q-0.515625 -0.734375 -1.765625 -0.765625l-0.96875 0z" fill-rule="nonzero"/><path fill="#010000" fill-opacity="0.0" d="m703.6398 434.83774l0 0l0 21.862793l0 0l0 -21.862793z" fill-rule="nonzero"/><path fill="#000000" fill-opacity="0.0" d="m728.83234 107.67972l162.86615 0l0 20.094482l-162.86615 0z" fill-rule="evenodd"/><path fill="#5b5b5b" d="m778.438 120.47472l-1.046875 1.328125l0 3.796875l-2.6875 0l0 -13.265625l2.6875 0l0 5.78125l0.84375 -1.421875l2.46875 -4.359375l3.28125 0l-3.796875 5.828125l3.859375 7.4375l-3.1875 0l-2.421875 -5.125zm12.914795 2.40625l-3.640625 0l-0.71875 2.71875l-2.828125 0l4.140625 -13.265625l2.453125 0l4.171875 13.265625l-2.859375 0l-0.71875 -2.71875zm-3.0625 -2.234375l2.484375 0l-1.25 -4.71875l-1.234375 4.71875zm10.562805 2.734375l4.6875 0l0 2.21875l-7.375 0l0 -13.265625l2.6875 0l0 11.046875zm8.927307 -2.453125l0 4.671875l-2.6875 0l0 -13.265625l4.515625 0q1.96875 0 3.140625 1.21875q1.171875 1.21875 1.171875 3.171875q0 1.953125 -1.15625 3.078125q-1.15625 1.125 -3.203125 1.125l-1.78125 0zm0 -2.21875l1.828125 0q0.765625 0 1.1875 -0.5q0.421875 -0.5 0.421875 -1.46875q0 -0.984375 -0.4375 -1.5625q-0.421875 -0.59375 -1.140625 -0.609375l-1.859375 0l0 4.140625zm12.630798 4.171875l-3.640625 0l-0.71875 2.71875l-2.828125 0l4.140625 -13.265625l2.453125 0l4.171875 13.265625l-2.859375 0l-0.71875 -2.71875zm-3.0625 -2.234375l2.484375 0l-1.25 -4.71875l-1.234375 4.71875zm17.156555 4.953125l-2.6875 0l-3.90625 -8.703125l0 8.703125l-2.6875 0l0 -13.265625l2.6875 0l3.921875 8.703125l0 -8.703125l2.671875 0l0 13.265625zm8.634216 -2.71875l-3.640625 0l-0.71875 2.71875l-2.828125 0l4.140625 -13.265625l2.453125 0l4.171875 13.265625l-2.859375 0l-0.71875 -2.71875zm-3.0625 -2.234375l2.484375 0l-1.25 -4.71875l-1.234375 4.71875z" fill-rule="nonzero"/><path fill="#5b5b5b" d="m790.3467 142.19347l-4.15625 0l0 5.40625l-2.6875 0l0 -13.265625l7.34375 0l0 2.234375l-4.65625 0l0 3.390625l4.15625 0l0 2.234375zm4.8257446 5.40625l-2.671875 0l0 -13.265625l2.671875 0l0 13.265625zm11.531067 0l-2.6875 0l-3.90625 -8.703125l0 8.703125l-2.6875 0l0 -13.265625l2.6875 0l3.921875 8.703125l0 -8.703125l2.671875 0l0 13.265625zm8.634216 -2.71875l-3.640625 0l-0.71875 2.71875l-2.828125 0l4.140625 -13.265625l2.453125 0l4.171875 13.265625l-2.859375 0l-0.71875 -2.71875zm-3.0625 -2.234375l2.484375 0l-1.25 -4.71875l-1.234375 4.71875zm10.562805 2.734375l4.6875 0l0 2.21875l-7.375 0l0 -13.265625l2.6875 0l0 11.046875zm11.849182 -1.265625q0 -0.8125 -0.421875 -1.21875q-0.40625 -0.421875 -1.5 -0.859375q-2.0 -0.765625 -2.875 -1.78125q-0.875 -1.015625 -0.875 -2.390625q0 -1.6875 1.1875 -2.703125q1.1875 -1.015625 3.015625 -1.015625q1.234375 0 2.1875 0.515625q0.953125 0.515625 1.46875 1.453125q0.515625 0.9375 0.515625 2.140625l-2.671875 0q0 -0.9375 -0.40625 -1.421875q-0.390625 -0.484375 -1.125 -0.484375q-0.703125 0 -1.09375 0.421875q-0.390625 0.40625 -0.390625 1.109375q0 0.546875 0.4375 0.984375q0.4375 0.4375 1.546875 0.921875q1.9375 0.703125 2.8125 1.71875q0.875 1.015625 0.875 2.59375q0 1.734375 -1.109375 2.71875q-1.09375 0.96875 -2.984375 0.96875q-1.28125 0 -2.34375 -0.53125q-1.046875 -0.53125 -1.65625 -1.515625q-0.59375 -0.984375 -0.59375 -2.328125l2.6875 0q0 1.15625 0.4375 1.671875q0.453125 0.515625 1.46875 0.515625q1.40625 0 1.40625 -1.484375z" fill-rule="nonzero"/><path fill="#ffc000" d="m172.6229 300.3271c-0.6720123 0 -3.3601074 -2.2806396 -3.3601074 -2.8507996c-2.688095 2.2806396 -2.688095 2.2806396 -2.688095 2.2806396c6.0482025 5.1314697 6.0482025 5.1314697 6.0482025 5.1314697c0 0.5701599 0.6720276 1.1403198 0.6720276 1.7104797c0 1.1403198 -2.0160675 2.2806396 -3.3601074 2.2806396c-0.6720276 0 -1.3440552 0 -2.0160828 -0.5701599c-18.144608 -15.394379 -18.144608 -15.394379 -18.144608 -15.394379c-2.688095 1.7104797 -6.0482025 3.42099 -9.408325 3.42099c-6.0482025 0 -10.080338 -3.42099 -10.080338 -8.55246c0 -7.4121094 8.736298 -15.394379 17.472595 -15.394379c6.0482025 0 10.080338 3.42099 10.080338 8.552429c0 3.42099 -1.3440399 6.2717896 -3.3601074 8.55246c9.40831 7.9822693 9.40831 7.9822693 9.40831 7.9822693c2.688095 -2.2806702 2.688095 -2.2806702 2.688095 -2.2806702c-0.6720276 -0.5701599 -3.3601074 -2.2806396 -3.3601074 -2.8507996c0 -0.5701599 2.6880798 -2.2806396 3.3601074 -2.2806396c0 0 0 0 0.6720276 0c0.6720123 0.5701599 8.06427 6.8419495 8.06427 7.4121094c0 0.5701599 -2.0160675 2.8507996 -2.688095 2.8507996zm-25.536865 -23.376648c-2.688095 0 -4.7041626 2.2806396 -4.7041626 4.5612793c0 0.5701599 0 1.1403503 0.6720276 1.7105103c-1.3440399 0 -2.0160675 -0.5701599 -2.688095 -0.5701599c-2.688095 0 -5.376175 2.2806396 -5.376175 4.5612793c0 2.2806702 2.6880798 4.56131 5.376175 4.56131c2.688095 0 5.37619 -2.2806396 5.37619 -4.56131c0 -0.5701599 0 -1.1403198 -0.6720276 -1.7104797c0.6720276 0 1.3440399 0.5701599 2.0160675 0.5701599c3.3601227 0 5.37619 -2.2806396 5.37619 -4.56131c0 -2.2806396 -2.0160675 -4.5612793 -5.37619 -4.5612793z" fill-rule="evenodd"/><path fill="#ff3f5f" d="m322.6473 284.07584c-25.067383 0 -25.067383 0 -25.067383 0c-0.56121826 0 -1.122406 0.5630188 -1.122406 1.1260681c0 0.5630188 0.56118774 1.1260681 1.122406 1.1260681c25.067383 0 25.067383 0 25.067383 0c0.56118774 0 1.122406 -0.5630493 1.122406 -1.1260681c-0.18707275 -0.5630493 -0.56121826 -1.1260681 -1.122406 -1.1260681zm0 0c0 0 0 0 0 0" fill-rule="evenodd"/><path fill="#ff3f5f" d="m328.28168 301.91684c-0.18728638 -0.19198608 -0.37454224 -0.57592773 -0.37454224 -0.7679138c-34.64633 0 -34.64633 0 -34.64633 0c0 -33.02014 0 -33.02014 0 -33.02014c42.13742 0 42.13742 0 42.13742 0c0 27.260834 0 27.260834 0 27.260834c0 0 0 0 0 0c0.5618286 -0.38397217 1.3109436 -0.57595825 2.0600586 -0.57595825c0.37454224 0 1.1236572 0 1.8727722 0.57595825c0.18725586 0 0.5618286 -0.19198608 0.749115 -0.19198608c1.1236572 0 2.060028 0.38394165 2.9964294 1.1518555c0 -28.220703 0 -28.220703 0 -28.220703c0 -2.1117554 -1.6854858 -3.839569 -3.7455444 -3.839569c-46.819366 0 -46.819366 0 -46.819366 0c-2.0600586 0 -3.7455444 1.7278137 -3.7455444 3.839569c0 33.02014 0 33.02014 0 33.02014c0 2.1117554 1.6854858 3.839569 3.7455444 3.839569c30.900787 0 30.900787 0 30.900787 0c0 -0.38397217 0 -0.7679138 0 -0.9598999c0.37454224 -1.1518555 1.3109436 -2.3037415 3.3709717 -2.3037415c0.37457275 0 0.93640137 0.19198608 1.49823 0.19198608zm0 0c0 0 0 0 0 0" fill-rule="evenodd"/><path fill="#ff3f5f" d="m304.8717 280.21503c0.1880188 0 0.37600708 -0.1923523 0.37600708 -0.38467407c0 -8.078308 0 -8.078308 0 -8.078308c0 -0.1923523 -0.18798828 -0.38467407 -0.37600708 -0.38467407c-7.3318176 0 -7.3318176 0 -7.3318176 0c-0.18798828 0 -0.37597656 0.19232178 -0.37597656 0.38467407c0 8.078308 0 8.078308 0 8.078308c0 0.19232178 0.18798828 0.38467407 0.37597656 0.38467407l7.3318176 0zm0 0c0 0 0 0 0 0" fill-rule="evenodd"/><path fill="#ff3f5f" d="m322.6473 288.82138c-25.067383 0 -25.067383 0 -25.067383 0c-0.56121826 0 -1.122406 0.38876343 -1.122406 1.1662903c0 0.5831299 0.56118774 1.1662903 1.122406 1.1662903c25.067383 0 25.067383 0 25.067383 0c0.56118774 0 1.122406 -0.5831604 1.122406 -1.1662903c-0.18707275 -0.77752686 -0.56121826 -1.1662903 -1.122406 -1.1662903zm0 0c0 0 0 0 0 0" fill-rule="evenodd"/><path fill="#ff3f5f" d="m322.6473 294.04956c-25.067383 0 -25.067383 0 -25.067383 0c-0.56121826 0 -1.122406 0.3802185 -1.122406 0.9505615c0 0.7604675 0.56118774 1.1407166 1.122406 1.1407166c25.067383 0 25.067383 0 25.067383 0c0.56118774 0 1.122406 -0.38024902 1.122406 -1.1407166c-0.18707275 -0.570343 -0.56121826 -0.9505615 -1.122406 -0.9505615zm0 0c0 0 0 0 0 0" fill-rule="evenodd"/><path fill="#ff3f5f" d="m345.29327 307.28293c-0.18667603 -4.0334473 -1.6799622 -6.3382874 -2.6132812 -8.258972c-1.3066406 -2.4969177 -3.7332764 -1.53656 -3.7332764 -1.53656c-1.8666077 -1.7286377 -3.3599243 0.38415527 -3.3599243 0.38415527c-2.0532837 -1.7286377 -3.1732788 0.7682495 -3.1732788 0.7682495c-0.18664551 0.19207764 -4.1065674 -6.3382874 -4.2932434 -6.5303345c-0.9333191 -1.9207153 -3.1732788 -0.96035767 -2.0532837 1.1524048c2.9866028 5.3779297 3.1732483 6.3382874 4.2932434 8.258972c0.37332153 0.76828 2.7999573 4.993805 1.6799622 5.1858826c-0.9333191 0.19207764 -2.0532837 -2.1127625 -3.9199219 -2.6889648c-2.7999573 -0.96035767 -3.1732788 0.96035767 -2.0532837 1.53656c0.18664551 0.19207764 1.8666077 0.76828 2.9866028 3.07312c0.18664551 0.5762024 1.8666382 0.96032715 2.4266052 1.1524048c3.5466003 2.30484 4.106598 1.7286377 5.4132385 1.7286377c1.4933167 0.19204712 1.8666382 0.96032715 1.8666382 0.96032715c6.9065247 -3.6493225 6.9065247 -3.6493225 6.9065247 -3.6493225c0 0.19207764 -0.18667603 -1.1524048 -0.37332153 -1.53656zm0 0c0 0 0 0 0 0" fill-rule="evenodd"/><path fill="#3bc7e2" d="m664.9957 304.4562c-4.9885254 -5.358368 -4.9885254 -5.358368 -4.9885254 -5.358368c1.496582 -3.0619202 0.99768066 -7.14447 -1.7459717 -9.951233c-3.2425537 -3.3170776 -8.729919 -3.3170776 -12.221924 0c-3.2424927 3.572235 -3.2424927 9.1857605 0 12.757996c2.7437134 2.5516052 6.4851074 3.0619202 9.727661 1.7861023c4.9885254 5.1032104 4.9885254 5.1032104 4.9885254 5.1032104l4.2402344 -4.3377075zm-8.729919 -4.848053c-2.244812 2.2964478 -5.7368164 2.2964478 -7.9816284 0c-2.244873 -2.2964478 -2.244873 -5.868683 0 -8.1651c2.244812 -2.2964478 5.7368164 -2.2964478 7.9816284 0c1.9954224 2.2964172 1.9954224 5.8686523 0 8.1651zm0 0c0 0 0 0 0 0" fill-rule="evenodd"/><path fill="#3bc7e2" d="m652.287 306.0031c-2.4952393 0 -4.740906 -0.7661438 -6.487549 -2.2984924c-18.963562 0 -18.963562 0 -18.963562 0c0 -3.3200989 0 -3.3200989 0 -3.3200989c16.468384 0 16.468384 0 16.468384 0c-0.7485962 -1.0215759 -0.9981079 -2.298523 -1.2476196 -3.3200684c-15.220764 0 -15.220764 0 -15.220764 0c0 -3.3200989 0 -3.3200989 0 -3.3200989c15.220764 0 15.220764 0 15.220764 0c0.24951172 -1.276947 0.74853516 -2.298523 1.2476196 -3.57547c-16.468384 0 -16.468384 0 -16.468384 0c0 -3.0646973 0 -3.0646973 0 -3.0646973c19.213074 0 19.213074 0 19.213074 0c1.7466431 -1.276947 3.9923706 -2.0431213 6.238037 -2.0431213c1.9961548 0 3.7427979 0.5107727 5.239929 1.5323486c0 -21.708252 0 -21.708252 0 -21.708252c-23.704468 0 -23.704468 0 -23.704468 0c0 14.30191 0 14.30191 0 14.30191c-13.224609 0 -13.224609 0 -13.224609 0c0 32.690063 0 32.690063 0 32.690063c36.929077 0 36.929077 0 36.929077 0c0 -4.086273 0 -4.086273 0 -4.086273c-1.9961548 -2.298523 -1.9961548 -2.298523 -1.9961548 -2.298523c-0.9981079 0.2554016 -2.2457275 0.5107727 -3.2437744 0.5107727zm0 0c0 0 0 0 0 0" fill-rule="evenodd"/><path fill="#3bc7e2" d="m631.07495 266.3736l-9.2323 9.674866l9.2323 0l0 -9.674866zm0 0l0 0z" fill-rule="evenodd"/><path fill="#3bc7e2" d="m631.07495 266.3736l-9.2323 9.674866l9.2323 0l0 -9.674866m0 0l0 0" fill-rule="evenodd"/><path fill="#2ac2ac" d="m499.38248 305.9536c-12.210297 0 -12.210297 0 -12.210297 0c0 3.7642517 -3.0525818 6.7756653 -6.8683167 6.7756653c-3.8157043 0 -6.868286 -3.0114136 -6.868286 -6.7756653c-12.210297 0 -12.210297 0 -12.210297 0c-2.2894592 0 -3.8157349 -1.5057068 -3.8157349 -3.7642822c3.8157349 -3.0114136 8.394592 -9.034241 8.394592 -22.585602c0 -5.269989 4.5788574 -10.5399475 12.210297 -11.292816c-0.76312256 -0.75283813 -0.76312256 -0.75283813 -0.76312256 -1.5057068c0 -1.5057068 1.5262756 -2.258545 3.0525513 -2.258545c1.5263062 0 2.2894592 0.75283813 2.2894592 2.258545c0 0.75286865 0 0.75286865 0 1.5057068c6.868286 0.75286865 11.447144 6.022827 11.447144 11.292816c0 13.551361 4.578888 19.574188 8.394592 22.585602c0 2.2585754 -1.5262756 3.7642822 -3.0525818 3.7642822zm-19.078613 3.7642517c-2.2894287 0 -3.8157043 -2.258545 -3.8157043 -3.7642517c0 -0.75286865 -0.7631531 -0.75286865 -0.7631531 -0.75286865c0 0 -0.7631531 0 -0.7631531 0.75286865c0 2.258545 2.2894592 4.5171204 5.3420105 4.5171204c0 0 0 0 0 -0.75286865c0 0 0 0 0 0z" fill-rule="evenodd"/><path fill="#7f739a" d="m828.9126 282.9189c0 4.9103394 -6.168213 11.223633 -14.392456 11.223633c-1.3706665 1.4029541 -2.741394 2.8059387 -2.741394 2.8059387c-1.3707275 1.4029541 -2.0560913 2.8059082 -2.0560913 4.9103394c0 1.4029541 0.68536377 3.5073853 3.4268188 3.5073853c2.741394 0 5.482788 1.4029541 5.482788 4.2088623c0 2.1044312 0 2.1044312 0 2.1044312c0 0.70147705 -0.68530273 0.70147705 -0.68530273 0.70147705c-23.302063 0 -23.302063 0 -23.302063 0c-0.68536377 0 -0.68536377 0 -0.68536377 -0.70147705c0 -2.1044312 0 -2.1044312 0 -2.1044312c0 -2.8059082 2.741394 -4.2088623 5.482849 -4.2088623c2.0560303 0 3.4267578 -2.1044312 3.4267578 -3.5073853c0 -2.1044312 -0.68536377 -3.5073853 -2.0560913 -4.9103394c-0.68530273 0 -1.3706665 -1.4029846 -2.741394 -2.8059387c-8.224243 0 -15.07782 -6.3132935 -15.07782 -11.223633c0 -3.5073853 0 -3.5073853 0 -3.5073853c0 -2.1044312 1.3707275 -2.8059082 2.741455 -2.8059082c8.224243 0 8.224243 0 8.224243 0c0 -2.8059082 0 -2.8059082 0 -2.8059082c0 -2.8059387 2.0560303 -4.91037 4.1121216 -4.91037c15.763123 0 15.763123 0 15.763123 0c2.741455 0 4.7974854 2.1044312 4.7974854 4.91037c0 2.8059082 0 2.8059082 0 2.8059082c7.5389404 0 7.5389404 0 7.5389404 0c2.0560303 0 2.741394 0.70147705 2.741394 2.8059082l0 3.5073853zm-34.953064 -2.8059082c-6.8535767 0 -6.8535767 0 -6.8535767 0c0 2.8059082 0 2.8059082 0 2.8059082c0 2.8059082 3.4268188 6.3132935 8.909607 7.7162476c-1.3706665 -2.8059082 -2.0560303 -6.3132935 -2.0560303 -10.522156zm31.526306 0c-6.8535767 0 -6.8535767 0 -6.8535767 0c0 4.2088623 -0.68530273 7.7162476 -2.0560303 10.522156c5.482849 -1.4029541 8.909607 -4.9103394 8.909607 -7.7162476l0 -2.8059082z" fill-rule="evenodd"/><path fill="#ffffff" d="m10.338583 507.2979l0 0c0 -11.880646 9.631166 -21.51181 21.51181 -21.51181l0 0c5.705286 0 11.176901 2.2664185 15.211149 6.300659c4.0342445 4.0342407 6.300663 9.505859 6.300663 15.211151l0 0c0 11.880615 -9.631168 21.51178 -21.511812 21.51178l0 0c-11.880644 0 -21.51181 -9.631165 -21.51181 -21.51178z" fill-rule="evenodd"/><path fill="#000000" fill-opacity="0.0" d="m970.8703 505.03085l27.968506 0l0 23.77951l-27.968506 0z" fill-rule="evenodd"/></g></svg>