<svg version="1.1" viewBox="0.0 0.0 960.0 540.0" fill="none" stroke="none" stroke-linecap="square" stroke-miterlimit="10" xmlns:xlink="http://www.w3.org/1999/xlink" xmlns="http://www.w3.org/2000/svg"><clipPath id="g63a85e9c5c_0_4690.0"><path d="m0 0l960.0 0l0 540.0l-960.0 0l0 -540.0z" clip-rule="nonzero"/></clipPath><g clip-path="url(#g63a85e9c5c_0_4690.0)"><path fill="#ffffff" d="m0 0l960.0 0l0 540.0l-960.0 0z" fill-rule="evenodd"/><path fill="#5b5b5b" d="m17.496273 507.77167l0 0c0 -8.349518 6.768608 -15.118134 15.118111 -15.118134l0 0c4.009571 0 7.8549232 1.592804 10.690117 4.428009c2.8351974 2.8351746 4.427994 6.680542 4.427994 10.6901245l0 0c0 8.349487 -6.768608 15.118103 -15.118111 15.118103l0 0c-8.349503 0 -15.118111 -6.7686157 -15.118111 -15.118103z" fill-rule="evenodd"/><path fill="#000000" fill-opacity="0.0" d="m184.0 40.666668l592.0 0l0 37.10236l-592.0 0z" fill-rule="evenodd"/><path fill="#5b5b5b" d="m443.6949 53.0366l-5.796875 0l0 15.78125l-3.90625 0l0 -15.78125l-5.734375 0l0 -3.171875l15.4375 0l0 3.171875zm5.959717 15.78125l-3.78125 0l0 -14.078125l3.78125 0l0 14.078125zm-4.0 -17.734375q0 -0.84375 0.5625 -1.390625q0.5625 -0.546875 1.546875 -0.546875q0.953125 0 1.53125 0.546875q0.578125 0.546875 0.578125 1.390625q0 0.859375 -0.578125 1.40625q-0.578125 0.546875 -1.53125 0.546875q-0.953125 0 -1.53125 -0.546875q-0.578125 -0.546875 -0.578125 -1.40625zm10.614441 3.65625l0.125 1.5625q1.5 -1.828125 4.046875 -1.828125q2.71875 0 3.734375 2.140625q1.484375 -2.140625 4.234375 -2.140625q2.28125 0 3.390625 1.34375q1.125 1.328125 1.125 4.0l0 9.0l-3.765625 0l0 -8.984375q0 -1.1875 -0.46875 -1.734375q-0.46875 -0.5625 -1.65625 -0.5625q-1.6875 0 -2.34375 1.609375l0.015625 9.671875l-3.765625 0l0 -8.96875q0 -1.21875 -0.484375 -1.765625q-0.46875 -0.546875 -1.640625 -0.546875q-1.59375 0 -2.3125 1.328125l0 9.953125l-3.765625 0l0 -14.078125l3.53125 0zm26.03003 14.34375q-3.09375 0 -5.046875 -1.90625q-1.9375 -1.90625 -1.9375 -5.0625l0 -0.359375q0 -2.125 0.8125 -3.796875q0.828125 -1.671875 2.328125 -2.578125q1.5 -0.90625 3.4375 -0.90625q2.890625 0 4.546875 1.828125q1.65625 1.8125 1.65625 5.15625l0 1.546875l-8.96875 0q0.1875 1.375 1.09375 2.21875q0.921875 0.828125 2.328125 0.828125q2.171875 0 3.40625 -1.578125l1.84375 2.0625q-0.84375 1.203125 -2.296875 1.875q-1.4375 0.671875 -3.203125 0.671875zm-0.421875 -11.5625q-1.125 0 -1.828125 0.765625q-0.6875 0.75 -0.875 2.15625l5.21875 0l0 -0.3125q-0.015625 -1.25 -0.671875 -1.921875q-0.65625 -0.6875 -1.84375 -0.6875zm12.330322 11.296875l-3.78125 0l0 -20.0l3.78125 0l0 20.0zm7.0675354 0l-3.78125 0l0 -14.078125l3.78125 0l0 14.078125zm-4.0 -17.734375q0 -0.84375 0.5625 -1.390625q0.5625 -0.546875 1.546875 -0.546875q0.953125 0 1.53125 0.546875q0.578125 0.546875 0.578125 1.390625q0 0.859375 -0.578125 1.40625q-0.578125 0.546875 -1.53125 0.546875q-0.953125 0 -1.53125 -0.546875q-0.578125 -0.546875 -0.578125 -1.40625zm10.55191 3.65625l0.125 1.625q1.5 -1.890625 4.046875 -1.890625q2.234375 0 3.328125 1.3125q1.09375 1.3125 1.109375 3.9375l0 9.09375l-3.75 0l0 -9.0q0 -1.203125 -0.53125 -1.734375q-0.515625 -0.546875 -1.71875 -0.546875q-1.59375 0 -2.390625 1.34375l0 9.9375l-3.765625 0l0 -14.078125l3.546875 0zm17.944702 14.34375q-3.09375 0 -5.046875 -1.90625q-1.9375 -1.90625 -1.9375 -5.0625l0 -0.359375q0 -2.125 0.8125 -3.796875q0.828125 -1.671875 2.328125 -2.578125q1.5 -0.90625 3.4375 -0.90625q2.890625 0 4.546875 1.828125q1.65625 1.8125 1.65625 5.15625l0 1.546875l-8.96875 0q0.1875 1.375 1.09375 2.21875q0.921875 0.828125 2.328125 0.828125q2.171875 0 3.40625 -1.578125l1.84375 2.0625q-0.84375 1.203125 -2.296875 1.875q-1.4375 0.671875 -3.203125 0.671875zm-0.421875 -11.5625q-1.125 0 -1.828125 0.765625q-0.6875 0.75 -0.875 2.15625l5.21875 0l0 -0.3125q-0.015625 -1.25 -0.671875 -1.921875q-0.65625 -0.6875 -1.84375 -0.6875z" fill-rule="nonzero"/><path fill="#ffc000" d="m97.192444 297.19946l0 0c0 -31.191803 16.640648 -60.01425 43.653564 -75.61015c27.012924 -15.5959015 60.294205 -15.595886 87.30711 3.0517578E-5c27.012894 15.595932 43.65352 44.41838 43.65349 75.610214l-26.700241 -3.0517578E-5c1.5258789E-5 -21.65274 -11.551575 -41.660706 -30.30339 -52.48709c-18.751816 -10.8263855 -41.855026 -10.8263855 -60.606857 -3.0517578E-5c-18.751816 10.82637 -30.303429 30.83432 -30.303429 52.48706z" fill-rule="evenodd"/><path fill="#ff3f5f" d="m419.48083 296.9708l0 0c0 31.191833 -16.640625 60.014282 -43.653564 75.61017c-27.012909 15.595917 -60.29419 15.595886 -87.3071 -3.0517578E-5c-27.012909 -15.595917 -43.65352 -44.418396 -43.653503 -75.6102l26.700256 0c-3.0517578E-5 21.652771 11.551575 41.660736 30.303375 52.48712c18.751831 10.826355 41.85504 10.8263855 60.606873 0c18.751831 -10.826355 30.303436 -30.83432 30.303436 -52.48706z" fill-rule="evenodd"/><path fill="#2ac2ac" d="m392.69763 297.19946l0 0c0 -31.191803 16.640656 -60.01425 43.653564 -75.61015c27.012909 -15.5959015 60.29419 -15.595886 87.30713 3.0517578E-5c27.012878 15.595932 43.653503 44.41838 43.653503 75.610214l-26.700256 -3.0517578E-5c0 -21.65274 -11.551575 -41.660706 -30.303406 -52.48709c-18.751831 -10.8263855 -41.85501 -10.8263855 -60.606842 -3.0517578E-5c-18.751831 10.82637 -30.303436 30.83432 -30.303436 52.48706z" fill-rule="evenodd"/><path fill="#3bc7e2" d="m714.98615 296.9708l0 0c0 31.191833 -16.640625 60.014282 -43.653564 75.61017c-27.01294 15.595917 -60.29419 15.595886 -87.30713 -3.0517578E-5c-27.012878 -15.595917 -43.653503 -44.418396 -43.653503 -75.6102l26.700256 0c0 21.652771 11.551575 41.660736 30.303406 52.48712c18.751831 10.826355 41.85504 10.8263855 60.606873 0c18.75177 -10.826355 30.303406 -30.83432 30.303406 -52.48706z" fill-rule="evenodd"/><path fill="#7f739a" d="m688.1952 297.19946l0 0c0 -31.191803 16.640686 -60.01425 43.653564 -75.61015c27.01294 -15.5959015 60.29425 -15.595886 87.30713 3.0517578E-5c27.012878 15.595932 43.653503 44.41838 43.653503 75.610214l-26.700256 -3.0517578E-5c0 -21.65274 -11.551575 -41.660706 -30.303406 -52.48709c-18.75177 -10.8263855 -41.85498 -10.8263855 -60.60681 -3.0517578E-5c-18.751831 10.82637 -30.303467 30.83432 -30.303467 52.48706z" fill-rule="evenodd"/><path fill="#000000" fill-opacity="0.0" d="m134.1198 298.96796c0 -13.4574585 5.3460083 -26.36383 14.861832 -35.87967c9.515945 -9.515808 22.42221 -14.861832 35.879654 -14.861832c13.4574585 0 26.36383 5.3460236 35.87967 14.861832c9.515823 9.515961 14.861832 22.42221 14.861832 35.87967c0 13.4574585 -5.3460083 26.36383 -14.861832 35.87967c-9.515945 9.515808 -22.42221 14.861816 -35.87967 14.861816c-13.457443 0 -26.36383 -5.3460083 -35.879654 -14.861816c-9.515823 -9.515961 -14.861832 -22.42221 -14.861832 -35.87967z" fill-rule="evenodd"/><path stroke="#ffc000" stroke-width="2.0" stroke-linejoin="round" stroke-linecap="butt" stroke-dasharray="2.0,6.0" d="m134.1198 298.96796c0 -13.4574585 5.3460083 -26.36383 14.861832 -35.87967c9.515945 -9.515808 22.42221 -14.861832 35.879654 -14.861832c13.4574585 0 26.36383 5.3460236 35.87967 14.861832c9.515823 9.515961 14.861832 22.42221 14.861832 35.87967c0 13.4574585 -5.3460083 26.36383 -14.861832 35.87967c-9.515945 9.515808 -22.42221 14.861816 -35.87967 14.861816c-13.457443 0 -26.36383 -5.3460083 -35.879654 -14.861816c-9.515823 -9.515961 -14.861832 -22.42221 -14.861832 -35.87967z" fill-rule="evenodd"/><path fill="#000000" fill-opacity="0.0" d="m282.15286 298.96796c0 -13.4574585 5.3460083 -26.36383 14.861847 -35.87967c9.51593 -9.515808 22.42221 -14.861832 35.87967 -14.861832c13.457428 0 26.36383 5.3460236 35.87964 14.861832c9.515839 9.515961 14.861847 22.42221 14.861847 35.87967c0 13.4574585 -5.3460083 26.36383 -14.861847 35.87967c-9.51593 9.515808 -22.42221 14.861816 -35.87964 14.861816c-13.4574585 0 -26.363861 -5.3460083 -35.87967 -14.861816c-9.515839 -9.515961 -14.861847 -22.42221 -14.861847 -35.87967z" fill-rule="evenodd"/><path stroke="#ff3f5f" stroke-width="2.0" stroke-linejoin="round" stroke-linecap="butt" stroke-dasharray="2.0,6.0" d="m282.15286 298.96796c0 -13.4574585 5.3460083 -26.36383 14.861847 -35.87967c9.51593 -9.515808 22.42221 -14.861832 35.87967 -14.861832c13.457428 0 26.36383 5.3460236 35.87964 14.861832c9.515839 9.515961 14.861847 22.42221 14.861847 35.87967c0 13.4574585 -5.3460083 26.36383 -14.861847 35.87967c-9.51593 9.515808 -22.42221 14.861816 -35.87964 14.861816c-13.4574585 0 -26.363861 -5.3460083 -35.87967 -14.861816c-9.515839 -9.515961 -14.861847 -22.42221 -14.861847 -35.87967z" fill-rule="evenodd"/><path fill="#000000" fill-opacity="0.0" d="m430.18594 298.96796c0 -13.4574585 5.3460083 -26.36383 14.861847 -35.87967c9.51593 -9.515808 22.42221 -14.861832 35.87964 -14.861832c13.4574585 0 26.36383 5.3460236 35.87964 14.861832c9.515869 9.515961 14.861877 22.42221 14.861877 35.87967c0 13.4574585 -5.3460083 26.36383 -14.861877 35.87967c-9.5159 9.515808 -22.42218 14.861816 -35.87964 14.861816c-13.457428 0 -26.36383 -5.3460083 -35.87964 -14.861816c-9.515839 -9.515961 -14.861847 -22.42221 -14.861847 -35.87967z" fill-rule="evenodd"/><path stroke="#2ac2ac" stroke-width="2.0" stroke-linejoin="round" stroke-linecap="butt" stroke-dasharray="2.0,6.0" d="m430.18594 298.96796c0 -13.4574585 5.3460083 -26.36383 14.861847 -35.87967c9.51593 -9.515808 22.42221 -14.861832 35.87964 -14.861832c13.4574585 0 26.36383 5.3460236 35.87964 14.861832c9.515869 9.515961 14.861877 22.42221 14.861877 35.87967c0 13.4574585 -5.3460083 26.36383 -14.861877 35.87967c-9.5159 9.515808 -22.42218 14.861816 -35.87964 14.861816c-13.457428 0 -26.36383 -5.3460083 -35.87964 -14.861816c-9.515839 -9.515961 -14.861847 -22.42221 -14.861847 -35.87967z" fill-rule="evenodd"/><path fill="#000000" fill-opacity="0.0" d="m578.219 298.96796c0 -13.4574585 5.3460083 -26.36383 14.861816 -35.87967c9.515991 -9.515808 22.422241 -14.861832 35.8797 -14.861832c13.4574585 0 26.36383 5.3460236 35.87964 14.861832c9.515808 9.515961 14.861816 22.42221 14.861816 35.87967c0 13.4574585 -5.3460083 26.36383 -14.861816 35.87967c-9.51593 9.515808 -22.42218 14.861816 -35.87964 14.861816c-13.4574585 0 -26.36383 -5.3460083 -35.8797 -14.861816c-9.515808 -9.515961 -14.861816 -22.42221 -14.861816 -35.87967z" fill-rule="evenodd"/><path stroke="#3bc7e2" stroke-width="2.0" stroke-linejoin="round" stroke-linecap="butt" stroke-dasharray="2.0,6.0" d="m578.219 298.96796c0 -13.4574585 5.3460083 -26.36383 14.861816 -35.87967c9.515991 -9.515808 22.422241 -14.861832 35.8797 -14.861832c13.4574585 0 26.36383 5.3460236 35.87964 14.861832c9.515808 9.515961 14.861816 22.42221 14.861816 35.87967c0 13.4574585 -5.3460083 26.36383 -14.861816 35.87967c-9.51593 9.515808 -22.42218 14.861816 -35.87964 14.861816c-13.4574585 0 -26.36383 -5.3460083 -35.8797 -14.861816c-9.515808 -9.515961 -14.861816 -22.42221 -14.861816 -35.87967z" fill-rule="evenodd"/><path fill="#000000" fill-opacity="0.0" d="m726.2522 298.96796c0 -13.4574585 5.3460083 -26.36383 14.861877 -35.87967c9.51593 -9.515808 22.42218 -14.861832 35.87964 -14.861832c13.4574585 0 26.36383 5.3460236 35.87964 14.861832c9.515869 9.515961 14.861877 22.42221 14.861877 35.87967c0 13.4574585 -5.3460083 26.36383 -14.861877 35.87967c-9.51593 9.515808 -22.42218 14.861816 -35.87964 14.861816c-13.4574585 0 -26.36383 -5.3460083 -35.87964 -14.861816c-9.515869 -9.515961 -14.861877 -22.42221 -14.861877 -35.87967z" fill-rule="evenodd"/><path stroke="#7f739a" stroke-width="2.0" stroke-linejoin="round" stroke-linecap="butt" stroke-dasharray="2.0,6.0" d="m726.2522 298.96796c0 -13.4574585 5.3460083 -26.36383 14.861877 -35.87967c9.51593 -9.515808 22.42218 -14.861832 35.87964 -14.861832c13.4574585 0 26.36383 5.3460236 35.87964 14.861832c9.515869 9.515961 14.861877 22.42221 14.861877 35.87967c0 13.4574585 -5.3460083 26.36383 -14.861877 35.87967c-9.51593 9.515808 -22.42218 14.861816 -35.87964 14.861816c-13.4574585 0 -26.36383 -5.3460083 -35.87964 -14.861816c-9.515869 -9.515961 -14.861877 -22.42221 -14.861877 -35.87967z" fill-rule="evenodd"/><path fill="#000000" fill-opacity="0.0" d="m110.64565 364.28873l134.2362 0l0 32.31494l-134.2362 0z" fill-rule="evenodd"/><path fill="#ffc000" d="m124.99631 390.0462l-3.6875 0l0 -14.46875l-3.609375 1.390625l0 -3.078125l6.90625 -2.828125l0.390625 0l0 18.984375zm5.749939 -9.3125l0.9375 -9.640625l9.1875 0l0 3.15625l-6.15625 0l-0.34375 4.0625q1.0625 -0.71875 2.203125 -0.71875q2.34375 0 3.609375 1.671875q1.265625 1.65625 1.265625 4.703125q0 2.84375 -1.515625 4.59375q-1.5 1.75 -4.03125 1.75q-1.5 0 -2.78125 -0.703125q-1.265625 -0.71875 -2.0 -1.984375q-0.734375 -1.265625 -0.75 -2.859375l3.640625 0q0.09375 1.1875 0.59375 1.84375q0.5 0.640625 1.265625 0.640625q0.921875 0 1.40625 -0.875q0.5 -0.890625 0.5 -2.625q0 -1.640625 -0.59375 -2.46875q-0.59375 -0.84375 -1.65625 -0.84375q-1.046875 0 -1.609375 0.71875l-0.234375 0.328125l-2.9375 -0.75zm17.499939 -8.234375l0 3.46875l1.890625 0l0 2.765625l-1.890625 0l0 6.984375q0 0.84375 0.21875 1.15625q0.234375 0.3125 0.890625 0.3125q0.53125 0 0.859375 -0.09375l-0.015625 2.859375q-0.9375 0.359375 -2.03125 0.359375q-3.5625 0 -3.609375 -4.09375l0 -7.484375l-1.625 0l0 -2.765625l1.625 0l0 -3.46875l3.6875 0zm7.499405 4.703125q1.1875 -1.5 2.9375 -1.5q1.921875 0 2.921875 1.359375q1.015625 1.34375 1.015625 4.03125l0 8.953125l-3.6875 0l0 -8.921875q0 -1.234375 -0.390625 -1.78125q-0.375 -0.5625 -1.234375 -0.5625q-1.0 0 -1.5625 0.9375l0 10.328125l-3.6875 0l0 -20.0l3.6875 0l0 7.15625zm29.18518 5.078125q0 3.8125 -1.796875 5.921875q-1.796875 2.109375 -5.0 2.109375q-3.1875 0 -5.015625 -2.09375q-1.828125 -2.09375 -1.84375 -5.84375l0 -3.25q0 -3.90625 1.796875 -6.09375q1.8125 -2.203125 5.03125 -2.203125q3.15625 0 4.984375 2.15625q1.828125 2.15625 1.84375 6.046875l0 3.25zm-3.828125 -3.1875q0 -2.5625 -0.734375 -3.8125q-0.734375 -1.25 -2.265625 -1.25q-1.515625 0 -2.25 1.21875q-0.734375 1.203125 -0.75 3.65625l0 3.375q0 2.484375 0.734375 3.671875q0.75 1.171875 2.296875 1.171875q1.484375 0 2.21875 -1.15625q0.734375 -1.15625 0.75 -3.578125l0 -3.296875zm11.493713 8.15625q1.59375 0 1.625 -2.078125l3.453125 0q-0.015625 2.296875 -1.421875 3.71875q-1.390625 1.421875 -3.578125 1.421875q-2.734375 0 -4.171875 -1.6875q-1.421875 -1.703125 -1.453125 -5.0l0 -1.109375q0 -3.328125 1.40625 -5.0625q1.421875 -1.75 4.1875 -1.75q2.328125 0 3.671875 1.4375q1.34375 1.4375 1.359375 4.078125l-3.453125 0q-0.015625 -1.1875 -0.40625 -1.8125q-0.375 -0.640625 -1.234375 -0.640625q-0.96875 0 -1.390625 0.6875q-0.40625 0.671875 -0.4375 2.640625l0 1.4375q0 1.71875 0.171875 2.40625q0.171875 0.671875 0.5625 1.0q0.390625 0.3125 1.109375 0.3125zm11.448334 -14.75l0 3.46875l1.890625 0l0 2.765625l-1.890625 0l0 6.984375q0 0.84375 0.21875 1.15625q0.234375 0.3125 0.890625 0.3125q0.53125 0 0.859375 -0.09375l-0.015625 2.859375q-0.9375 0.359375 -2.03125 0.359375q-3.5625 0 -3.609375 -4.09375l0 -7.484375l-1.625 0l0 -2.765625l1.625 0l0 -3.46875l3.6875 0zm5.436905 4.40625l-1.6875 -1.015625q0.921875 -1.84375 0.953125 -3.578125l0 -2.265625l2.890625 0l0 2.0625q0 1.1875 -0.609375 2.5625q-0.609375 1.375 -1.546875 2.234375zm12.768494 13.140625l-3.6875 0l0 -14.46875l-3.609375 1.390625l0 -3.078125l6.90625 -2.828125l0.390625 0l0 18.984375zm12.515564 -7.328125q-1.171875 1.203125 -2.5625 1.203125q-2.15625 0 -3.40625 -1.734375q-1.234375 -1.75 -1.234375 -4.65625q0 -1.859375 0.703125 -3.421875q0.703125 -1.5625 1.953125 -2.421875q1.265625 -0.859375 2.8125 -0.859375q1.59375 0 2.84375 0.953125q1.25 0.953125 1.9375 2.734375q0.703125 1.78125 0.703125 4.03125l0 1.34375q0 4.84375 -2.140625 7.578125q-2.125 2.71875 -6.03125 2.765625l-0.375 0l0 -3.171875l0.25 0q2.15625 -0.015625 3.234375 -1.109375q1.09375 -1.109375 1.3125 -3.234375zm-1.625 -1.6875q1.078125 0 1.6875 -1.46875l0 -1.6875q0 -1.859375 -0.515625 -2.921875q-0.5 -1.0625 -1.3125 -1.0625q-0.796875 0 -1.28125 1.046875q-0.484375 1.046875 -0.484375 2.5625q0 1.640625 0.5 2.59375q0.515625 0.9375 1.40625 0.9375z" fill-rule="nonzero"/><path fill="#000000" fill-opacity="0.0" d="m270.0499 210.44882l134.2362 0l0 32.314957l-134.2362 0z" fill-rule="evenodd"/><path fill="#ff3f5f" d="m287.46304 236.2063l-11.171875 0l0 -2.609375l5.125 -6.515625q0.984375 -1.359375 1.4375 -2.375q0.46875 -1.015625 0.46875 -1.953125q0 -1.265625 -0.4375 -1.984375q-0.4375 -0.71875 -1.25 -0.71875q-0.90625 0 -1.4375 0.84375q-0.515625 0.828125 -0.515625 2.328125l-3.703125 0q0 -1.734375 0.71875 -3.171875q0.734375 -1.453125 2.03125 -2.25q1.3125 -0.8125 2.96875 -0.8125q2.53125 0 3.921875 1.40625q1.40625 1.40625 1.40625 3.984375q0 1.59375 -0.78125 3.25q-0.765625 1.640625 -2.796875 4.046875l-2.421875 3.46875l6.4375 0l0 3.0625zm13.328064 -7.828125q0 3.921875 -1.4375 6.015625q-1.421875 2.078125 -4.0625 2.078125q-2.609375 0 -4.046875 -2.015625q-1.421875 -2.03125 -1.46875 -5.8125l0 -3.578125q0 -3.921875 1.421875 -6.0q1.421875 -2.078125 4.078125 -2.078125q2.65625 0 4.0625 2.0625q1.421875 2.0625 1.453125 5.875l0 3.453125zm-3.703125 -3.84375q0 -2.234375 -0.4375 -3.359375q-0.4375 -1.125 -1.375 -1.125q-1.765625 0 -1.828125 4.109375l0 4.71875q0 2.296875 0.453125 3.421875q0.453125 1.109375 1.390625 1.109375q0.90625 0 1.34375 -1.046875q0.4375 -1.046875 0.453125 -3.203125l0 -4.625zm10.562439 -5.875l0 3.46875l1.890625 0l0 2.765625l-1.890625 0l0 6.984375q0 0.84375 0.21875 1.15625q0.234375 0.3125 0.890625 0.3125q0.53125 0 0.859375 -0.09375l-0.015625 2.859375q-0.9375 0.359375 -2.03125 0.359375q-3.5625 0 -3.609375 -4.09375l0 -7.484375l-1.625 0l0 -2.765625l1.625 0l0 -3.46875l3.6875 0zm7.4993896 4.703125q1.1875 -1.5 2.9375 -1.5q1.921875 0 2.921875 1.359375q1.015625 1.34375 1.015625 4.03125l0 8.953125l-3.6875 0l0 -8.921875q0 -1.234375 -0.390625 -1.78125q-0.375 -0.5625 -1.234375 -0.5625q-1.0 0 -1.5625 0.9375l0 10.328125l-3.6875 0l0 -20.0l3.6875 0l0 7.15625zm29.18518 5.078125q0 3.8125 -1.796875 5.921875q-1.796875 2.109375 -5.0 2.109375q-3.1875 0 -5.015625 -2.09375q-1.828125 -2.09375 -1.84375 -5.84375l0 -3.25q0 -3.90625 1.796875 -6.09375q1.8125 -2.203125 5.03125 -2.203125q3.15625 0 4.984375 2.15625q1.828125 2.15625 1.84375 6.046875l0 3.25zm-3.828125 -3.1875q0 -2.5625 -0.734375 -3.8125q-0.734375 -1.25 -2.265625 -1.25q-1.515625 0 -2.25 1.21875q-0.734375 1.203125 -0.75 3.65625l0 3.375q0 2.484375 0.734375 3.671875q0.75 1.171875 2.296875 1.171875q1.484375 0 2.21875 -1.15625q0.734375 -1.15625 0.75 -3.578125l0 -3.296875zm11.493713 8.15625q1.59375 0 1.625 -2.078125l3.453125 0q-0.015625 2.296875 -1.421875 3.71875q-1.390625 1.421875 -3.578125 1.421875q-2.734375 0 -4.171875 -1.6875q-1.421875 -1.703125 -1.453125 -5.0l0 -1.109375q0 -3.328125 1.40625 -5.0625q1.421875 -1.75 4.1875 -1.75q2.328125 0 3.671875 1.4375q1.34375 1.4375 1.359375 4.078125l-3.453125 0q-0.015625 -1.1875 -0.40625 -1.8125q-0.375 -0.640625 -1.234375 -0.640625q-0.96875 0 -1.390625 0.6875q-0.40625 0.671875 -0.4375 2.640625l0 1.4375q0 1.71875 0.171875 2.40625q0.171875 0.671875 0.5625 1.0q0.390625 0.3125 1.109375 0.3125zm11.448334 -14.75l0 3.46875l1.890625 0l0 2.765625l-1.890625 0l0 6.984375q0 0.84375 0.21875 1.15625q0.234375 0.3125 0.890625 0.3125q0.53125 0 0.859375 -0.09375l-0.015625 2.859375q-0.9375 0.359375 -2.03125 0.359375q-3.5625 0 -3.609375 -4.09375l0 -7.484375l-1.625 0l0 -2.765625l1.625 0l0 -3.46875l3.6875 0zm5.43692 4.40625l-1.6875 -1.015625q0.921875 -1.84375 0.953125 -3.578125l0 -2.265625l2.890625 0l0 2.0625q0 1.1875 -0.609375 2.5625q-0.609375 1.375 -1.546875 2.234375zm12.768494 13.140625l-3.6875 0l0 -14.46875l-3.609375 1.390625l0 -3.078125l6.90625 -2.828125l0.390625 0l0 18.984375zm12.515564 -7.328125q-1.171875 1.203125 -2.5625 1.203125q-2.15625 0 -3.40625 -1.734375q-1.234375 -1.75 -1.234375 -4.65625q0 -1.859375 0.703125 -3.421875q0.703125 -1.5625 1.953125 -2.421875q1.265625 -0.859375 2.8125 -0.859375q1.59375 0 2.84375 0.953125q1.25 0.953125 1.9375 2.734375q0.703125 1.78125 0.703125 4.03125l0 1.34375q0 4.84375 -2.140625 7.578125q-2.125 2.71875 -6.03125 2.765625l-0.375 0l0 -3.171875l0.25 0q2.15625 -0.015625 3.234375 -1.109375q1.09375 -1.109375 1.3125 -3.234375zm-1.625 -1.6875q1.078125 0 1.6875 -1.46875l0 -1.6875q0 -1.859375 -0.515625 -2.921875q-0.5 -1.0625 -1.3125 -1.0625q-0.796875 0 -1.28125 1.046875q-0.484375 1.046875 -0.484375 2.5625q0 1.640625 0.5 2.59375q0.515625 0.9375 1.40625 0.9375z" fill-rule="nonzero"/><path fill="#000000" fill-opacity="0.0" d="m419.48035 364.28873l147.81104 0l0 32.31494l-147.81104 0z" fill-rule="evenodd"/><path fill="#2ac2ac" d="m439.0761 390.0462l-3.6875 0l0 -14.46875l-3.609375 1.390625l0 -3.078125l6.90625 -2.828125l0.390625 0l0 18.984375zm16.390564 -7.828125q0 3.921875 -1.4375 6.015625q-1.421875 2.078125 -4.0625 2.078125q-2.609375 0 -4.046875 -2.015625q-1.421875 -2.03125 -1.46875 -5.8125l0 -3.578125q0 -3.921875 1.421875 -6.0q1.421875 -2.078125 4.078125 -2.078125q2.65625 0 4.0625 2.0625q1.421875 2.0625 1.453125 5.875l0 3.453125zm-3.703125 -3.84375q0 -2.234375 -0.4375 -3.359375q-0.4375 -1.125 -1.375 -1.125q-1.765625 0 -1.828125 4.109375l0 4.71875q0 2.296875 0.453125 3.421875q0.453125 1.109375 1.390625 1.109375q0.90625 0 1.34375 -1.046875q0.4375 -1.046875 0.453125 -3.203125l0 -4.625zm10.562439 -5.875l0 3.46875l1.890625 0l0 2.765625l-1.890625 0l0 6.984375q0 0.84375 0.21875 1.15625q0.234375 0.3125 0.890625 0.3125q0.53125 0 0.859375 -0.09375l-0.015625 2.859375q-0.9375 0.359375 -2.03125 0.359375q-3.5625 0 -3.609375 -4.09375l0 -7.484375l-1.625 0l0 -2.765625l1.625 0l0 -3.46875l3.6875 0zm7.49942 4.703125q1.1875 -1.5 2.9375 -1.5q1.921875 0 2.921875 1.359375q1.015625 1.34375 1.015625 4.03125l0 8.953125l-3.6875 0l0 -8.921875q0 -1.234375 -0.390625 -1.78125q-0.375 -0.5625 -1.234375 -0.5625q-1.0 0 -1.5625 0.9375l0 10.328125l-3.6875 0l0 -20.0l3.6875 0l0 7.15625zm15.841431 12.84375l0 -18.953125l5.015625 0q3.328125 0 5.296875 2.109375q1.96875 2.109375 2.0 5.78125l0 3.078125q0 3.734375 -1.96875 5.859375q-1.96875 2.125 -5.421875 2.125l-4.921875 0zm3.828125 -15.765625l0 12.59375l1.15625 0q1.90625 0 2.6875 -1.0q0.78125 -1.015625 0.828125 -3.5l0 -3.28125q0 -2.65625 -0.75 -3.703125q-0.734375 -1.046875 -2.53125 -1.109375l-1.390625 0zm16.746704 16.03125q-2.84375 0 -4.4375 -1.6875q-1.578125 -1.703125 -1.578125 -4.859375l0 -1.109375q0 -3.328125 1.453125 -5.140625q1.46875 -1.8125 4.1875 -1.8125q2.65625 0 3.984375 1.703125q1.34375 1.6875 1.375 5.03125l0 1.796875l-7.328125 0q0.078125 1.5625 0.6875 2.296875q0.609375 0.71875 1.890625 0.71875q1.84375 0 3.078125 -1.265625l1.453125 2.234375q-0.6875 0.9375 -1.984375 1.515625q-1.28125 0.578125 -2.78125 0.578125zm-2.3125 -8.640625l3.671875 0l0 -0.34375q-0.015625 -1.265625 -0.40625 -1.90625q-0.390625 -0.65625 -1.359375 -0.65625q-0.96875 0 -1.40625 0.6875q-0.421875 0.6875 -0.5 2.21875zm14.474213 5.578125q1.59375 0 1.625 -2.078125l3.453125 0q-0.015625 2.296875 -1.421875 3.71875q-1.390625 1.421875 -3.578125 1.421875q-2.734375 0 -4.171875 -1.6875q-1.421875 -1.703125 -1.453125 -5.0l0 -1.109375q0 -3.328125 1.40625 -5.0625q1.421875 -1.75 4.1875 -1.75q2.328125 0 3.671875 1.4375q1.34375 1.4375 1.359375 4.078125l-3.453125 0q-0.015625 -1.1875 -0.40625 -1.8125q-0.375 -0.640625 -1.234375 -0.640625q-0.96875 0 -1.390625 0.6875q-0.40625 0.671875 -0.4375 2.640625l0 1.4375q0 1.71875 0.171875 2.40625q0.171875 0.671875 0.5625 1.0q0.390625 0.3125 1.109375 0.3125zm8.242554 -10.34375l-1.6875 -1.015625q0.921875 -1.84375 0.953125 -3.578125l0 -2.265625l2.890625 0l0 2.0625q0 1.1875 -0.609375 2.5625q-0.609375 1.375 -1.546875 2.234375zm12.768494 13.140625l-3.6875 0l0 -14.46875l-3.609375 1.390625l0 -3.078125l6.90625 -2.828125l0.390625 0l0 18.984375zm12.515564 -7.328125q-1.171875 1.203125 -2.5625 1.203125q-2.15625 0 -3.40625 -1.734375q-1.234375 -1.75 -1.234375 -4.65625q0 -1.859375 0.703125 -3.421875q0.703125 -1.5625 1.953125 -2.421875q1.265625 -0.859375 2.8125 -0.859375q1.59375 0 2.84375 0.953125q1.25 0.953125 1.9375 2.734375q0.703125 1.78125 0.703125 4.03125l0 1.34375q0 4.84375 -2.140625 7.578125q-2.125 2.71875 -6.03125 2.765625l-0.375 0l0 -3.171875l0.25 0q2.15625 -0.015625 3.234375 -1.109375q1.09375 -1.109375 1.3125 -3.234375zm-1.625 -1.6875q1.078125 0 1.6875 -1.46875l0 -1.6875q0 -1.859375 -0.515625 -2.921875q-0.5 -1.0625 -1.3125 -1.0625q-0.796875 0 -1.28125 1.046875q-0.484375 1.046875 -0.484375 2.5625q0 1.640625 0.5 2.59375q0.515625 0.9375 1.40625 0.9375z" fill-rule="nonzero"/><path fill="#000000" fill-opacity="0.0" d="m553.99695 210.44882l147.81104 0l0 32.314957l-147.81104 0z" fill-rule="evenodd"/><path fill="#3bc7e2" d="m576.6553 236.2063l-11.171875 0l0 -2.609375l5.125 -6.515625q0.984375 -1.359375 1.4375 -2.375q0.46875 -1.015625 0.46875 -1.953125q0 -1.265625 -0.4375 -1.984375q-0.4375 -0.71875 -1.25 -0.71875q-0.90625 0 -1.4375 0.84375q-0.515625 0.828125 -0.515625 2.328125l-3.703125 0q0 -1.734375 0.71875 -3.171875q0.734375 -1.453125 2.03125 -2.25q1.3125 -0.8125 2.96875 -0.8125q2.53125 0 3.921875 1.40625q1.40625 1.40625 1.40625 3.984375q0 1.59375 -0.78125 3.25q-0.765625 1.640625 -2.796875 4.046875l-2.421875 3.46875l6.4375 0l0 3.0625zm2.687439 -9.3125l0.9375 -9.640625l9.1875 0l0 3.15625l-6.15625 0l-0.34375 4.0625q1.0625 -0.71875 2.203125 -0.71875q2.34375 0 3.609375 1.671875q1.265625 1.65625 1.265625 4.703125q0 2.84375 -1.515625 4.59375q-1.5 1.75 -4.03125 1.75q-1.5 0 -2.78125 -0.703125q-1.265625 -0.71875 -2.0 -1.984375q-0.734375 -1.265625 -0.75 -2.859375l3.640625 0q0.09375 1.1875 0.59375 1.84375q0.5 0.640625 1.265625 0.640625q0.921875 0 1.40625 -0.875q0.5 -0.890625 0.5 -2.625q0 -1.640625 -0.59375 -2.46875q-0.59375 -0.84375 -1.65625 -0.84375q-1.046875 0 -1.609375 0.71875l-0.234375 0.328125l-2.9375 -0.75zm17.499939 -8.234375l0 3.46875l1.890625 0l0 2.765625l-1.890625 0l0 6.984375q0 0.84375 0.21875 1.15625q0.234375 0.3125 0.890625 0.3125q0.53125 0 0.859375 -0.09375l-0.015625 2.859375q-0.9375 0.359375 -2.03125 0.359375q-3.5625 0 -3.609375 -4.09375l0 -7.484375l-1.625 0l0 -2.765625l1.625 0l0 -3.46875l3.6875 0zm7.4993896 4.703125q1.1875 -1.5 2.9375 -1.5q1.921875 0 2.921875 1.359375q1.015625 1.34375 1.015625 4.03125l0 8.953125l-3.6875 0l0 -8.921875q0 -1.234375 -0.390625 -1.78125q-0.375 -0.5625 -1.234375 -0.5625q-1.0 0 -1.5625 0.9375l0 10.328125l-3.6875 0l0 -20.0l3.6875 0l0 7.15625zm15.841431 12.84375l0 -18.953125l5.015625 0q3.328125 0 5.296875 2.109375q1.96875 2.109375 2.0 5.78125l0 3.078125q0 3.734375 -1.96875 5.859375q-1.96875 2.125 -5.421875 2.125l-4.921875 0zm3.828125 -15.765625l0 12.59375l1.15625 0q1.90625 0 2.6875 -1.0q0.78125 -1.015625 0.828125 -3.5l0 -3.28125q0 -2.65625 -0.75 -3.703125q-0.734375 -1.046875 -2.53125 -1.109375l-1.390625 0zm16.746704 16.03125q-2.84375 0 -4.4375 -1.6875q-1.578125 -1.703125 -1.578125 -4.859375l0 -1.109375q0 -3.328125 1.453125 -5.140625q1.46875 -1.8125 4.1875 -1.8125q2.65625 0 3.984375 1.703125q1.34375 1.6875 1.375 5.03125l0 1.796875l-7.328125 0q0.078125 1.5625 0.6875 2.296875q0.609375 0.71875 1.890625 0.71875q1.84375 0 3.078125 -1.265625l1.453125 2.234375q-0.6875 0.9375 -1.984375 1.515625q-1.28125 0.578125 -2.78125 0.578125zm-2.3125 -8.640625l3.671875 0l0 -0.34375q-0.015625 -1.265625 -0.40625 -1.90625q-0.390625 -0.65625 -1.359375 -0.65625q-0.96875 0 -1.40625 0.6875q-0.421875 0.6875 -0.5 2.21875zm14.474182 5.578125q1.59375 0 1.625 -2.078125l3.453125 0q-0.015625 2.296875 -1.421875 3.71875q-1.390625 1.421875 -3.578125 1.421875q-2.734375 0 -4.171875 -1.6875q-1.421875 -1.703125 -1.453125 -5.0l0 -1.109375q0 -3.328125 1.40625 -5.0625q1.421875 -1.75 4.1875 -1.75q2.328125 0 3.671875 1.4375q1.34375 1.4375 1.359375 4.078125l-3.453125 0q-0.015625 -1.1875 -0.40625 -1.8125q-0.375 -0.640625 -1.234375 -0.640625q-0.96875 0 -1.390625 0.6875q-0.40625 0.671875 -0.4375 2.640625l0 1.4375q0 1.71875 0.171875 2.40625q0.171875 0.671875 0.5625 1.0q0.390625 0.3125 1.109375 0.3125zm8.242615 -10.34375l-1.6875 -1.015625q0.921875 -1.84375 0.953125 -3.578125l0 -2.265625l2.890625 0l0 2.0625q0 1.1875 -0.609375 2.5625q-0.609375 1.375 -1.546875 2.234375zm12.768494 13.140625l-3.6875 0l0 -14.46875l-3.609375 1.390625l0 -3.078125l6.90625 -2.828125l0.390625 0l0 18.984375zm12.515564 -7.328125q-1.171875 1.203125 -2.5625 1.203125q-2.15625 0 -3.40625 -1.734375q-1.234375 -1.75 -1.234375 -4.65625q0 -1.859375 0.703125 -3.421875q0.703125 -1.5625 1.953125 -2.421875q1.265625 -0.859375 2.8125 -0.859375q1.59375 0 2.84375 0.953125q1.25 0.953125 1.9375 2.734375q0.703125 1.78125 0.703125 4.03125l0 1.34375q0 4.84375 -2.140625 7.578125q-2.125 2.71875 -6.03125 2.765625l-0.375 0l0 -3.171875l0.25 0q2.15625 -0.015625 3.234375 -1.109375q1.09375 -1.109375 1.3125 -3.234375zm-1.625 -1.6875q1.078125 0 1.6875 -1.46875l0 -1.6875q0 -1.859375 -0.515625 -2.921875q-0.5 -1.0625 -1.3125 -1.0625q-0.796875 0 -1.28125 1.046875q-0.484375 1.046875 -0.484375 2.5625q0 1.640625 0.5 2.59375q0.515625 0.9375 1.40625 0.9375z" fill-rule="nonzero"/><path fill="#000000" fill-opacity="0.0" d="m719.40424 364.28873l134.2362 0l0 32.31494l-134.2362 0z" fill-rule="evenodd"/><path fill="#7f739a" d="m734.3379 390.0462l-11.171875 0l0 -2.609375l5.125 -6.515625q0.984375 -1.359375 1.4375 -2.375q0.46875 -1.015625 0.46875 -1.953125q0 -1.265625 -0.4375 -1.984375q-0.4375 -0.71875 -1.25 -0.71875q-0.90625 0 -1.4375 0.84375q-0.515625 0.828125 -0.515625 2.328125l-3.703125 0q0 -1.734375 0.71875 -3.171875q0.734375 -1.453125 2.03125 -2.25q1.3125 -0.8125 2.96875 -0.8125q2.53125 0 3.921875 1.40625q1.40625 1.40625 1.40625 3.984375q0 1.59375 -0.78125 3.25q-0.765625 1.640625 -2.796875 4.046875l-2.421875 3.46875l6.4375 0l0 3.0625zm13.328064 -7.828125q0 3.921875 -1.4375 6.015625q-1.421875 2.078125 -4.0625 2.078125q-2.609375 0 -4.046875 -2.015625q-1.421875 -2.03125 -1.46875 -5.8125l0 -3.578125q0 -3.921875 1.421875 -6.0q1.421875 -2.078125 4.078125 -2.078125q2.65625 0 4.0625 2.0625q1.421875 2.0625 1.453125 5.875l0 3.453125zm-3.703125 -3.84375q0 -2.234375 -0.4375 -3.359375q-0.4375 -1.125 -1.375 -1.125q-1.765625 0 -1.828125 4.109375l0 4.71875q0 2.296875 0.453125 3.421875q0.453125 1.109375 1.390625 1.109375q0.90625 0 1.34375 -1.046875q0.4375 -1.046875 0.453125 -3.203125l0 -4.625zm10.562439 -5.875l0 3.46875l1.890625 0l0 2.765625l-1.890625 0l0 6.984375q0 0.84375 0.21875 1.15625q0.234375 0.3125 0.890625 0.3125q0.53125 0 0.859375 -0.09375l-0.015625 2.859375q-0.9375 0.359375 -2.03125 0.359375q-3.5625 0 -3.609375 -4.09375l0 -7.484375l-1.625 0l0 -2.765625l1.625 0l0 -3.46875l3.6875 0zm7.4993896 4.703125q1.1875 -1.5 2.9375 -1.5q1.921875 0 2.921875 1.359375q1.015625 1.34375 1.015625 4.03125l0 8.953125l-3.6875 0l0 -8.921875q0 -1.234375 -0.390625 -1.78125q-0.375 -0.5625 -1.234375 -0.5625q-1.0 0 -1.5625 0.9375l0 10.328125l-3.6875 0l0 -20.0l3.6875 0l0 7.15625zm20.84143 -6.109375l3.578125 13.703125l3.578125 -13.703125l5.0 0l0 18.953125l-3.84375 0l0 -5.125l0.34375 -7.90625l-3.78125 13.03125l-2.609375 0l-3.78125 -13.03125l0.34375 7.90625l0 5.125l-3.828125 0l0 -18.953125l5.0 0zm21.729065 18.953125q-0.15625 -0.328125 -0.3125 -1.09375q-0.984375 1.359375 -2.6875 1.359375q-1.765625 0 -2.9375 -1.171875q-1.15625 -1.171875 -1.15625 -3.03125q0 -2.21875 1.40625 -3.421875q1.421875 -1.21875 4.078125 -1.25l1.109375 0l0 -1.125q0 -0.953125 -0.328125 -1.34375q-0.3125 -0.390625 -0.9375 -0.390625q-1.390625 0 -1.390625 1.609375l-3.671875 0q0 -1.953125 1.453125 -3.21875q1.46875 -1.265625 3.703125 -1.265625q2.328125 0 3.59375 1.203125q1.265625 1.203125 1.265625 3.4375l0 6.625q0.03125 1.828125 0.515625 2.859375l0 0.21875l-3.703125 0zm-2.171875 -2.625q0.609375 0 1.03125 -0.25q0.4375 -0.25 0.640625 -0.59375l0 -2.921875l-0.875 0q-0.9375 0 -1.484375 0.609375q-0.53125 0.59375 -0.53125 1.59375q0 1.5625 1.21875 1.5625zm14.98468 -7.90625l-1.234375 -0.109375q-1.5 0 -2.03125 1.328125l0 9.3125l-3.703125 0l0 -14.078125l3.46875 0l0.109375 1.515625q0.875 -1.78125 2.40625 -1.78125q0.625 0 1.015625 0.171875l-0.03125 3.640625zm3.3116455 -2.609375l-1.6875 -1.015625q0.921875 -1.84375 0.953125 -3.578125l0 -2.265625l2.890625 0l0 2.0625q0 1.1875 -0.609375 2.5625q-0.609375 1.375 -1.546875 2.234375zm15.830994 13.140625l-11.171875 0l0 -2.609375l5.125 -6.515625q0.984375 -1.359375 1.4375 -2.375q0.46875 -1.015625 0.46875 -1.953125q0 -1.265625 -0.4375 -1.984375q-0.4375 -0.71875 -1.25 -0.71875q-0.90625 0 -1.4375 0.84375q-0.515625 0.828125 -0.515625 2.328125l-3.703125 0q0 -1.734375 0.71875 -3.171875q0.734375 -1.453125 2.03125 -2.25q1.3125 -0.8125 2.96875 -0.8125q2.53125 0 3.921875 1.40625q1.40625 1.40625 1.40625 3.984375q0 1.59375 -0.78125 3.25q-0.765625 1.640625 -2.796875 4.046875l-2.421875 3.46875l6.4375 0l0 3.0625zm13.328125 -7.828125q0 3.921875 -1.4375 6.015625q-1.421936 2.078125 -4.062561 2.078125q-2.609375 0 -4.046875 -2.015625q-1.421875 -2.03125 -1.46875 -5.8125l0 -3.578125q0 -3.921875 1.421875 -6.0q1.421875 -2.078125 4.078125 -2.078125q2.65625 0 4.062561 2.0625q1.421875 2.0625 1.453125 5.875l0 3.453125zm-3.703186 -3.84375q0 -2.234375 -0.4375 -3.359375q-0.4375 -1.125 -1.375 -1.125q-1.765625 0 -1.828125 4.109375l0 4.71875q0 2.296875 0.453125 3.421875q0.453125 1.109375 1.390625 1.109375q0.90625 0 1.34375 -1.046875q0.4375 -1.046875 0.453125 -3.203125l0 -4.625z" fill-rule="nonzero"/><path fill="#000000" fill-opacity="0.0" d="m132.43832 136.94751l122.58267 0l0 33.66928l-122.58267 0z" fill-rule="evenodd"/><path fill="#5b5b5b" d="m154.86084 149.13313l-4.171875 0l0 3.515625l4.9375 0l0 2.21875l-7.625 0l0 -13.265625l7.59375 0l0 2.234375l-4.90625 0l0 3.140625l4.171875 0l0 2.15625zm6.6237946 2.09375l2.21875 -9.625l3.0 0l-3.828125 13.265625l-2.796875 0l-3.796875 -13.265625l2.96875 0l2.234375 9.625zm13.316895 -2.09375l-4.171875 0l0 3.515625l4.9375 0l0 2.21875l-7.625 0l0 -13.265625l7.59375 0l0 2.234375l-4.90625 0l0 3.140625l4.171875 0l0 2.15625zm11.57692 5.734375l-2.6875 0l-3.90625 -8.703125l0 8.703125l-2.6875 0l0 -13.265625l2.6875 0l3.921875 8.703125l0 -8.703125l2.671875 0l0 13.265625zm10.471481 -11.03125l-3.28125 0l0 11.03125l-2.6875 0l0 -11.03125l-3.21875 0l0 -2.234375l9.1875 0l0 2.234375zm9.304443 6.1875l-1.328125 0l0 4.84375l-2.671875 0l0 -13.265625l4.265625 0q2.015625 0 3.109375 1.046875q1.109375 1.046875 1.109375 2.96875q0 2.640625 -1.921875 3.6875l2.3125 5.4375l0 0.125l-2.875 0l-2.0 -4.84375zm-1.328125 -2.234375l1.53125 0q0.796875 0 1.1875 -0.53125q0.40625 -0.53125 0.40625 -1.421875q0 -2.0 -1.5625 -2.0l-1.5625 0l0 3.953125zm16.98642 1.640625q0 2.671875 -1.265625 4.15625q-1.265625 1.46875 -3.5 1.46875q-2.234375 0 -3.515625 -1.453125q-1.265625 -1.46875 -1.28125 -4.109375l0 -2.265625q0 -2.734375 1.265625 -4.265625q1.265625 -1.546875 3.515625 -1.546875q2.203125 0 3.484375 1.515625q1.28125 1.5 1.296875 4.234375l0 2.265625zm-2.6875 -2.21875q0 -1.796875 -0.515625 -2.671875q-0.5 -0.875 -1.578125 -0.875q-1.0625 0 -1.578125 0.84375q-0.515625 0.84375 -0.53125 2.5625l0 2.359375q0 1.734375 0.515625 2.5625q0.53125 0.828125 1.609375 0.828125q1.046875 0 1.546875 -0.796875q0.515625 -0.8125 0.53125 -2.515625l0 -2.296875zm7.2905884 5.4375l4.6875 0l0 2.21875l-7.375 0l0 -13.265625l2.6875 0l0 11.046875zm8.927307 0l4.6875 0l0 2.21875l-7.375 0l0 -13.265625l2.6875 0l0 11.046875z" fill-rule="nonzero"/><path fill="#5b5b5b" d="m188.1123 171.43001q0 2.671875 -1.265625 4.15625q-1.265625 1.46875 -3.5 1.46875q-2.234375 0 -3.515625 -1.453125q-1.265625 -1.46875 -1.28125 -4.109375l0 -2.265625q0 -2.734375 1.265625 -4.265625q1.265625 -1.546875 3.515625 -1.546875q2.203125 0 3.484375 1.515625q1.28125 1.5 1.296875 4.234375l0 2.265625zm-2.6875 -2.21875q0 -1.796875 -0.515625 -2.671875q-0.5 -0.875 -1.578125 -0.875q-1.0625 0 -1.578125 0.84375q-0.515625 0.84375 -0.53125 2.5625l0 2.359375q0 1.734375 0.515625 2.5625q0.53125 0.828125 1.609375 0.828125q1.046875 0 1.546875 -0.796875q0.515625 -0.8125 0.53125 -2.515625l0 -2.296875zm13.228088 -5.609375l0 9.1875q-0.015625 2.0625 -1.140625 3.171875q-1.109375 1.09375 -3.203125 1.09375q-2.140625 0 -3.265625 -1.109375q-1.125 -1.125 -1.125 -3.21875l0 -9.125l2.703125 0l0 9.125q0 1.140625 0.359375 1.625q0.359375 0.46875 1.3125 0.46875q0.96875 0 1.3125 -0.46875q0.359375 -0.484375 0.375 -1.578125l0 -9.171875l2.671875 0zm10.626862 2.234375l-3.28125 0l0 11.03125l-2.6875 0l0 -11.03125l-3.21875 0l0 -2.234375l9.1875 0l0 2.234375z" fill-rule="nonzero"/><path fill="#000000" fill-opacity="0.0" d="m277.68243 406.64566l134.2362 0l0 17.795288l-134.2362 0z" fill-rule="evenodd"/><path fill="#5b5b5b" d="m287.89795 419.72192l-1.328125 0l0 4.84375l-2.671875 0l0 -13.265625l4.265625 0q2.015625 0 3.109375 1.046875q1.109375 1.046875 1.109375 2.96875q0 2.640625 -1.921875 3.6875l2.3125 5.4375l0 0.125l-2.875 0l-2.0 -4.84375zm-1.328125 -2.234375l1.53125 0q0.796875 0 1.1875 -0.53125q0.40625 -0.53125 0.40625 -1.421875q0 -2.0 -1.5625 -2.0l-1.5625 0l0 3.953125zm14.502045 1.34375l-4.171875 0l0 3.515625l4.9375 0l0 2.21875l-7.625 0l0 -13.265625l7.59375 0l0 2.234375l-4.90625 0l0 3.140625l4.171875 0l0 2.15625zm11.311279 4.234375q-0.765625 0.828125 -1.890625 1.265625q-1.125 0.421875 -2.46875 0.421875q-2.28125 0 -3.546875 -1.421875q-1.265625 -1.421875 -1.3125 -4.125l0 -2.390625q0 -2.734375 1.203125 -4.21875q1.203125 -1.484375 3.5 -1.484375q2.15625 0 3.25 1.078125q1.09375 1.0625 1.265625 3.34375l-2.59375 0q-0.109375 -1.265625 -0.53125 -1.71875q-0.421875 -0.46875 -1.3125 -0.46875q-1.078125 0 -1.578125 0.796875q-0.484375 0.78125 -0.515625 2.515625l0 2.40625q0 1.8125 0.546875 2.640625q0.546875 0.8125 1.78125 0.8125q0.796875 0 1.28125 -0.3125l0.234375 -0.15625l0 -2.4375l-1.875 0l0 -2.03125l4.5625 0l0 5.484375zm4.6944275 1.5l-2.671875 0l0 -13.265625l2.671875 0l0 13.265625zm7.8591614 -3.484375q0 -0.8125 -0.421875 -1.21875q-0.40625 -0.421875 -1.5 -0.859375q-2.0 -0.765625 -2.875 -1.78125q-0.875 -1.015625 -0.875 -2.390625q0 -1.6875 1.1875 -2.703125q1.1875 -1.015625 3.015625 -1.015625q1.234375 0 2.1875 0.515625q0.953125 0.515625 1.46875 1.453125q0.515625 0.9375 0.515625 2.140625l-2.671875 0q0 -0.9375 -0.40625 -1.421875q-0.390625 -0.484375 -1.125 -0.484375q-0.703125 0 -1.09375 0.421875q-0.390625 0.40625 -0.390625 1.109375q0 0.546875 0.4375 0.984375q0.4375 0.4375 1.546875 0.921875q1.9375 0.703125 2.8125 1.71875q0.875 1.015625 0.875 2.59375q0 1.734375 -1.109375 2.71875q-1.09375 0.96875 -2.984375 0.96875q-1.28125 0 -2.34375 -0.53125q-1.046875 -0.53125 -1.65625 -1.515625q-0.59375 -0.984375 -0.59375 -2.328125l2.6875 0q0 1.15625 0.4375 1.671875q0.453125 0.515625 1.46875 0.515625q1.40625 0 1.40625 -1.484375zm13.059479 -7.546875l-3.28125 0l0 11.03125l-2.6875 0l0 -11.03125l-3.21875 0l0 -2.234375l9.1875 0l0 2.234375zm5.5516357 6.1875l-1.328125 0l0 4.84375l-2.671875 0l0 -13.265625l4.265625 0q2.015625 0 3.109375 1.046875q1.109375 1.046875 1.109375 2.96875q0 2.640625 -1.921875 3.6875l2.3125 5.4375l0 0.125l-2.875 0l-2.0 -4.84375zm-1.328125 -2.234375l1.53125 0q0.796875 0 1.1875 -0.53125q0.40625 -0.53125 0.40625 -1.421875q0 -2.0 -1.5625 -2.0l-1.5625 0l0 3.953125zm13.970795 4.359375l-3.640625 0l-0.71875 2.71875l-2.828125 0l4.140625 -13.265625l2.453125 0l4.171875 13.265625l-2.859375 0l-0.71875 -2.71875zm-3.0625 -2.234375l2.484375 0l-1.25 -4.71875l-1.234375 4.71875zm15.375305 -6.078125l-3.28125 0l0 11.03125l-2.6875 0l0 -11.03125l-3.21875 0l0 -2.234375l9.1875 0l0 2.234375zm4.3328857 11.03125l-2.671875 0l0 -13.265625l2.671875 0l0 13.265625zm11.593536 -5.4375q0 2.671875 -1.265625 4.15625q-1.265625 1.46875 -3.5 1.46875q-2.234375 0 -3.515625 -1.453125q-1.265625 -1.46875 -1.28125 -4.109375l0 -2.265625q0 -2.734375 1.265625 -4.265625q1.265625 -1.546875 3.515625 -1.546875q2.203125 0 3.484375 1.515625q1.28125 1.5 1.296875 4.234375l0 2.265625zm-2.6875 -2.21875q0 -1.796875 -0.515625 -2.671875q-0.5 -0.875 -1.578125 -0.875q-1.0625 0 -1.578125 0.84375q-0.515625 0.84375 -0.53125 2.5625l0 2.359375q0 1.734375 0.515625 2.5625q0.53125 0.828125 1.609375 0.828125q1.046875 0 1.546875 -0.796875q0.515625 -0.8125 0.53125 -2.515625l0 -2.296875zm13.884338 7.65625l-2.6875 0l-3.90625 -8.703125l0 8.703125l-2.6875 0l0 -13.265625l2.6875 0l3.921875 8.703125l0 -8.703125l2.671875 0l0 13.265625zm7.7514343 -3.484375q0 -0.8125 -0.421875 -1.21875q-0.40625 -0.421875 -1.5 -0.859375q-2.0 -0.765625 -2.875 -1.78125q-0.875 -1.015625 -0.875 -2.390625q0 -1.6875 1.1875 -2.703125q1.1875 -1.015625 3.015625 -1.015625q1.234375 0 2.1875 0.515625q0.953125 0.515625 1.46875 1.453125q0.515625 0.9375 0.515625 2.140625l-2.671875 0q0 -0.9375 -0.40625 -1.421875q-0.390625 -0.484375 -1.125 -0.484375q-0.703125 0 -1.09375 0.421875q-0.390625 0.40625 -0.390625 1.109375q0 0.546875 0.4375 0.984375q0.4375 0.4375 1.546875 0.921875q1.9375 0.703125 2.8125 1.71875q0.875 1.015625 0.875 2.59375q0 1.734375 -1.109375 2.71875q-1.09375 0.96875 -2.984375 0.96875q-1.28125 0 -2.34375 -0.53125q-1.046875 -0.53125 -1.65625 -1.515625q-0.59375 -0.984375 -0.59375 -2.328125l2.6875 0q0 1.15625 0.4375 1.671875q0.453125 0.515625 1.46875 0.515625q1.40625 0 1.40625 -1.484375z" fill-rule="nonzero"/><path fill="#5b5b5b" d="m333.98166 441.12817q0 2.671875 -1.265625 4.15625q-1.265625 1.46875 -3.5 1.46875q-2.234375 0 -3.515625 -1.453125q-1.265625 -1.46875 -1.28125 -4.109375l0 -2.265625q0 -2.734375 1.265625 -4.265625q1.265625 -1.546875 3.515625 -1.546875q2.203125 0 3.484375 1.515625q1.28125 1.5 1.296875 4.234375l0 2.265625zm-2.6875 -2.21875q0 -1.796875 -0.515625 -2.671875q-0.5 -0.875 -1.578125 -0.875q-1.0625 0 -1.578125 0.84375q-0.515625 0.84375 -0.53125 2.5625l0 2.359375q0 1.734375 0.515625 2.5625q0.53125 0.828125 1.609375 0.828125q1.046875 0 1.546875 -0.796875q0.515625 -0.8125 0.53125 -2.515625l0 -2.296875zm7.2905884 2.984375l0 4.671875l-2.6875 0l0 -13.265625l4.515625 0q1.96875 0 3.140625 1.21875q1.171875 1.21875 1.171875 3.171875q0 1.953125 -1.15625 3.078125q-1.15625 1.125 -3.203125 1.125l-1.78125 0zm0 -2.21875l1.828125 0q0.765625 0 1.1875 -0.5q0.421875 -0.5 0.421875 -1.46875q0 -0.984375 -0.4375 -1.5625q-0.421875 -0.59375 -1.140625 -0.609375l-1.859375 0l0 4.140625zm14.784424 1.15625l-4.171875 0l0 3.515625l4.9375 0l0 2.21875l-7.625 0l0 -13.265625l7.59375 0l0 2.234375l-4.90625 0l0 3.140625l4.171875 0l0 2.15625zm11.576935 5.734375l-2.6875 0l-3.90625 -8.703125l0 8.703125l-2.6875 0l0 -13.265625l2.6875 0l3.921875 8.703125l0 -8.703125l2.671875 0l0 13.265625z" fill-rule="nonzero"/><path fill="#000000" fill-opacity="0.0" d="m404.46194 136.94751l147.811 0l0 17.795273l-147.811 0z" fill-rule="evenodd"/><path fill="#5b5b5b" d="m443.95926 152.14876l-3.640625 0l-0.71875 2.71875l-2.828125 0l4.140625 -13.265625l2.453125 0l4.171875 13.265625l-2.859375 0l-0.71875 -2.71875zm-3.0625 -2.234375l2.484375 0l-1.25 -4.71875l-1.234375 4.71875zm7.875305 4.953125l0 -13.265625l4.109375 0q2.0625 0 3.140625 0.921875q1.09375 0.921875 1.09375 2.71875q0 1.0 -0.453125 1.734375q-0.4375 0.734375 -1.21875 1.0625q0.890625 0.265625 1.375 1.03125q0.484375 0.765625 0.484375 1.890625q0 1.9375 -1.0625 2.921875q-1.0625 0.984375 -3.078125 0.984375l-4.390625 0zm2.6875 -5.765625l0 3.546875l1.703125 0q0.71875 0 1.09375 -0.4375q0.375 -0.453125 0.375 -1.28125q0 -1.78125 -1.296875 -1.828125l-1.875 0zm0 -1.953125l1.390625 0q1.578125 0 1.578125 -1.625q0 -0.90625 -0.375 -1.296875q-0.359375 -0.390625 -1.171875 -0.390625l-1.421875 0l0 3.3125zm13.388672 4.234375q0 -0.8125 -0.421875 -1.21875q-0.40625 -0.421875 -1.5 -0.859375q-2.0 -0.765625 -2.875 -1.78125q-0.875 -1.015625 -0.875 -2.390625q0 -1.6875 1.1875 -2.703125q1.1875 -1.015625 3.015625 -1.015625q1.234375 0 2.1875 0.515625q0.953125 0.515625 1.46875 1.453125q0.515625 0.9375 0.515625 2.140625l-2.671875 0q0 -0.9375 -0.40625 -1.421875q-0.390625 -0.484375 -1.125 -0.484375q-0.703125 0 -1.09375 0.421875q-0.390625 0.40625 -0.390625 1.109375q0 0.546875 0.4375 0.984375q0.4375 0.4375 1.546875 0.921875q1.9375 0.703125 2.8125 1.71875q0.875 1.015625 0.875 2.59375q0 1.734375 -1.109375 2.71875q-1.09375 0.96875 -2.984375 0.96875q-1.28125 0 -2.34375 -0.53125q-1.046875 -0.53125 -1.65625 -1.515625q-0.59375 -0.984375 -0.59375 -2.328125l2.6875 0q0 1.15625 0.4375 1.671875q0.453125 0.515625 1.46875 0.515625q1.40625 0 1.40625 -1.484375zm13.059479 -7.546875l-3.28125 0l0 11.03125l-2.6875 0l0 -11.03125l-3.21875 0l0 -2.234375l9.1875 0l0 2.234375zm5.5516357 6.1875l-1.328125 0l0 4.84375l-2.671875 0l0 -13.265625l4.265625 0q2.015625 0 3.109375 1.046875q1.109375 1.046875 1.109375 2.96875q0 2.640625 -1.921875 3.6875l2.3125 5.4375l0 0.125l-2.875 0l-2.0 -4.84375zm-1.328125 -2.234375l1.53125 0q0.796875 0 1.1875 -0.53125q0.40625 -0.53125 0.40625 -1.421875q0 -2.0 -1.5625 -2.0l-1.5625 0l0 3.953125zm13.970795 4.359375l-3.640625 0l-0.71875 2.71875l-2.828125 0l4.140625 -13.265625l2.453125 0l4.171875 13.265625l-2.859375 0l-0.71875 -2.71875zm-3.0625 -2.234375l2.484375 0l-1.25 -4.71875l-1.234375 4.71875zm16.683899 0.53125q-0.109375 2.265625 -1.28125 3.4375q-1.171875 1.171875 -3.3125 1.171875q-2.25 0 -3.453125 -1.484375q-1.203125 -1.484375 -1.203125 -4.21875l0 -2.234375q0 -2.734375 1.234375 -4.21875q1.25 -1.484375 3.453125 -1.484375q2.171875 0 3.296875 1.21875q1.125 1.21875 1.28125 3.484375l-2.6875 0q-0.046875 -1.40625 -0.4375 -1.9375q-0.390625 -0.53125 -1.453125 -0.53125q-1.078125 0 -1.53125 0.75q-0.4375 0.75 -0.46875 2.46875l0 2.5q0 1.984375 0.4375 2.71875q0.453125 0.734375 1.53125 0.734375q1.046875 0 1.453125 -0.5q0.40625 -0.515625 0.453125 -1.875l2.6875 0zm9.96933 -6.609375l-3.28125 0l0 11.03125l-2.6875 0l0 -11.03125l-3.2187805 0l0 -2.234375l9.1875305 0l0 2.234375z" fill-rule="nonzero"/><path fill="#5b5b5b" d="m435.90268 173.38313q0 -0.8125 -0.421875 -1.21875q-0.40625 -0.421875 -1.5 -0.859375q-2.0 -0.765625 -2.875 -1.78125q-0.875 -1.015625 -0.875 -2.390625q0 -1.6875 1.1875 -2.703125q1.1875 -1.015625 3.015625 -1.015625q1.234375 0 2.1875 0.515625q0.953125 0.515625 1.46875 1.453125q0.515625 0.9375 0.515625 2.140625l-2.671875 0q0 -0.9375 -0.40625 -1.421875q-0.390625 -0.484375 -1.125 -0.484375q-0.703125 0 -1.09375 0.421875q-0.390625 0.40625 -0.390625 1.109375q0 0.546875 0.4375 0.984375q0.4375 0.4375 1.546875 0.921875q1.9375 0.703125 2.8125 1.71875q0.875 1.015625 0.875 2.59375q0 1.734375 -1.109375 2.71875q-1.09375 0.96875 -2.984375 0.96875q-1.28125 0 -2.34375 -0.53125q-1.046875 -0.53125 -1.65625 -1.515625q-0.59375 -0.984375 -0.59375 -2.328125l2.6875 0q0 1.15625 0.4375 1.671875q0.453125 0.515625 1.46875 0.515625q1.40625 0 1.40625 -1.484375zm13.090729 -9.78125l0 9.1875q-0.015625 2.0625 -1.140625 3.171875q-1.109375 1.09375 -3.203125 1.09375q-2.140625 0 -3.265625 -1.109375q-1.125 -1.125 -1.125 -3.21875l0 -9.125l2.703125 0l0 9.125q0 1.140625 0.359375 1.625q0.359375 0.46875 1.3125 0.46875q0.96875 0 1.3125 -0.46875q0.359375 -0.484375 0.375 -1.578125l0 -9.171875l2.671875 0zm2.0331116 13.265625l0 -13.265625l4.109375 0q2.0625 0 3.140625 0.921875q1.09375 0.921875 1.09375 2.71875q0 1.0 -0.453125 1.734375q-0.4375 0.734375 -1.21875 1.0625q0.890625 0.265625 1.375 1.03125q0.484375 0.765625 0.484375 1.890625q0 1.9375 -1.0625 2.921875q-1.0625 0.984375 -3.078125 0.984375l-4.390625 0zm2.6875 -5.765625l0 3.546875l1.703125 0q0.71875 0 1.09375 -0.4375q0.375 -0.453125 0.375 -1.28125q0 -1.78125 -1.296875 -1.828125l-1.875 0zm0 -1.953125l1.390625 0q1.578125 0 1.578125 -1.625q0 -0.90625 -0.375 -1.296875q-0.359375 -0.390625 -1.171875 -0.390625l-1.421875 0l0 3.3125zm11.279327 -5.546875l2.5 9.59375l2.5 -9.59375l3.5 0l0 13.265625l-2.6875 0l0 -3.59375l0.25 -5.53125l-2.65625 9.125l-1.8125 0l-2.65625 -9.125l0.25 5.53125l0 3.59375l-2.6875 0l0 -13.265625l3.5 0zm13.443909 13.265625l-2.671875 0l0 -13.265625l2.671875 0l0 13.265625zm7.8591614 -3.484375q0 -0.8125 -0.421875 -1.21875q-0.40625 -0.421875 -1.5 -0.859375q-2.0 -0.765625 -2.875 -1.78125q-0.875 -1.015625 -0.875 -2.390625q0 -1.6875 1.1875 -2.703125q1.1875 -1.015625 3.015625 -1.015625q1.234375 0 2.1875 0.515625q0.953125 0.515625 1.46875 1.453125q0.515625 0.9375 0.515625 2.140625l-2.671875 0q0 -0.9375 -0.40625 -1.421875q-0.390625 -0.484375 -1.125 -0.484375q-0.703125 0 -1.09375 0.421875q-0.390625 0.40625 -0.390625 1.109375q0 0.546875 0.4375 0.984375q0.4375 0.4375 1.546875 0.921875q1.9375 0.703125 2.8125 1.71875q0.875 1.015625 0.875 2.59375q0 1.734375 -1.109375 2.71875q-1.09375 0.96875 -2.984375 0.96875q-1.28125 0 -2.34375 -0.53125q-1.046875 -0.53125 -1.65625 -1.515625q-0.59375 -0.984375 -0.59375 -2.328125l2.6875 0q0 1.15625 0.4375 1.671875q0.453125 0.515625 1.46875 0.515625q1.40625 0 1.40625 -1.484375zm10.075104 0q0 -0.8125 -0.421875 -1.21875q-0.40625 -0.421875 -1.5 -0.859375q-2.0 -0.765625 -2.875 -1.78125q-0.875 -1.015625 -0.875 -2.390625q0 -1.6875 1.1875 -2.703125q1.1875 -1.015625 3.015625 -1.015625q1.234375 0 2.1875 0.515625q0.953125 0.515625 1.46875 1.453125q0.515625 0.9375 0.515625 2.140625l-2.671875 0q0 -0.9375 -0.40625 -1.421875q-0.390625 -0.484375 -1.125 -0.484375q-0.703125 0 -1.09375 0.421875q-0.390625 0.40625 -0.390625 1.109375q0 0.546875 0.4375 0.984375q0.4375 0.4375 1.546875 0.921875q1.9375 0.703125 2.8125 1.71875q0.875 1.015625 0.875 2.59375q0 1.734375 -1.109375 2.71875q-1.09375 0.96875 -2.984375 0.96875q-1.28125 0 -2.34375 -0.53125q-1.046875 -0.53125 -1.65625 -1.515625q-0.59375 -0.984375 -0.59375 -2.328125l2.6875 0q0 1.15625 0.4375 1.671875q0.453125 0.515625 1.46875 0.515625q1.40625 0 1.40625 -1.484375zm7.2626038 3.484375l-2.671875 0l0 -13.265625l2.671875 0l0 13.265625zm11.593536 -5.4375q0 2.671875 -1.265625 4.15625q-1.265625 1.46875 -3.5 1.46875q-2.234375 0 -3.515625 -1.453125q-1.265625 -1.46875 -1.28125 -4.109375l0 -2.265625q0 -2.734375 1.265625 -4.265625q1.265625 -1.546875 3.515625 -1.546875q2.203125 0 3.484375 1.515625q1.28125 1.5 1.296875 4.234375l0 2.265625zm-2.6875 -2.21875q0 -1.796875 -0.515625 -2.671875q-0.5 -0.875 -1.578125 -0.875q-1.0625 0 -1.578125 0.84375q-0.515625 0.84375 -0.53125 2.5625l0 2.359375q0 1.734375 0.515625 2.5625q0.53125 0.828125 1.609375 0.828125q1.046875 0 1.546875 -0.796875q0.515625 -0.8125 0.53125 -2.515625l0 -2.296875zm13.884338 7.65625l-2.6875 0l-3.90625 -8.703125l0 8.703125l-2.6875 0l0 -13.265625l2.6875 0l3.921875 8.703125l0 -8.703125l2.671875 0l0 13.265625z" fill-rule="nonzero"/><path fill="#5b5b5b" d="m441.46613 198.86751l0 -13.265625l3.515625 0q2.3125 0 3.6875 1.484375q1.390625 1.46875 1.421875 4.03125l0 2.15625q0 2.609375 -1.390625 4.109375q-1.375 1.484375 -3.796875 1.484375l-3.4375 0zm2.6875 -11.03125l0 8.8125l0.796875 0q1.34375 0 1.890625 -0.703125q0.546875 -0.71875 0.5625 -2.4375l0 -2.3125q0 -1.859375 -0.515625 -2.59375q-0.515625 -0.734375 -1.765625 -0.765625l-0.96875 0zm14.711548 5.296875l-4.171875 0l0 3.515625l4.9375 0l0 2.21875l-7.625 0l0 -13.265625l7.59375 0l0 2.234375l-4.90625 0l0 3.140625l4.171875 0l0 2.15625zm8.62381 3.015625l-3.640625 0l-0.71875 2.71875l-2.828125 0l4.140625 -13.265625l2.453125 0l4.171875 13.265625l-2.859375 0l-0.71875 -2.71875zm-3.0625 -2.234375l2.484375 0l-1.25 -4.71875l-1.234375 4.71875zm7.8752747 4.953125l0 -13.265625l3.515625 0q2.3125 0 3.6875 1.484375q1.390625 1.46875 1.421875 4.03125l0 2.15625q0 2.609375 -1.390625 4.109375q-1.375 1.484375 -3.796875 1.484375l-3.4375 0zm2.6875 -11.03125l0 8.8125l0.796875 0q1.34375 0 1.890625 -0.703125q0.546875 -0.71875 0.5625 -2.4375l0 -2.3125q0 -1.859375 -0.515625 -2.59375q-0.515625 -0.734375 -1.765625 -0.765625l-0.96875 0zm10.539703 8.8125l4.6875 0l0 2.21875l-7.375 0l0 -13.265625l2.6875 0l0 11.046875zm9.036682 2.21875l-2.671875 0l0 -13.265625l2.671875 0l0 13.265625zm11.531036 0l-2.6875 0l-3.90625 -8.703125l0 8.703125l-2.6875 0l0 -13.265625l2.6875 0l3.921875 8.703125l0 -8.703125l2.671875 0l0 13.265625zm9.001404 -5.734375l-4.1718445 0l0 3.515625l4.9374695 0l0 2.21875l-7.6249695 0l0 -13.265625l7.5937195 0l0 2.234375l-4.9062195 0l0 3.140625l4.1718445 0l0 2.15625z" fill-rule="nonzero"/><path fill="#000000" fill-opacity="0.0" d="m577.3674 406.64566l122.5827 0l0 17.795288l-122.5827 0z" fill-rule="evenodd"/><path fill="#5b5b5b" d="m601.84656 421.0813q0 -0.8125 -0.421875 -1.21875q-0.40625 -0.421875 -1.5 -0.859375q-2.0 -0.765625 -2.875 -1.78125q-0.875 -1.015625 -0.875 -2.390625q0 -1.6875 1.1875 -2.703125q1.1875 -1.015625 3.015625 -1.015625q1.234375 0 2.1875 0.515625q0.953125 0.515625 1.46875 1.453125q0.515625 0.9375 0.515625 2.140625l-2.671875 0q0 -0.9375 -0.40625 -1.421875q-0.390625 -0.484375 -1.125 -0.484375q-0.703125 0 -1.09375 0.421875q-0.390625 0.40625 -0.390625 1.109375q0 0.546875 0.4375 0.984375q0.4375 0.4375 1.546875 0.921875q1.9375 0.703125 2.8125 1.71875q0.875 1.015625 0.875 2.59375q0 1.734375 -1.109375 2.71875q-1.09375 0.96875 -2.984375 0.96875q-1.28125 0 -2.34375 -0.53125q-1.046875 -0.53125 -1.65625 -1.515625q-0.59375 -0.984375 -0.59375 -2.328125l2.6875 0q0 1.15625 0.4375 1.671875q0.453125 0.515625 1.46875 0.515625q1.40625 0 1.40625 -1.484375zm13.762573 3.484375l-2.65625 0l0 -5.671875l-3.953125 0l0 5.671875l-2.6875 0l0 -13.265625l2.6875 0l0 5.375l3.953125 0l0 -5.375l2.65625 0l0 13.265625zm11.497498 -5.4375q0 2.671875 -1.265625 4.15625q-1.265625 1.46875 -3.5 1.46875q-2.234375 0 -3.515625 -1.453125q-1.265625 -1.46875 -1.28125 -4.109375l0 -2.265625q0 -2.734375 1.265625 -4.265625q1.265625 -1.546875 3.515625 -1.546875q2.203125 0 3.484375 1.515625q1.28125 1.5 1.296875 4.234375l0 2.265625zm-2.6875 -2.21875q0 -1.796875 -0.515625 -2.671875q-0.5 -0.875 -1.578125 -0.875q-1.0625 0 -1.578125 0.84375q-0.515625 0.84375 -0.53125 2.5625l0 2.359375q0 1.734375 0.515625 2.5625q0.53125 0.828125 1.609375 0.828125q1.046875 0 1.546875 -0.796875q0.515625 -0.8125 0.53125 -2.515625l0 -2.296875zm8.618713 2.8125l-1.328125 0l0 4.84375l-2.671875 0l0 -13.265625l4.265625 0q2.015625 0 3.109375 1.046875q1.109375 1.046875 1.109375 2.96875q0 2.640625 -1.921875 3.6875l2.3125 5.4375l0 0.125l-2.875 0l-2.0 -4.84375zm-1.328125 -2.234375l1.53125 0q0.796875 0 1.1875 -0.53125q0.40625 -0.53125 0.40625 -1.421875q0 -2.0 -1.5625 -2.0l-1.5625 0l0 3.953125zm15.780701 -3.953125l-3.28125 0l0 11.03125l-2.6875 0l0 -11.03125l-3.21875 0l0 -2.234375l9.1875 0l0 2.234375zm4.2235107 8.8125l4.6875 0l0 2.21875l-7.375 0l0 -13.265625l2.6875 0l0 11.046875zm9.036682 2.21875l-2.671875 0l0 -13.265625l2.671875 0l0 13.265625zm7.859192 -3.484375q0 -0.8125 -0.421875 -1.21875q-0.40625 -0.421875 -1.5 -0.859375q-2.0 -0.765625 -2.875 -1.78125q-0.875 -1.015625 -0.875 -2.390625q0 -1.6875 1.1875 -2.703125q1.1875 -1.015625 3.015625 -1.015625q1.234375 0 2.1875 0.515625q0.953125 0.515625 1.46875 1.453125q0.515625 0.9375 0.515625 2.140625l-2.671875 0q0 -0.9375 -0.40625 -1.421875q-0.390625 -0.484375 -1.125 -0.484375q-0.703125 0 -1.09375 0.421875q-0.390625 0.40625 -0.390625 1.109375q0 0.546875 0.4375 0.984375q0.4375 0.4375 1.546875 0.921875q1.9375 0.703125 2.8125 1.71875q0.875 1.015625 0.875 2.59375q0 1.734375 -1.109375 2.71875q-1.09375 0.96875 -2.984375 0.96875q-1.28125 0 -2.34375 -0.53125q-1.046875 -0.53125 -1.65625 -1.515625q-0.59375 -0.984375 -0.59375 -2.328125l2.6875 0q0 1.15625 0.4375 1.671875q0.453125 0.515625 1.46875 0.515625q1.40625 0 1.40625 -1.484375zm13.059448 -7.546875l-3.28125 0l0 11.03125l-2.6875 0l0 -11.03125l-3.21875 0l0 -2.234375l9.1875 0l0 2.234375z" fill-rule="nonzero"/><path fill="#5b5b5b" d="m597.2179 443.84692l-3.640625 0l-0.71875 2.71875l-2.828125 0l4.140625 -13.265625l2.453125 0l4.171875 13.265625l-2.859375 0l-0.71875 -2.71875zm-3.0625 -2.234375l2.484375 0l-1.25 -4.71875l-1.234375 4.71875zm17.156555 4.953125l-2.6875 0l-3.90625 -8.703125l0 8.703125l-2.6875 0l0 -13.265625l2.6875 0l3.921875 8.703125l0 -8.703125l2.671875 0l0 13.265625zm11.423279 0l-2.6875 0l-3.90625 -8.703125l0 8.703125l-2.6875 0l0 -13.265625l2.6875 0l3.921875 8.703125l0 -8.703125l2.671875 0l0 13.265625zm11.48584 -5.4375q0 2.671875 -1.265625 4.15625q-1.265625 1.46875 -3.5 1.46875q-2.234375 0 -3.515625 -1.453125q-1.265625 -1.46875 -1.28125 -4.109375l0 -2.265625q0 -2.734375 1.265625 -4.265625q1.265625 -1.546875 3.515625 -1.546875q2.203125 0 3.484375 1.515625q1.28125 1.5 1.296875 4.234375l0 2.265625zm-2.6875 -2.21875q0 -1.796875 -0.515625 -2.671875q-0.5 -0.875 -1.578125 -0.875q-1.0625 0 -1.578125 0.84375q-0.515625 0.84375 -0.53125 2.5625l0 2.359375q0 1.734375 0.515625 2.5625q0.53125 0.828125 1.609375 0.828125q1.046875 0 1.546875 -0.796875q0.515625 -0.8125 0.53125 -2.515625l0 -2.296875zm13.228088 -5.609375l0 9.1875q-0.015625 2.0625 -1.140625 3.171875q-1.109375 1.09375 -3.203125 1.09375q-2.140625 0 -3.265625 -1.109375q-1.125 -1.125 -1.125 -3.21875l0 -9.125l2.703125 0l0 9.125q0 1.140625 0.359375 1.625q0.359375 0.46875 1.3125 0.46875q0.96875 0 1.3125 -0.46875q0.359375 -0.484375 0.375 -1.578125l0 -9.171875l2.671875 0zm11.314331 13.265625l-2.6875 0l-3.90625 -8.703125l0 8.703125l-2.6875 0l0 -13.265625l2.6875 0l3.921875 8.703125l0 -8.703125l2.671875 0l0 13.265625zm11.14209 -4.421875q-0.109375 2.265625 -1.28125 3.4375q-1.171875 1.171875 -3.3125 1.171875q-2.25 0 -3.453125 -1.484375q-1.203125 -1.484375 -1.203125 -4.21875l0 -2.234375q0 -2.734375 1.234375 -4.21875q1.25 -1.484375 3.453125 -1.484375q2.171875 0 3.296875 1.21875q1.125 1.21875 1.28125 3.484375l-2.6875 0q-0.046875 -1.40625 -0.4375 -1.9375q-0.390625 -0.53125 -1.453125 -0.53125q-1.078125 0 -1.53125 0.75q-0.4375 0.75 -0.46875 2.46875l0 2.5q0 1.984375 0.4375 2.71875q0.453125 0.734375 1.53125 0.734375q1.046875 0 1.453125 -0.5q0.40625 -0.515625 0.453125 -1.875l2.6875 0zm8.499268 -1.3125l-4.171875 0l0 3.515625l4.9375 0l0 2.21875l-7.625 0l0 -13.265625l7.59375 0l0 2.234375l-4.90625 0l0 3.140625l4.171875 0l0 2.15625zm2.2956543 5.734375l0 -13.265625l3.515625 0q2.3125 0 3.6875 1.484375q1.390625 1.46875 1.421875 4.03125l0 2.15625q0 2.609375 -1.390625 4.109375q-1.375 1.484375 -3.796875 1.484375l-3.4375 0zm2.6875 -11.03125l0 8.8125l0.796875 0q1.34375 0 1.890625 -0.703125q0.546875 -0.71875 0.5625 -2.4375l0 -2.3125q0 -1.859375 -0.515625 -2.59375q-0.515625 -0.734375 -1.765625 -0.765625l-0.96875 0z" fill-rule="nonzero"/><path fill="#010000" fill-opacity="0.0" d="m687.4902 429.25763l0 0l0 21.862793l0 0l0 -21.862793z" fill-rule="nonzero"/><path fill="#000000" fill-opacity="0.0" d="m705.84265 136.94751l147.81104 0l0 17.795273l-147.81104 0z" fill-rule="evenodd"/><path fill="#5b5b5b" d="m762.0799 141.60188l0 9.1875q-0.015625 2.0625 -1.140625 3.171875q-1.109375 1.09375 -3.203125 1.09375q-2.140625 0 -3.265625 -1.109375q-1.125 -1.125 -1.125 -3.21875l0 -9.125l2.703125 0l0 9.125q0 1.140625 0.359375 1.625q0.359375 0.46875 1.3125 0.46875q0.96875 0 1.3125 -0.46875q0.359375 -0.484375 0.375 -1.578125l0 -9.171875l2.671875 0zm2.033142 13.265625l0 -13.265625l3.515625 0q2.3125 0 3.6875 1.484375q1.390625 1.46875 1.421875 4.03125l0 2.15625q0 2.609375 -1.390625 4.109375q-1.375 1.484375 -3.796875 1.484375l-3.4375 0zm2.6875 -11.03125l0 8.8125l0.796875 0q1.34375 0 1.890625 -0.703125q0.546875 -0.71875 0.5625 -2.4375l0 -2.3125q0 -1.859375 -0.515625 -2.59375q-0.515625 -0.734375 -1.765625 -0.765625l-0.96875 0zm13.988892 8.3125l-3.640625 0l-0.71875 2.71875l-2.828125 0l4.140625 -13.265625l2.453125 0l4.171875 13.265625l-2.859375 0l-0.71875 -2.71875zm-3.0625 -2.234375l2.484375 0l-1.25 -4.71875l-1.234375 4.71875zm14.20343 2.234375l-3.640625 0l-0.71875 2.71875l-2.828125 0l4.140625 -13.265625l2.453125 0l4.171875 13.265625l-2.859375 0l-0.71875 -2.71875zm-3.0625 -2.234375l2.484375 0l-1.25 -4.71875l-1.234375 4.71875zm17.156555 4.953125l-2.6875 0l-3.90625 -8.703125l0 8.703125l-2.6875 0l0 -13.265625l2.6875 0l3.921875 8.703125l0 -8.703125l2.671875 0l0 13.265625z" fill-rule="nonzero"/><path fill="#5b5b5b" d="m759.8294 171.46126l-4.15625 0l0 5.40625l-2.6875 0l0 -13.265625l7.34375 0l0 2.234375l-4.65625 0l0 3.390625l4.15625 0l0 2.234375zm4.8258057 5.40625l-2.671875 0l0 -13.265625l2.671875 0l0 13.265625zm11.531006 0l-2.6875 0l-3.90625 -8.703125l0 8.703125l-2.6875 0l0 -13.265625l2.6875 0l3.921875 8.703125l0 -8.703125l2.671875 0l0 13.265625zm8.634277 -2.71875l-3.640625 0l-0.71875 2.71875l-2.828125 0l4.140625 -13.265625l2.453125 0l4.171875 13.265625l-2.859375 0l-0.71875 -2.71875zm-3.0625 -2.234375l2.484375 0l-1.25 -4.71875l-1.234375 4.71875zm10.562805 2.734375l4.6875 0l0 2.21875l-7.375 0l0 -13.265625l2.6875 0l0 11.046875zm11.849182 -1.265625q0 -0.8125 -0.421875 -1.21875q-0.40625 -0.421875 -1.5 -0.859375q-2.0 -0.765625 -2.875 -1.78125q-0.875 -1.015625 -0.875 -2.390625q0 -1.6875 1.1875 -2.703125q1.1875 -1.015625 3.015625 -1.015625q1.234375 0 2.1875 0.515625q0.953125 0.515625 1.46875 1.453125q0.515625 0.9375 0.515625 2.140625l-2.671875 0q0 -0.9375 -0.40625 -1.421875q-0.390625 -0.484375 -1.125 -0.484375q-0.703125 0 -1.09375 0.421875q-0.390625 0.40625 -0.390625 1.109375q0 0.546875 0.4375 0.984375q0.4375 0.4375 1.546875 0.921875q1.9375 0.703125 2.8125 1.71875q0.875 1.015625 0.875 2.59375q0 1.734375 -1.109375 2.71875q-1.09375 0.96875 -2.984375 0.96875q-1.28125 0 -2.34375 -0.53125q-1.046875 -0.53125 -1.65625 -1.515625q-0.59375 -0.984375 -0.59375 -2.328125l2.6875 0q0 1.15625 0.4375 1.671875q0.453125 0.515625 1.46875 0.515625q1.40625 0 1.40625 -1.484375z" fill-rule="nonzero"/><path fill="#ffc000" d="m201.01491 307.55106c-0.6099396 0 -3.0497131 -2.0196838 -3.0497131 -2.5245972c-2.4397736 2.0196838 -2.4397736 2.0196838 -2.4397736 2.0196838c5.4894867 4.544281 5.4894867 4.544281 5.4894867 4.544281c0 0.50494385 0.6099396 1.0098572 0.6099396 1.5147705c0 1.0098572 -1.8298187 2.0196838 -3.0497131 2.0196838c-0.6099396 0 -1.2198792 0 -1.8298187 -0.50491333c-16.46846 -13.632874 -16.46846 -13.632874 -16.46846 -13.632874c-2.4397583 1.5147705 -5.4894714 3.0295105 -8.539185 3.0295105c-5.4894867 0 -9.149139 -3.0295105 -9.149139 -7.5737915c0 -6.5639954 7.929245 -13.632904 15.858505 -13.632904c5.4894867 0 9.149139 3.029541 9.149139 7.573822c0 3.029541 -1.2198944 5.554138 -3.0497131 7.573822c8.539185 7.0689087 8.539185 7.0689087 8.539185 7.0689087c2.4397736 -2.0196838 2.4397736 -2.0196838 2.4397736 -2.0196838c-0.6099396 -0.50491333 -3.0497131 -2.0196838 -3.0497131 -2.5245972c0 -0.50494385 2.4397736 -2.0196838 3.0497131 -2.0196838c0 0 0 0 0.6099396 0c0.60995483 0.50491333 7.3193207 6.0590515 7.3193207 6.563965c0 0.50491333 -1.829834 2.5245972 -2.4397736 2.5245972zm-23.17781 -20.701752c-2.4397736 0 -4.2696075 2.0196838 -4.2696075 4.0393677c0 0.50491333 0 1.0098267 0.6099396 1.51474c-1.2198792 0 -1.8298187 -0.50491333 -2.4397583 -0.50491333c-2.4397736 0 -4.879547 2.0196838 -4.879547 4.0393677c0 2.0196838 2.4397736 4.0393677 4.879547 4.0393677c2.4397583 0 4.879532 -2.0196838 4.879532 -4.0393677c0 -0.50491333 0 -1.0098267 -0.6099396 -1.5147705c0.6099396 0 1.2198792 0.50494385 1.829834 0.50494385c3.0497131 0 4.879532 -2.0196838 4.879532 -4.0393677c0 -2.0196838 -1.8298187 -4.0393677 -4.879532 -4.0393677z" fill-rule="evenodd"/><path fill="#ff3f5f" d="m337.18112 293.16098c-22.75174 0 -22.75174 0 -22.75174 0c-0.5093689 0 -1.0187378 0.4986267 -1.0187378 0.9972534c0 0.49865723 0.5093689 0.99728394 1.0187378 0.99728394c22.75174 0 22.75174 0 22.75174 0c0.5093689 0 1.0187378 -0.4986267 1.0187378 -0.99728394c-0.1697998 -0.4986267 -0.5093689 -0.9972534 -1.0187378 -0.9972534zm0 0c0 0 0 0 0 0" fill-rule="evenodd"/><path fill="#ff3f5f" d="m342.295 308.96133c-0.16998291 -0.17001343 -0.3399353 -0.5100403 -0.3399353 -0.6800842c-31.445831 0 -31.445831 0 -31.445831 0c0 -29.243286 0 -29.243286 0 -29.243286c38.244904 0 38.244904 0 38.244904 0c0 24.14273 0 24.14273 0 24.14273c0 0 0 0 0 0c0.50994873 -0.34005737 1.1898499 -0.5100708 1.869751 -0.5100708c0.33996582 0 1.019867 0 1.6997986 0.5100708c0.16998291 0 0.5099182 -0.17001343 0.6799011 -0.17001343c1.019867 0 1.869751 0.34002686 2.719635 1.0201111c0 -24.992828 0 -24.992828 0 -24.992828c0 -1.8702087 -1.5297852 -3.4003906 -3.3995361 -3.4003906c-42.494354 0 -42.494354 0 -42.494354 0c-1.869751 0 -3.3995667 1.5301819 -3.3995667 3.4003906c0 29.243286 0 29.243286 0 29.243286c0 1.8702087 1.5298157 3.4003906 3.3995667 3.4003906c28.046265 0 28.046265 0 28.046265 0c0 -0.34002686 0 -0.6800842 0 -0.85009766c0.33996582 -1.0201111 1.1898499 -2.0402222 3.0596008 -2.0402222c0.3399353 0 0.84988403 0.17001343 1.3598022 0.17001343zm0 0c0 0 0 0 0 0" fill-rule="evenodd"/><path fill="#ff3f5f" d="m321.04758 289.7418c0.17062378 0 0.34127808 -0.17034912 0.34127808 -0.34069824c0 -7.154297 0 -7.154297 0 -7.154297c0 -0.17034912 -0.1706543 -0.34066772 -0.34127808 -0.34066772c-6.654541 0 -6.654541 0 -6.654541 0c-0.17062378 0 -0.34124756 0.1703186 -0.34124756 0.34066772c0 7.154297 0 7.154297 0 7.154297c0 0.17034912 0.17062378 0.34069824 0.34124756 0.34069824l6.654541 0zm0 0c0 0 0 0 0 0" fill-rule="evenodd"/><path fill="#ff3f5f" d="m337.18112 297.36374c-22.75174 0 -22.75174 0 -22.75174 0c-0.5093689 0 -1.0187378 0.34429932 -1.0187378 1.0328674c0 0.516449 0.5093689 1.032898 1.0187378 1.032898c22.75174 0 22.75174 0 22.75174 0c0.5093689 0 1.0187378 -0.516449 1.0187378 -1.032898c-0.1697998 -0.6885681 -0.5093689 -1.0328674 -1.0187378 -1.0328674zm0 0c0 0 0 0 0 0" fill-rule="evenodd"/><path fill="#ff3f5f" d="m337.18112 301.99393c-22.75174 0 -22.75174 0 -22.75174 0c-0.5093689 0 -1.0187378 0.33673096 -1.0187378 0.8418274c0 0.67349243 0.5093689 1.0102234 1.0187378 1.0102234c22.75174 0 22.75174 0 22.75174 0c0.5093689 0 1.0187378 -0.33673096 1.0187378 -1.0102234c-0.1697998 -0.50509644 -0.5093689 -0.8418274 -1.0187378 -0.8418274zm0 0c0 0 0 0 0 0" fill-rule="evenodd"/><path fill="#ff3f5f" d="m357.73514 313.71365c-0.16940308 -3.572113 -1.5247803 -5.613312 -2.3718567 -7.314331c-1.1859436 -2.2113037 -3.3883972 -1.3607788 -3.3883972 -1.3607788c-1.6942139 -1.5309143 -3.0495605 0.34017944 -3.0495605 0.34017944c-1.863617 -1.5308838 -2.8801575 0.6804199 -2.8801575 0.6804199c-0.16940308 0.17010498 -3.727234 -5.613312 -3.896637 -5.7834167c-0.84710693 -1.7010193 -2.8801575 -0.8504944 -1.863617 1.0205994c2.7107239 4.7628174 2.880127 5.613312 3.896637 7.314331c0.33883667 0.6803894 2.5413208 4.4226074 1.5247803 4.5927124c-0.8470764 0.17007446 -1.863617 -1.8711243 -3.5578003 -2.3814087c-2.5412903 -0.8505249 -2.8801575 0.8504944 -1.863617 1.3607788c0.16940308 0.17010498 1.6941833 0.6804199 2.7107239 2.7216187c0.16940308 0.51031494 1.6941833 0.8504944 2.2024536 1.0205994c3.2189636 2.0411987 3.727234 1.5309143 4.9131775 1.5309143c1.3553467 0.17010498 1.6941833 0.8504944 1.6941833 0.8504944c6.268524 -3.231903 6.268524 -3.231903 6.268524 -3.231903c0 0.17010498 -0.16940308 -1.0205994 -0.33883667 -1.3608093zm0 0c0 0 0 0 0 0" fill-rule="evenodd"/><path fill="#3bc7e2" d="m647.9024 311.20697c-4.527649 -4.7451477 -4.527649 -4.7451477 -4.527649 -4.7451477c1.3582764 -2.7115173 0.9055176 -6.326874 -1.5847168 -8.812439c-2.9429321 -2.9374695 -7.923401 -2.9374695 -11.092773 0c-2.9429321 3.1634521 -2.9429321 8.134552 0 11.298004c2.4902344 2.2595825 5.8859863 2.7115173 8.8289795 1.5817261c4.527649 4.5191956 4.527649 4.5191956 4.527649 4.5191956l3.8485107 -3.841339zm-7.923401 -4.293213c-2.0374756 2.0336304 -5.206787 2.0336304 -7.2442627 0c-2.0374756 -2.033661 -2.0374756 -5.1970825 0 -7.2307434c2.0374756 -2.0336304 5.206787 -2.0336304 7.2442627 0c1.8110352 2.033661 1.8110352 5.1970825 0 7.2307434zm0 0c0 0 0 0 0 0" fill-rule="evenodd"/><path fill="#3bc7e2" d="m636.36774 312.57687c-2.2646484 0 -4.3029175 -0.6784973 -5.8881836 -2.0354614c-17.211609 0 -17.211609 0 -17.211609 0c0 -2.940155 0 -2.940155 0 -2.940155c14.94696 0 14.94696 0 14.94696 0c-0.67944336 -0.9046631 -0.9058838 -2.0354614 -1.1323853 -2.9401245c-13.814575 0 -13.814575 0 -13.814575 0c0 -2.940155 0 -2.940155 0 -2.940155c13.814575 0 13.814575 0 13.814575 0c0.22650146 -1.1308289 0.67944336 -2.0354614 1.1323853 -3.1662903c-14.94696 0 -14.94696 0 -14.94696 0c0 -2.7139893 0 -2.7139893 0 -2.7139893c17.43811 0 17.43811 0 17.43811 0c1.5852661 -1.1308289 3.6234741 -1.8093262 5.661682 -1.8093262c1.8117676 0 3.3970337 0.45233154 4.7558594 1.3569946c0 -19.223969 0 -19.223969 0 -19.223969c-21.514526 0 -21.514526 0 -21.514526 0c0 12.665192 0 12.665192 0 12.665192c-12.002869 0 -12.002869 0 -12.002869 0c0 28.949066 0 28.949066 0 28.949066c33.517395 0 33.517395 0 33.517395 0c0 -3.6186218 0 -3.6186218 0 -3.6186218c-1.8117676 -2.035492 -1.8117676 -2.035492 -1.8117676 -2.035492c-0.9058838 0.22616577 -2.038208 0.45233154 -2.9440918 0.45233154zm0 0c0 0 0 0 0 0" fill-rule="evenodd"/><path fill="#3bc7e2" d="m617.11536 277.48248l-8.3793335 8.567688l8.3793335 0l0 -8.567688zm0 0l0 0z" fill-rule="evenodd"/><path fill="#3bc7e2" d="m617.11536 277.48248l-8.3793335 8.567688l8.3793335 0l0 -8.567688m0 0l0 0" fill-rule="evenodd"/><path fill="#2ac2ac" d="m497.589 312.53375c-11.082336 0 -11.082336 0 -11.082336 0c0 3.3335266 -2.7705994 6.000366 -6.2338257 6.000366c-3.4632263 0 -6.2338257 -2.6668396 -6.2338257 -6.000366c-11.082336 0 -11.082336 0 -11.082336 0c-2.077942 0 -3.4632263 -1.333435 -3.4632263 -3.3335571c3.4632263 -2.666809 7.61911 -8.000488 7.61911 -20.00122c0 -4.6669617 4.155884 -9.333893 11.082336 -10.00061c-0.69262695 -0.6667175 -0.69262695 -0.6667175 -0.69262695 -1.3334045c0 -1.333435 1.3852844 -2.000122 2.7705688 -2.000122c1.3852844 0 2.077942 0.666687 2.077942 2.000122c0 0.666687 0 0.666687 0 1.3334045c6.2338257 0.6667175 10.389709 5.3336487 10.389709 10.00061c0 12.000732 4.1558533 17.334412 7.61911 20.00122c0 2.000122 -1.385315 3.3335571 -2.7705994 3.3335571zm-17.316162 3.3335266c-2.077942 0 -3.4632263 -2.000122 -3.4632263 -3.3335266c0 -0.6667175 -0.6926575 -0.6667175 -0.6926575 -0.6667175c0 0 -0.69262695 0 -0.69262695 0.6667175c0 2.000122 2.077942 4.000244 4.8485107 4.000244c0 0 0 0 0 -0.6667175c0 0 0 0 0 0z" fill-rule="evenodd"/><path fill="#7f739a" d="m796.6777 292.13483c0 4.34848 -5.5983887 9.939362 -13.062927 9.939362c-1.2440796 1.2424316 -2.4881592 2.4848633 -2.4881592 2.4848633c-1.2440796 1.2424011 -1.8660889 2.4848328 -1.8660889 4.3484497c0 1.2424316 0.6220093 3.106079 3.1101685 3.106079c2.4882202 0 4.9763794 1.2424011 4.9763794 3.7272644c0 1.863617 0 1.863617 0 1.863617c0 0.6212158 -0.6220703 0.6212158 -0.6220703 0.6212158c-21.149414 0 -21.149414 0 -21.149414 0c-0.6220703 0 -0.6220703 0 -0.6220703 -0.6212158c0 -1.863617 0 -1.863617 0 -1.863617c0 -2.4848633 2.4881592 -3.7272644 4.9763794 -3.7272644c1.8660889 0 3.1101685 -1.8636475 3.1101685 -3.106079c0 -1.863617 -0.6220093 -3.1060486 -1.8660889 -4.3484497c-0.6220703 0 -1.2440796 -1.2424316 -2.4882202 -2.4848633c-7.4644775 0 -13.684937 -5.5908813 -13.684937 -9.939362c0 -3.1060486 0 -3.1060486 0 -3.1060486c0 -1.8636475 1.2441406 -2.4848633 2.4882202 -2.4848633c7.4644775 0 7.4644775 0 7.4644775 0c0 -2.4848328 0 -2.4848328 0 -2.4848328c0 -2.4848328 1.8661499 -4.34848 3.7322388 -4.34848c14.307007 0 14.307007 0 14.307007 0c2.4881592 0 4.354309 1.8636475 4.354309 4.34848c0 2.4848328 0 2.4848328 0 2.4848328c6.8424683 0 6.8424683 0 6.8424683 0c1.8660889 0 2.4881592 0.6212158 2.4881592 2.4848633l0 3.1060486zm-31.724182 -2.4848328c-6.220398 0 -6.220398 0 -6.220398 0c0 2.4848328 0 2.4848328 0 2.4848328c0 2.4848328 3.1101685 5.5908813 8.086548 6.833313c-1.2440796 -2.4848328 -1.8661499 -5.5908813 -1.8661499 -9.318146zm28.613953 0c-6.220398 0 -6.220398 0 -6.220398 0c0 3.7272644 -0.6220703 6.833313 -1.8661499 9.318146c4.9763184 -1.2424316 8.086548 -4.34848 8.086548 -6.833313l0 -2.4848328z" fill-rule="evenodd"/><path fill="#ffffff" d="m11.034121 509.2362l0 0c0 -11.880646 9.631166 -21.51181 21.511812 -21.51181l0 0c5.705284 0 11.176899 2.2664185 15.211147 6.3006897c4.0342445 4.0342407 6.300663 9.505859 6.300663 15.211121l0 0c0 11.880676 -9.631165 21.51184 -21.51181 21.51184l0 0c-11.880646 0 -21.511812 -9.631165 -21.511812 -21.51184z" fill-rule="evenodd"/><path fill="#000000" fill-opacity="0.0" d="m934.6142 518.92914l25.385803 0l0 21.070862l-25.385803 0z" fill-rule="evenodd"/></g></svg>